<?xml version="1.0" encoding="utf-8"?>
<!-- Generator: Adobe Illustrator 24.2.2, SVG Export Plug-In . SVG Version: 6.00 Build 0)  -->
<svg xmlns="http://www.w3.org/2000/svg" xmlns:xlink="http://www.w3.org/1999/xlink" version="1.1" x="0px" y="0px" viewBox="0 0 3100.99 2192.62" style="enable-background:new 0 0 3100.99 2192.62;" xml:space="preserve">
<style type="text/css">
	.st0{fill:#15616D;}
	.st1{fill:#2A777F;}
	.st2{fill:#FFFFFF;}
	.st3{fill:#93CECE;}
	.st4{fill:#BB9457;}
	.st5{fill:#AA8048;}
	.st6{fill:#231F20;}
	.st7{fill:#FC729C;}
	.st8{fill:#EF6593;}
	.st9{fill:#F48CB1;}
	.st10{fill:#FFCAD4;}
	.st11{fill:#FF97B7;}
	.st12{fill:#78290F;}
	.st13{fill:none;stroke:#78290F;stroke-width:1.5314;stroke-miterlimit:10;}
	.st14{fill:#0096AA;}
	.st15{fill:#00B4D8;}
	.st16{fill:#00AAC1;}
	.st17{fill:#33E7FF;}
	.st18{fill:none;stroke:#78290F;stroke-width:0.9177;stroke-miterlimit:10;}
	.st19{fill:#939598;}
	.st20{fill:#58595B;}
	.st21{fill:#F1F2F2;}
	.st22{fill:#808285;}
	.st23{fill:#001233;}
</style>
<g id="Layer_2">
	
</g>
<g id="Layer_3">
	<g>
		<polygon class="st1" points="818.39,699.13 938.41,1805.23 2730.83,1805.23 1293.47,499.91   "/>
		<path class="st2" d="M938.41,664.95c0,0,197.19,56.32,224.1-104.16s0,0,0,0L938.41,664.95"/>
		<ellipse class="st3" cx="1834.62" cy="1805.23" rx="896.21" ry="109.09"/>
		<g>
			<polygon class="st4" points="1978.13,1557.31 1922.15,1672.37 2443.22,1672.37 2391.54,1559.09    "/>
			<polygon class="st5" points="1969.52,1672.37 1984.59,1813.06 2398,1813.06 2419.53,1672.37    "/>
		</g>
		<ellipse class="st6" cx="668.98" cy="1830.91" rx="176.8" ry="36.11"/>
		<g>
			<g>
				<path class="st7" d="M1595.45,1609.74c0,0,70.04-50.08,27.96-108.55s95.51,33.22-15.86,117.91L1595.45,1609.74z"/>
				<path class="st8" d="M1424.82,1613.48c0,0-176.12-58.26-112.39,78.41l26.4,51.77c0,0-89.1-19.47-90.01,39.89      c-0.48,30.9,151.16,16.01,151.16,16.01l38.31-82.83L1424.82,1613.48z"/>
				<path class="st9" d="M1334.06,1488.65c0,0,265.83,28.5,297.13,158.64c31.29,130.14-177.16,205.97-217.85,117.35      c-40.68-88.63-108.23-189.36-108.23-189.36L1334.06,1488.65z"/>
				<path class="st7" d="M1632.37,1681.16c0,0-230.68-144.95-213.42-5.18l16.22,102.5c0,0-60.36-12.42-88.16,34.17      c-27.8,46.59,188.59,15.53,188.59,15.53S1652.47,1764.55,1632.37,1681.16z"/>
				<path class="st8" d="M1214.05,1600.44l16.72,176c0,0-53.84-7.25-67.3,31.06c-13.46,38.31,118.03,11.39,118.03,11.39V1564.2      L1214.05,1600.44z"/>
				<path class="st7" d="M1264.62,1605.25l16.72,176c0,0-53.84-7.25-67.3,31.06c-13.46,38.31,118.03,11.39,118.03,11.39v-254.69      L1264.62,1605.25z"/>
				<path class="st7" d="M1220.2,1282.11c0,0-204.48,55.91-167.2,128.38c37.27,72.47,158.4-64.19,158.4-64.19L1220.2,1282.11z"/>
				<path class="st10" d="M1079.41,1529.91c27.82,66.22,140.18,143.95,243.3,56.58c4.99-4.22,9.59-8.65,13.86-13.23      C1198.35,1440.6,1114.96,1491.57,1079.41,1529.91z"/>
				<path class="st11" d="M1361.53,1300.74l-141.32-18.64c0,0-159.96,163.06-145.98,231.39c1.09,5.32,2.83,10.82,5.18,16.41      c35.55-38.34,118.95-89.31,257.16,43.36C1428.14,1475.1,1361.53,1300.74,1361.53,1300.74z"/>
				<path class="st12" d="M1165.52,1425.23c0,0,22.91-8.88,33.39,6.3c10.48,15.18-27.18,20.06-30.67,16.33      C1164.74,1444.14,1159.7,1429.52,1165.52,1425.23z"/>
				<path class="st7" d="M1340.91,1298.02l68.25,12.04c0,0,127.34,227.77,33.13,246.41      C1348.07,1575.1,1340.91,1298.02,1340.91,1298.02z"/>
				<path class="st13" d="M1293.47,1421.45c0,0-43.69,22.17-57.69-18.09"/>
				<path class="st13" d="M1200.75,1392.51c0,0-43.69,22.17-57.69-18.09"/>
				<path class="st13" d="M1162.86,1525.41c0,0,18.52-17.6,30.95,0"/>
			</g>
			<g>
				<path class="st14" d="M1614.43,1766.25c0,0-67.27-50.41-16.4-100.58c50.87-50.17,63.9-73.64,47.77-94.47      c-16.13-20.84-43.63,50.51-66.79,64.16s-84.68,102.3,36.65,171.82L1614.43,1766.25z"/>
				<path class="st15" d="M1608.59,1788.52c0,0,115.24-92.38,142.75-18.55c0,0,13.18,34.74-8.14,47.15c0,0,9.45-2.82,24.51,10.38      c15.06,13.2-84.48,18.16-94.3,14.44C1663.58,1838.21,1619.73,1830.64,1608.59,1788.52z"/>
				<path class="st14" d="M1614.43,1783.96c0,0,115.24-92.38,142.75-18.55c0,0,13.18,34.74-8.14,47.15c0,0,9.45-2.82,24.52,10.38      c15.06,13.2-84.48,18.16-94.3,14.44C1669.42,1833.65,1625.58,1826.08,1614.43,1783.96z"/>
				<path class="st16" d="M1720.86,1627.56c0,0-145.17,110.77-107.33,172.81c42.04,68.93,134.63,5.58,134.63,5.58l34.12-130.9      L1720.86,1627.56z"/>
				<path class="st14" d="M1845.1,1665.3l0.16,127.77c0,0,36.47-7.72,45.01,15.4c8.53,23.12-81.23,10.22-81.23,10.22l-10.9-158.25      L1845.1,1665.3z"/>
				<path class="st15" d="M1809.29,1670.52l0.16,127.77c0,0,36.47-7.72,45.01,15.4c8.53,23.12-81.23,10.22-81.23,10.22l-10.9-158.25      L1809.29,1670.52z"/>
				<g>
					<path class="st16" d="M1801.51,1542.37c0,0,3.72-23.17,29.16-42.34c0,0,31.64,23.02,29.78,65.83L1801.51,1542.37z"/>
					<path class="st15" d="M1884.13,1630.82c0.84-3.39,1.45-6.94,1.75-10.65c6.2-74.74-76.93-88.43-76.93-88.43l-92.44,33.5       c-8.69,11.17-6.87,66.52,13.65,95.71c7.12,10.14,19.4,17.36,34.04,21.47C1781.22,1648.99,1821.63,1591.13,1884.13,1630.82z"/>
					<path class="st17" d="M1764.21,1682.42c43.5,12.22,107.84-3.12,119.93-51.6C1821.63,1591.13,1781.22,1648.99,1764.21,1682.42z"/>
					<path class="st16" d="M1736.1,1558.14c0,0-37.57-26.4-60.53-7.79c0,0,3.82,40.8,36.03,48.32L1736.1,1558.14z"/>
					<path class="st18" d="M1736.1,1607.08c0,0,21.36,15.1,33.15-8.41"/>
					<path class="st18" d="M1811.33,1577.32c0,0,21.36,15.1,33.15-8.41"/>
					<path class="st12" d="M1824.21,1613.28c0,0-13.73-5.32-20.01,3.78c-6.28,9.1,16.29,12.02,18.38,9.79       C1824.67,1624.61,1827.7,1615.86,1824.21,1613.28z"/>
					<path class="st18" d="M1811.99,1650.96c0,0-11.1-10.55-18.54,0"/>
				</g>
				<path class="st15" d="M1607.79,1789.03c0,0,115.24-92.38,142.75-18.55c0,0,13.18,34.74-8.14,47.15c0,0,9.45-2.82,24.52,10.38      c15.06,13.2-84.48,18.16-94.3,14.44S1618.93,1831.15,1607.79,1789.03z"/>
			</g>
		</g>
		<g>
			<polygon class="st19" points="634.15,1589.67 695.12,1820.94 728.74,1820.94 528.7,711.95 528.7,711.95    "/>
			<polygon class="st6" points="905.32,278.29 370.16,588.32 634.15,1589.67 528.7,711.95 528.7,711.95 515.83,640.61      874.37,397.82 905.32,461.32 968.97,420.23    "/>
		</g>
		<polygon class="st20" points="553.18,1583.66 612.95,1820.94 644.05,1820.94 665.24,1553.16   "/>
		<polygon class="st21" points="665.24,1553.16 644.05,1820.94 695.12,1820.94   "/>
		<g>
			<path class="st20" d="M1138.22,415.09c-59.33-17.09-128.76-18.52-197.36,23.28c-156.42,95.34-134.93,288.15-134.93,288.15     l170.32-79.16C901.85,604.08,834.94,519.93,1138.22,415.09z"/>
			<path class="st22" d="M1138.22,415.09C834.94,519.93,901.85,604.08,976.25,647.36l317.22-147.44     C1273.59,484.53,1214.19,436.97,1138.22,415.09z"/>
		</g>
	</g>
	<g>
		<g>
			<path class="st23" d="M1564.71,1137.81l-7.93,21.76h-52.21l64.97-153.96h52.21l62.61,153.96h-54.25l-7.72-21.76H1564.71z      M1594.09,1056.33l-16.19,45.03h32.06L1594.09,1056.33z"/>
			<path class="st23" d="M1761.78,1005.62c16.87,0,31.59,3.15,44.17,9.43c12.58,6.29,22.32,15.26,29.22,26.91     c6.9,11.65,10.35,25.16,10.35,40.53c0,15.51-3.52,29.06-10.56,40.63c-7.04,11.58-17.03,20.55-29.97,26.91     c-12.94,6.36-27.98,9.54-45.14,9.54h-66.8v-153.96H1761.78L1761.78,1005.62z M1744.09,1120.02h19.08     c9.22,0,16.56-3.36,22.03-10.08c5.47-6.72,8.2-15.72,8.2-27.02c0-11.44-2.97-20.59-8.9-27.45c-5.93-6.86-13.87-10.29-23.8-10.29     h-16.62V1120.02z"/>
			<path class="st23" d="M1936.54,1004.11c16.08,0,30.57,3.36,43.48,10.08c12.9,6.72,22.98,16.05,30.23,27.98     c7.25,11.94,10.88,25.38,10.88,40.31c0,15.08-3.63,28.63-10.88,40.63c-7.26,12.01-17.33,21.44-30.23,28.3     c-12.9,6.86-27.39,10.29-43.48,10.29c-16.08,0-30.57-3.39-43.48-10.19c-12.9-6.79-22.96-16.22-30.18-28.31     c-7.22-12.08-10.83-25.66-10.83-40.74c0-15.08,3.61-28.55,10.83-40.42c7.22-11.86,17.28-21.16,30.18-27.88     C1905.96,1007.48,1920.46,1004.11,1936.54,1004.11L1936.54,1004.11z M1937.18,1046.47c-5.86,0-11.31,1.57-16.35,4.72     c-5.04,3.15-9.06,7.47-12.06,12.97c-3,5.5-4.5,11.69-4.5,18.55s1.5,13.08,4.5,18.66s7.02,9.97,12.06,13.19     c5.04,3.22,10.49,4.82,16.35,4.82c5.86,0,11.2-1.61,16.03-4.82c4.82-3.22,8.63-7.61,11.42-13.19c2.79-5.58,4.18-11.79,4.18-18.66     s-1.39-13.04-4.18-18.55c-2.79-5.5-6.59-9.83-11.42-12.97C1948.39,1048.04,1943.04,1046.47,1937.18,1046.47L1937.18,1046.47z"/>
			<path class="st23" d="M2107.55,1005.62c20.08,0,35.61,4.81,46.59,14.42c10.97,9.61,16.46,23.18,16.46,40.69     c0,18.59-5.49,33.04-16.46,43.37c-10.97,10.33-26.5,15.49-46.59,15.49h-21.23v39.99h-51.03v-153.96H2107.55L2107.55,1005.62z      M2086.32,1080.99h18.66c5.58,0,9.85-1.64,12.81-4.93c2.97-3.29,4.45-7.86,4.45-13.72c0-5.72-1.5-10.15-4.5-13.29     c-3-3.14-7.26-4.72-12.76-4.72h-18.66V1080.99z"/>
			<path class="st23" d="M2270.62,1045.82v113.76h-50.93v-113.76h-43.74v-40.21h138.63v40.21H2270.62z"/>
		</g>
	</g>
	<g>
		<g>
			<path class="st23" d="M2220.44,1476.87v-158.21l-49.52,130.23h-62.6l-49.52-130.23v158.21h-83.33v-289.05h101.05l63.2,150.97     l63-150.97h101.05v289.05H2220.44z"/>
			<path class="st23" d="M2440.65,1260.48v35.43h135.06v72.46h-135.06v36.03h152.38v72.46h-248.19v-289.05h244.57v72.67H2440.65z"/>
		</g>
	</g>
</g>
</svg>
