<?xml version="1.0" encoding="UTF-8"?>
<svg xmlns="http://www.w3.org/2000/svg" xmlns:xlink="http://www.w3.org/1999/xlink" width="2834.88" height="2834.88" viewBox="0 0 2834.88 2834.88">
<path fill-rule="evenodd" fill="rgb(65.234375%, 31.201172%, 14.208984%)" fill-opacity="1" d="M 1020.5 2331.652344 C 857.324219 2286.5 747.980469 2172.742188 805.800781 1936.113281 C 838.097656 1803.941406 1023.949219 1668.238281 1126.558594 1542.878906 C 1136.871094 1530.269531 1156.699219 1495.050781 1159.289062 1458.449219 C 1161.75 1423.648438 1147.511719 1387.429688 1137.148438 1375.320312 C 1099.039062 1330.769531 1036.691406 1306.769531 965.921875 1295.359375 C 831.707031 1273.710938 786.246094 1114.601562 786.246094 1114.601562 C 786.246094 1114.601562 733.148438 990.820312 760.632812 946.429688 C 788.113281 902.039062 950.894531 961.230469 984.71875 961.230469 C 1018.539062 961.230469 1073.511719 933.738281 1077.738281 899.921875 C 1081.960938 866.101562 1113.679688 834.390625 1183.441406 813.25 C 1253.199219 792.101562 1356.789062 792.101562 1356.789062 792.101562 C 1407.191406 736.648438 1461.699219 627.710938 1504.769531 484.300781 C 1604.300781 626.550781 1605.511719 757.109375 1587.21875 883.011719 C 1587.21875 883.011719 1625.160156 960.449219 1626.578125 1011.570312 C 1630.390625 1148.75 1603.128906 1140.820312 1613.699219 1235.949219 C 1615.628906 1253.28125 1643.101562 1349.601562 1691.660156 1440.078125 C 1738.679688 1527.710938 1806.328125 1609.320312 1838.359375 1641.351562 C 1934.761719 1737.761719 2043.53125 1837.910156 2067.519531 1936.113281 C 2138.25 2225.558594 1936.449219 2361.566406 1717.960938 2349.621094 C 1660.859375 2350.425781 1597.628906 2347.175781 1544.160156 2342.441406 C 1438.730469 2333.066406 1357.808594 2101.09375 1621.058594 2081.027344 C 1647.878906 2078.984375 1632.390625 1998.242188 1686.25 1986.023438 C 1727.390625 1976.683594 1752.660156 1958.609375 1762.070312 1931.816406 C 1776.941406 1918.550781 1786.078125 1902.597656 1789.480469 1883.945312 C 1811.621094 1857.566406 1812.230469 1836.527344 1791.289062 1820.878906 C 1768.871094 1802.949219 1751.621094 1784.46875 1739.53125 1765.480469 C 1731.679688 1715.789062 1696.511719 1678.308594 1633.980469 1653.089844 C 1634.351562 1608 1631.171875 1562.261719 1624.359375 1515.890625 C 1583.949219 1544.839844 1555.5 1585.53125 1539.019531 1637.949219 C 1534.398438 1637.308594 1528.808594 1637.308594 1522.269531 1637.898438 C 1499.078125 1575.96875 1470.640625 1526.539062 1436.988281 1489.609375 C 1399.230469 1521.601562 1355.601562 1612.289062 1345.089844 1686.441406 C 1301.820312 1756.589844 1277.539062 1813.019531 1272.238281 1855.738281 C 1269.679688 1895.28125 1260.898438 1927.796875 1245.890625 1953.324219 C 1212.941406 1979.734375 1190.210938 2016.78125 1177.640625 2064.445312 C 1177.019531 2066.183594 1175.699219 2070.390625 1173.820312 2076.621094 C 1542.609375 2080.746094 1435.371094 2332.351562 1321.929688 2342.441406 C 1247.578125 2349.027344 1159.238281 2352.738281 1093.25 2346.664062 C 1093.21875 2346.753906 1093.191406 2346.839844 1093.171875 2346.929688 C 1091.621094 2346.695312 1090.078125 2346.457031 1088.550781 2346.210938 C 1060.578125 2343.390625 1036.929688 2338.722656 1020.5 2331.652344 Z M 1271.789062 784.910156 C 1298.539062 723.871094 1318.558594 627.75 1325.261719 510.160156 C 1375.050781 554.308594 1408.601562 600.371094 1431.46875 647.5 C 1405.28125 704.628906 1377.828125 749.789062 1351.339844 780.140625 C 1339.128906 780.328125 1307.761719 781.191406 1271.789062 784.910156 "/>
</svg>
