<?xml version="1.0" encoding="UTF-8"?>
<svg xmlns="http://www.w3.org/2000/svg" xmlns:xlink="http://www.w3.org/1999/xlink" width="2500" height="2500" viewBox="0 0 2500 2500">
<defs>
<radialGradient id="radial-pattern-0" gradientUnits="userSpaceOnUse" cx="0" cy="0" fx="0" fy="0" r="4884.83" gradientTransform="matrix(1, 0, 0, 1, -750.237, 149.58)">
<stop offset="0" stop-color="rgb(59.45282%, 82.878113%, 76.055908%)" stop-opacity="1"/>
<stop offset="0.0078125" stop-color="rgb(59.747314%, 82.937622%, 76.11084%)" stop-opacity="1"/>
<stop offset="0.0117188" stop-color="rgb(59.944153%, 82.975769%, 76.147461%)" stop-opacity="1"/>
<stop offset="0.015625" stop-color="rgb(60.137939%, 83.015442%, 76.184082%)" stop-opacity="1"/>
<stop offset="0.0195312" stop-color="rgb(60.334778%, 83.055115%, 76.220703%)" stop-opacity="1"/>
<stop offset="0.0234375" stop-color="rgb(60.531616%, 83.094788%, 76.25885%)" stop-opacity="1"/>
<stop offset="0.0273438" stop-color="rgb(60.726929%, 83.132935%, 76.293945%)" stop-opacity="1"/>
<stop offset="0.03125" stop-color="rgb(60.923767%, 83.172607%, 76.332092%)" stop-opacity="1"/>
<stop offset="0.0351562" stop-color="rgb(61.11908%, 83.210754%, 76.370239%)" stop-opacity="1"/>
<stop offset="0.0390625" stop-color="rgb(61.314392%, 83.248901%, 76.405334%)" stop-opacity="1"/>
<stop offset="0.0429688" stop-color="rgb(61.51123%, 83.287048%, 76.443481%)" stop-opacity="1"/>
<stop offset="0.046875" stop-color="rgb(61.706543%, 83.325195%, 76.480103%)" stop-opacity="1"/>
<stop offset="0.0507812" stop-color="rgb(61.903381%, 83.364868%, 76.519775%)" stop-opacity="1"/>
<stop offset="0.0546875" stop-color="rgb(62.10022%, 83.403015%, 76.556396%)" stop-opacity="1"/>
<stop offset="0.0585938" stop-color="rgb(62.294006%, 83.441162%, 76.593018%)" stop-opacity="1"/>
<stop offset="0.0625" stop-color="rgb(62.490845%, 83.480835%, 76.631165%)" stop-opacity="1"/>
<stop offset="0.0664062" stop-color="rgb(62.686157%, 83.517456%, 76.667786%)" stop-opacity="1"/>
<stop offset="0.0703125" stop-color="rgb(62.882996%, 83.555603%, 76.704407%)" stop-opacity="1"/>
<stop offset="0.0742188" stop-color="rgb(63.078308%, 83.59375%, 76.74408%)" stop-opacity="1"/>
<stop offset="0.078125" stop-color="rgb(63.276672%, 83.631897%, 76.782227%)" stop-opacity="1"/>
<stop offset="0.0820312" stop-color="rgb(63.470459%, 83.670044%, 76.818848%)" stop-opacity="1"/>
<stop offset="0.0859375" stop-color="rgb(63.667297%, 83.708191%, 76.856995%)" stop-opacity="1"/>
<stop offset="0.0898438" stop-color="rgb(63.86261%, 83.746338%, 76.895142%)" stop-opacity="1"/>
<stop offset="0.09375" stop-color="rgb(64.057922%, 83.782959%, 76.931763%)" stop-opacity="1"/>
<stop offset="0.0976562" stop-color="rgb(64.254761%, 83.821106%, 76.971436%)" stop-opacity="1"/>
<stop offset="0.101562" stop-color="rgb(64.450073%, 83.860779%, 77.011108%)" stop-opacity="1"/>
<stop offset="0.105469" stop-color="rgb(64.645386%, 83.8974%, 77.047729%)" stop-opacity="1"/>
<stop offset="0.109375" stop-color="rgb(64.842224%, 83.935547%, 77.085876%)" stop-opacity="1"/>
<stop offset="0.113281" stop-color="rgb(65.037537%, 83.972168%, 77.124023%)" stop-opacity="1"/>
<stop offset="0.117188" stop-color="rgb(65.234375%, 84.008789%, 77.163696%)" stop-opacity="1"/>
<stop offset="0.121094" stop-color="rgb(65.429688%, 84.046936%, 77.201843%)" stop-opacity="1"/>
<stop offset="0.125" stop-color="rgb(65.625%, 84.083557%, 77.23999%)" stop-opacity="1"/>
<stop offset="0.128906" stop-color="rgb(65.821838%, 84.121704%, 77.278137%)" stop-opacity="1"/>
<stop offset="0.132812" stop-color="rgb(66.017151%, 84.158325%, 77.316284%)" stop-opacity="1"/>
<stop offset="0.136719" stop-color="rgb(66.212463%, 84.196472%, 77.355957%)" stop-opacity="1"/>
<stop offset="0.140625" stop-color="rgb(66.409302%, 84.233093%, 77.39563%)" stop-opacity="1"/>
<stop offset="0.144531" stop-color="rgb(66.603088%, 84.269714%, 77.433777%)" stop-opacity="1"/>
<stop offset="0.148438" stop-color="rgb(66.799927%, 84.306335%, 77.471924%)" stop-opacity="1"/>
<stop offset="0.152344" stop-color="rgb(66.995239%, 84.342957%, 77.511597%)" stop-opacity="1"/>
<stop offset="0.15625" stop-color="rgb(67.192078%, 84.381104%, 77.549744%)" stop-opacity="1"/>
<stop offset="0.160156" stop-color="rgb(67.38739%, 84.417725%, 77.589417%)" stop-opacity="1"/>
<stop offset="0.164062" stop-color="rgb(67.584229%, 84.454346%, 77.629089%)" stop-opacity="1"/>
<stop offset="0.167969" stop-color="rgb(67.778015%, 84.489441%, 77.667236%)" stop-opacity="1"/>
<stop offset="0.171875" stop-color="rgb(67.973328%, 84.526062%, 77.706909%)" stop-opacity="1"/>
<stop offset="0.175781" stop-color="rgb(68.170166%, 84.562683%, 77.746582%)" stop-opacity="1"/>
<stop offset="0.179688" stop-color="rgb(68.365479%, 84.599304%, 77.784729%)" stop-opacity="1"/>
<stop offset="0.183594" stop-color="rgb(68.562317%, 84.635925%, 77.825928%)" stop-opacity="1"/>
<stop offset="0.1875" stop-color="rgb(68.757629%, 84.672546%, 77.865601%)" stop-opacity="1"/>
<stop offset="0.191406" stop-color="rgb(68.951416%, 84.709167%, 77.905273%)" stop-opacity="1"/>
<stop offset="0.195312" stop-color="rgb(69.148254%, 84.744263%, 77.94342%)" stop-opacity="1"/>
<stop offset="0.199219" stop-color="rgb(69.343567%, 84.780884%, 77.983093%)" stop-opacity="1"/>
<stop offset="0.203125" stop-color="rgb(69.538879%, 84.815979%, 78.022766%)" stop-opacity="1"/>
<stop offset="0.207031" stop-color="rgb(69.735718%, 84.8526%, 78.063965%)" stop-opacity="1"/>
<stop offset="0.210938" stop-color="rgb(69.929504%, 84.889221%, 78.103638%)" stop-opacity="1"/>
<stop offset="0.214844" stop-color="rgb(70.126343%, 84.924316%, 78.143311%)" stop-opacity="1"/>
<stop offset="0.21875" stop-color="rgb(70.321655%, 84.960938%, 78.182983%)" stop-opacity="1"/>
<stop offset="0.222656" stop-color="rgb(70.516968%, 84.996033%, 78.222656%)" stop-opacity="1"/>
<stop offset="0.226562" stop-color="rgb(70.713806%, 85.031128%, 78.262329%)" stop-opacity="1"/>
<stop offset="0.230469" stop-color="rgb(70.909119%, 85.067749%, 78.303528%)" stop-opacity="1"/>
<stop offset="0.234375" stop-color="rgb(71.102905%, 85.101318%, 78.343201%)" stop-opacity="1"/>
<stop offset="0.238281" stop-color="rgb(71.299744%, 85.137939%, 78.384399%)" stop-opacity="1"/>
<stop offset="0.242188" stop-color="rgb(71.495056%, 85.174561%, 78.425598%)" stop-opacity="1"/>
<stop offset="0.246094" stop-color="rgb(71.690369%, 85.209656%, 78.465271%)" stop-opacity="1"/>
<stop offset="0.25" stop-color="rgb(71.885681%, 85.243225%, 78.50647%)" stop-opacity="1"/>
<stop offset="0.253906" stop-color="rgb(72.17865%, 85.296631%, 78.565979%)" stop-opacity="1"/>
<stop offset="0.261719" stop-color="rgb(72.569275%, 85.366821%, 78.646851%)" stop-opacity="1"/>
<stop offset="0.269531" stop-color="rgb(72.961426%, 85.435486%, 78.729248%)" stop-opacity="1"/>
<stop offset="0.277344" stop-color="rgb(73.350525%, 85.50415%, 78.81012%)" stop-opacity="1"/>
<stop offset="0.285156" stop-color="rgb(73.742676%, 85.575867%, 78.892517%)" stop-opacity="1"/>
<stop offset="0.292969" stop-color="rgb(74.133301%, 85.644531%, 78.97644%)" stop-opacity="1"/>
<stop offset="0.300781" stop-color="rgb(74.523926%, 85.713196%, 79.057312%)" stop-opacity="1"/>
<stop offset="0.308594" stop-color="rgb(74.914551%, 85.78186%, 79.142761%)" stop-opacity="1"/>
<stop offset="0.316406" stop-color="rgb(75.306702%, 85.848999%, 79.223633%)" stop-opacity="1"/>
<stop offset="0.324219" stop-color="rgb(75.695801%, 85.917664%, 79.307556%)" stop-opacity="1"/>
<stop offset="0.332031" stop-color="rgb(76.086426%, 85.984802%, 79.391479%)" stop-opacity="1"/>
<stop offset="0.339844" stop-color="rgb(76.478577%, 86.053467%, 79.475403%)" stop-opacity="1"/>
<stop offset="0.347656" stop-color="rgb(76.867676%, 86.11908%, 79.5578%)" stop-opacity="1"/>
<stop offset="0.355469" stop-color="rgb(77.258301%, 86.187744%, 79.64325%)" stop-opacity="1"/>
<stop offset="0.363281" stop-color="rgb(77.648926%, 86.253357%, 79.728699%)" stop-opacity="1"/>
<stop offset="0.371094" stop-color="rgb(78.038025%, 86.31897%, 79.811096%)" stop-opacity="1"/>
<stop offset="0.378906" stop-color="rgb(78.42865%, 86.386108%, 79.898071%)" stop-opacity="1"/>
<stop offset="0.386719" stop-color="rgb(78.817749%, 86.450195%, 79.981995%)" stop-opacity="1"/>
<stop offset="0.394531" stop-color="rgb(79.2099%, 86.51886%, 80.067444%)" stop-opacity="1"/>
<stop offset="0.402344" stop-color="rgb(79.600525%, 86.582947%, 80.154419%)" stop-opacity="1"/>
<stop offset="0.410156" stop-color="rgb(79.989624%, 86.647034%, 80.238342%)" stop-opacity="1"/>
<stop offset="0.417969" stop-color="rgb(80.380249%, 86.712646%, 80.325317%)" stop-opacity="1"/>
<stop offset="0.425781" stop-color="rgb(80.770874%, 86.776733%, 80.412292%)" stop-opacity="1"/>
<stop offset="0.433594" stop-color="rgb(81.159973%, 86.84082%, 80.497742%)" stop-opacity="1"/>
<stop offset="0.441406" stop-color="rgb(81.550598%, 86.906433%, 80.586243%)" stop-opacity="1"/>
<stop offset="0.449219" stop-color="rgb(81.941223%, 86.968994%, 80.673218%)" stop-opacity="1"/>
<stop offset="0.457031" stop-color="rgb(82.330322%, 87.033081%, 80.760193%)" stop-opacity="1"/>
<stop offset="0.464844" stop-color="rgb(82.719421%, 87.095642%, 80.847168%)" stop-opacity="1"/>
<stop offset="0.472656" stop-color="rgb(83.110046%, 87.159729%, 80.935669%)" stop-opacity="1"/>
<stop offset="0.480469" stop-color="rgb(83.499146%, 87.220764%, 81.022644%)" stop-opacity="1"/>
<stop offset="0.488281" stop-color="rgb(83.889771%, 87.283325%, 81.111145%)" stop-opacity="1"/>
<stop offset="0.496094" stop-color="rgb(84.27887%, 87.345886%, 81.199646%)" stop-opacity="1"/>
<stop offset="0.503906" stop-color="rgb(84.571838%, 87.393188%, 81.266785%)" stop-opacity="1"/>
<stop offset="0.507812" stop-color="rgb(84.767151%, 87.423706%, 81.311035%)" stop-opacity="1"/>
<stop offset="0.511719" stop-color="rgb(84.962463%, 87.454224%, 81.355286%)" stop-opacity="1"/>
<stop offset="0.515625" stop-color="rgb(85.15625%, 87.484741%, 81.401062%)" stop-opacity="1"/>
<stop offset="0.519531" stop-color="rgb(85.350037%, 87.515259%, 81.445312%)" stop-opacity="1"/>
<stop offset="0.523438" stop-color="rgb(85.545349%, 87.54425%, 81.489563%)" stop-opacity="1"/>
<stop offset="0.527344" stop-color="rgb(85.740662%, 87.576294%, 81.533813%)" stop-opacity="1"/>
<stop offset="0.53125" stop-color="rgb(85.935974%, 87.608337%, 81.57959%)" stop-opacity="1"/>
<stop offset="0.535156" stop-color="rgb(86.131287%, 87.638855%, 81.62384%)" stop-opacity="1"/>
<stop offset="0.539062" stop-color="rgb(86.325073%, 87.667847%, 81.669617%)" stop-opacity="1"/>
<stop offset="0.542969" stop-color="rgb(86.51886%, 87.698364%, 81.713867%)" stop-opacity="1"/>
<stop offset="0.546875" stop-color="rgb(86.714172%, 87.727356%, 81.758118%)" stop-opacity="1"/>
<stop offset="0.550781" stop-color="rgb(86.909485%, 87.756348%, 81.802368%)" stop-opacity="1"/>
<stop offset="0.554688" stop-color="rgb(87.104797%, 87.788391%, 81.848145%)" stop-opacity="1"/>
<stop offset="0.558594" stop-color="rgb(87.30011%, 87.818909%, 81.893921%)" stop-opacity="1"/>
<stop offset="0.5625" stop-color="rgb(87.492371%, 87.8479%, 81.939697%)" stop-opacity="1"/>
<stop offset="0.566406" stop-color="rgb(87.687683%, 87.876892%, 81.983948%)" stop-opacity="1"/>
<stop offset="0.570312" stop-color="rgb(87.882996%, 87.90741%, 82.029724%)" stop-opacity="1"/>
<stop offset="0.574219" stop-color="rgb(88.076782%, 87.937927%, 82.073975%)" stop-opacity="1"/>
<stop offset="0.578125" stop-color="rgb(88.272095%, 87.965393%, 82.118225%)" stop-opacity="1"/>
<stop offset="0.582031" stop-color="rgb(88.465881%, 87.995911%, 82.167053%)" stop-opacity="1"/>
<stop offset="0.585938" stop-color="rgb(88.661194%, 88.026428%, 82.211304%)" stop-opacity="1"/>
<stop offset="0.589844" stop-color="rgb(88.856506%, 88.05542%, 82.25708%)" stop-opacity="1"/>
<stop offset="0.59375" stop-color="rgb(89.050293%, 88.084412%, 82.301331%)" stop-opacity="1"/>
<stop offset="0.597656" stop-color="rgb(89.245605%, 88.113403%, 82.347107%)" stop-opacity="1"/>
<stop offset="0.601562" stop-color="rgb(89.440918%, 88.142395%, 82.392883%)" stop-opacity="1"/>
<stop offset="0.605469" stop-color="rgb(89.633179%, 88.171387%, 82.43866%)" stop-opacity="1"/>
<stop offset="0.609375" stop-color="rgb(89.828491%, 88.201904%, 82.485962%)" stop-opacity="1"/>
<stop offset="0.613281" stop-color="rgb(90.023804%, 88.230896%, 82.531738%)" stop-opacity="1"/>
<stop offset="0.617188" stop-color="rgb(90.219116%, 88.258362%, 82.577515%)" stop-opacity="1"/>
<stop offset="0.621094" stop-color="rgb(90.412903%, 88.287354%, 82.623291%)" stop-opacity="1"/>
<stop offset="0.625" stop-color="rgb(90.606689%, 88.316345%, 82.669067%)" stop-opacity="1"/>
<stop offset="0.628906" stop-color="rgb(90.898132%, 88.360596%, 82.737732%)" stop-opacity="1"/>
<stop offset="0.636719" stop-color="rgb(91.288757%, 88.417053%, 82.829285%)" stop-opacity="1"/>
<stop offset="0.644531" stop-color="rgb(91.677856%, 88.471985%, 82.922363%)" stop-opacity="1"/>
<stop offset="0.652344" stop-color="rgb(92.06543%, 88.529968%, 83.015442%)" stop-opacity="1"/>
<stop offset="0.660156" stop-color="rgb(92.454529%, 88.586426%, 83.108521%)" stop-opacity="1"/>
<stop offset="0.667969" stop-color="rgb(92.843628%, 88.642883%, 83.203125%)" stop-opacity="1"/>
<stop offset="0.675781" stop-color="rgb(93.070984%, 88.502502%, 83.041382%)" stop-opacity="1"/>
<stop offset="0.683594" stop-color="rgb(92.959595%, 88.063049%, 82.484436%)" stop-opacity="1"/>
<stop offset="0.6875" stop-color="rgb(92.674255%, 87.515259%, 81.785583%)" stop-opacity="1"/>
<stop offset="0.691406" stop-color="rgb(92.390442%, 86.97052%, 81.092834%)" stop-opacity="1"/>
<stop offset="0.695312" stop-color="rgb(92.108154%, 86.428833%, 80.401611%)" stop-opacity="1"/>
<stop offset="0.699219" stop-color="rgb(91.824341%, 85.890198%, 79.718018%)" stop-opacity="1"/>
<stop offset="0.703125" stop-color="rgb(91.542053%, 85.351562%, 79.03595%)" stop-opacity="1"/>
<stop offset="0.707031" stop-color="rgb(91.261292%, 84.815979%, 78.358459%)" stop-opacity="1"/>
<stop offset="0.710938" stop-color="rgb(90.982056%, 84.281921%, 77.687073%)" stop-opacity="1"/>
<stop offset="0.714844" stop-color="rgb(90.701294%, 83.750916%, 77.017212%)" stop-opacity="1"/>
<stop offset="0.71875" stop-color="rgb(90.422058%, 83.221436%, 76.351929%)" stop-opacity="1"/>
<stop offset="0.722656" stop-color="rgb(90.142822%, 82.693481%, 75.692749%)" stop-opacity="1"/>
<stop offset="0.726562" stop-color="rgb(89.866638%, 82.168579%, 75.036621%)" stop-opacity="1"/>
<stop offset="0.730469" stop-color="rgb(89.588928%, 81.646729%, 74.385071%)" stop-opacity="1"/>
<stop offset="0.734375" stop-color="rgb(89.31427%, 81.12793%, 73.738098%)" stop-opacity="1"/>
<stop offset="0.738281" stop-color="rgb(89.038086%, 80.607605%, 73.092651%)" stop-opacity="1"/>
<stop offset="0.742188" stop-color="rgb(88.763428%, 80.091858%, 72.453308%)" stop-opacity="1"/>
<stop offset="0.746094" stop-color="rgb(88.490295%, 79.577637%, 71.818542%)" stop-opacity="1"/>
<stop offset="0.75" stop-color="rgb(88.217163%, 79.064941%, 71.186829%)" stop-opacity="1"/>
<stop offset="0.753906" stop-color="rgb(87.944031%, 78.553772%, 70.558167%)" stop-opacity="1"/>
<stop offset="0.757812" stop-color="rgb(87.672424%, 78.045654%, 69.935608%)" stop-opacity="1"/>
<stop offset="0.761719" stop-color="rgb(87.400818%, 77.539062%, 69.316101%)" stop-opacity="1"/>
<stop offset="0.765625" stop-color="rgb(87.132263%, 77.035522%, 68.701172%)" stop-opacity="1"/>
<stop offset="0.769531" stop-color="rgb(86.860657%, 76.533508%, 68.087769%)" stop-opacity="1"/>
<stop offset="0.773438" stop-color="rgb(86.593628%, 76.03302%, 67.480469%)" stop-opacity="1"/>
<stop offset="0.777344" stop-color="rgb(86.325073%, 75.535583%, 66.877747%)" stop-opacity="1"/>
<stop offset="0.78125" stop-color="rgb(86.058044%, 75.039673%, 66.278076%)" stop-opacity="1"/>
<stop offset="0.785156" stop-color="rgb(85.791016%, 74.545288%, 65.681458%)" stop-opacity="1"/>
<stop offset="0.789062" stop-color="rgb(85.525513%, 74.053955%, 65.089417%)" stop-opacity="1"/>
<stop offset="0.792969" stop-color="rgb(85.26001%, 73.565674%, 64.501953%)" stop-opacity="1"/>
<stop offset="0.796875" stop-color="rgb(84.996033%, 73.077393%, 63.919067%)" stop-opacity="1"/>
<stop offset="0.800781" stop-color="rgb(84.732056%, 72.590637%, 63.337708%)" stop-opacity="1"/>
<stop offset="0.804688" stop-color="rgb(84.469604%, 72.106934%, 62.762451%)" stop-opacity="1"/>
<stop offset="0.808594" stop-color="rgb(84.207153%, 71.626282%, 62.188721%)" stop-opacity="1"/>
<stop offset="0.8125" stop-color="rgb(83.946228%, 71.14563%, 61.621094%)" stop-opacity="1"/>
<stop offset="0.816406" stop-color="rgb(83.685303%, 70.66803%, 61.054993%)" stop-opacity="1"/>
<stop offset="0.820312" stop-color="rgb(83.425903%, 70.191956%, 60.494995%)" stop-opacity="1"/>
<stop offset="0.824219" stop-color="rgb(83.166504%, 69.718933%, 59.938049%)" stop-opacity="1"/>
<stop offset="0.828125" stop-color="rgb(82.90863%, 69.247437%, 59.382629%)" stop-opacity="1"/>
<stop offset="0.832031" stop-color="rgb(82.649231%, 68.77594%, 58.833313%)" stop-opacity="1"/>
<stop offset="0.835938" stop-color="rgb(82.394409%, 68.309021%, 58.287048%)" stop-opacity="1"/>
<stop offset="0.839844" stop-color="rgb(82.138062%, 67.843628%, 57.745361%)" stop-opacity="1"/>
<stop offset="0.84375" stop-color="rgb(81.88324%, 67.379761%, 57.208252%)" stop-opacity="1"/>
<stop offset="0.847656" stop-color="rgb(81.628418%, 66.918945%, 56.672668%)" stop-opacity="1"/>
<stop offset="0.851562" stop-color="rgb(81.373596%, 66.45813%, 56.140137%)" stop-opacity="1"/>
<stop offset="0.855469" stop-color="rgb(81.1203%, 66.000366%, 55.613708%)" stop-opacity="1"/>
<stop offset="0.859375" stop-color="rgb(80.870056%, 65.544128%, 55.090332%)" stop-opacity="1"/>
<stop offset="0.863281" stop-color="rgb(80.618286%, 65.089417%, 54.570007%)" stop-opacity="1"/>
<stop offset="0.867188" stop-color="rgb(80.366516%, 64.637756%, 54.052734%)" stop-opacity="1"/>
<stop offset="0.871094" stop-color="rgb(80.116272%, 64.187622%, 53.540039%)" stop-opacity="1"/>
<stop offset="0.875" stop-color="rgb(79.867554%, 63.739014%, 53.030396%)" stop-opacity="1"/>
<stop offset="0.878906" stop-color="rgb(79.618835%, 63.291931%, 52.52533%)" stop-opacity="1"/>
<stop offset="0.882812" stop-color="rgb(79.371643%, 62.8479%, 52.02179%)" stop-opacity="1"/>
<stop offset="0.886719" stop-color="rgb(79.124451%, 62.40387%, 51.524353%)" stop-opacity="1"/>
<stop offset="0.890625" stop-color="rgb(78.878784%, 61.964417%, 51.028442%)" stop-opacity="1"/>
<stop offset="0.894531" stop-color="rgb(78.633118%, 61.524963%, 50.537109%)" stop-opacity="1"/>
<stop offset="0.898438" stop-color="rgb(78.387451%, 61.087036%, 50.048828%)" stop-opacity="1"/>
<stop offset="0.902344" stop-color="rgb(78.143311%, 60.652161%, 49.563599%)" stop-opacity="1"/>
<stop offset="0.90625" stop-color="rgb(77.902222%, 60.220337%, 49.084473%)" stop-opacity="1"/>
<stop offset="0.910156" stop-color="rgb(77.658081%, 59.790039%, 48.606873%)" stop-opacity="1"/>
<stop offset="0.914062" stop-color="rgb(77.416992%, 59.359741%, 48.132324%)" stop-opacity="1"/>
<stop offset="0.917969" stop-color="rgb(77.175903%, 58.932495%, 47.662354%)" stop-opacity="1"/>
<stop offset="0.921875" stop-color="rgb(76.93634%, 58.506775%, 47.193909%)" stop-opacity="1"/>
<stop offset="0.925781" stop-color="rgb(76.696777%, 58.082581%, 46.731567%)" stop-opacity="1"/>
<stop offset="0.929688" stop-color="rgb(76.45874%, 57.659912%, 46.270752%)" stop-opacity="1"/>
<stop offset="0.933594" stop-color="rgb(76.220703%, 57.240295%, 45.812988%)" stop-opacity="1"/>
<stop offset="0.9375" stop-color="rgb(75.984192%, 56.822205%, 45.359802%)" stop-opacity="1"/>
<stop offset="0.941406" stop-color="rgb(75.747681%, 56.40564%, 44.909668%)" stop-opacity="1"/>
<stop offset="0.945312" stop-color="rgb(75.514221%, 55.990601%, 44.462585%)" stop-opacity="1"/>
<stop offset="0.949219" stop-color="rgb(75.27771%, 55.577087%, 44.018555%)" stop-opacity="1"/>
<stop offset="0.953125" stop-color="rgb(75.04425%, 55.166626%, 43.579102%)" stop-opacity="1"/>
<stop offset="0.957031" stop-color="rgb(74.810791%, 54.75769%, 43.1427%)" stop-opacity="1"/>
<stop offset="0.960938" stop-color="rgb(74.580383%, 54.351807%, 42.709351%)" stop-opacity="1"/>
<stop offset="0.964844" stop-color="rgb(74.346924%, 53.944397%, 42.279053%)" stop-opacity="1"/>
<stop offset="0.96875" stop-color="rgb(74.118042%, 53.541565%, 41.851807%)" stop-opacity="1"/>
<stop offset="0.972656" stop-color="rgb(73.887634%, 53.138733%, 41.429138%)" stop-opacity="1"/>
<stop offset="0.976562" stop-color="rgb(73.658752%, 52.738953%, 41.00647%)" stop-opacity="1"/>
<stop offset="0.980469" stop-color="rgb(73.429871%, 52.340698%, 40.589905%)" stop-opacity="1"/>
<stop offset="0.984375" stop-color="rgb(73.202515%, 51.94397%, 40.176392%)" stop-opacity="1"/>
<stop offset="0.988281" stop-color="rgb(72.975159%, 51.548767%, 39.76593%)" stop-opacity="1"/>
<stop offset="0.992188" stop-color="rgb(72.750854%, 51.15509%, 39.358521%)" stop-opacity="1"/>
<stop offset="0.996094" stop-color="rgb(72.523499%, 50.762939%, 38.952637%)" stop-opacity="1"/>
<stop offset="1" stop-color="rgb(72.412109%, 50.567627%, 38.751221%)" stop-opacity="1"/>
</radialGradient>
</defs>
<rect x="-250" y="-250" width="3000" height="3000" fill="url(#radial-pattern-0)"/>
<path fill-rule="nonzero" fill="rgb(13.729858%, 12.159729%, 12.548828%)" fill-opacity="1" d="M 2014.691406 571.421875 C 2014.039062 573.480469 2013.421875 575.671875 2012.921875 577.949219 L 2014.691406 571.421875 "/>
<path fill-rule="nonzero" fill="rgb(13.729858%, 12.159729%, 12.548828%)" fill-opacity="1" d="M 1245.300781 1876.578125 C 1245.300781 1876.578125 1249.96875 1867.238281 1251.941406 1861.460938 C 1253.910156 1855.679688 1257.601562 1846.578125 1260.058594 1843.050781 C 1262.519531 1839.53125 1264.398438 1836.078125 1268.671875 1836.410156 C 1272.929688 1836.738281 1280.308594 1851 1281.289062 1853.871094 C 1282.269531 1856.738281 1282.359375 1872.160156 1282.769531 1873.21875 C 1283.179688 1874.289062 1284.648438 1879.371094 1283.179688 1883.140625 C 1281.699219 1886.910156 1280.140625 1892.410156 1280.71875 1894.289062 C 1281.289062 1896.179688 1279 1905.199219 1279.730469 1908.558594 C 1280.46875 1911.921875 1281.449219 1918.800781 1280.550781 1926.019531 C 1279.648438 1933.230469 1276.449219 1940.691406 1276.539062 1943.320312 C 1276.621094 1945.941406 1278.421875 1955.121094 1277.191406 1959.878906 C 1277.769531 1964.761719 1278.871094 1987.378906 1277.890625 1996.359375 C 1276.898438 2005.339844 1279.359375 2016.910156 1282.679688 2022.75 C 1286 2028.578125 1290.800781 2044.691406 1286.988281 2057.851562 C 1283.179688 2071.011719 1275.671875 2089.578125 1275.800781 2093.390625 C 1275.921875 2097.199219 1281.949219 2125.730469 1284.160156 2134.460938 C 1286.371094 2143.191406 1296.210938 2164.339844 1297.320312 2169.140625 C 1298.429688 2173.941406 1301.871094 2181.808594 1307.53125 2189.679688 C 1313.179688 2197.550781 1317.039062 2201.648438 1319.25 2202.378906 C 1321.460938 2203.121094 1330.558594 2202.878906 1336.378906 2206.070312 C 1342.199219 2209.269531 1350.160156 2216.238281 1350.070312 2216.898438 C 1349.988281 2217.550781 1344.910156 2218.449219 1344.339844 2218.449219 C 1343.761719 2218.449219 1342.941406 2221.648438 1340.320312 2221.808594 C 1337.699219 2221.980469 1334.089844 2222.058594 1332.609375 2221.808594 C 1331.140625 2221.570312 1323.511719 2221.980469 1321.378906 2221.488281 C 1319.25 2220.988281 1318.351562 2220.089844 1317.039062 2220.339844 C 1315.71875 2220.578125 1310.890625 2220.828125 1309.160156 2219.191406 C 1307.441406 2217.550781 1305.480469 2209.601562 1303.179688 2208.289062 C 1300.878906 2206.980469 1299.820312 2205.578125 1298.671875 2202.628906 C 1297.519531 2199.679688 1293.511719 2198.371094 1291.699219 2195.828125 C 1289.898438 2193.28125 1286.289062 2197.058594 1284.078125 2196.398438 C 1281.859375 2195.738281 1282.601562 2190.910156 1281.859375 2187.050781 C 1281.128906 2183.199219 1268.421875 2153.769531 1262.761719 2145.78125 C 1257.109375 2137.78125 1248.738281 2113.921875 1246.898438 2111.101562 C 1246.898438 2111.101562 1242.101562 2115.648438 1239.890625 2118.351562 C 1237.679688 2121.058594 1232.261719 2122.53125 1231.53125 2122.53125 C 1230.789062 2122.53125 1232.878906 2147.25 1234.851562 2155.738281 C 1236.808594 2164.21875 1238.539062 2185.621094 1243.820312 2193 C 1249.109375 2200.378906 1257.351562 2209.601562 1261.410156 2212.058594 C 1265.46875 2214.519531 1274.199219 2218.949219 1275.429688 2220.910156 C 1276.660156 2222.878906 1280.589844 2224.71875 1278.128906 2225.460938 C 1275.671875 2226.199219 1273.710938 2225.710938 1273.710938 2226.320312 C 1273.710938 2226.941406 1268.539062 2228.050781 1264.238281 2228.410156 C 1259.929688 2228.78125 1259.199219 2228.050781 1256.980469 2228.410156 C 1254.769531 2228.78125 1245.550781 2229.238281 1242.46875 2228.519531 C 1239.398438 2227.800781 1236.449219 2227.679688 1235.21875 2225.949219 C 1233.988281 2224.230469 1230.539062 2211.570312 1228.941406 2208.980469 C 1227.351562 2206.398438 1223.160156 2197.300781 1221.199219 2196.929688 C 1219.539062 2197.550781 1217.878906 2197.179688 1217.378906 2196.5 C 1216.890625 2195.828125 1213.820312 2185.371094 1212.828125 2175.660156 C 1211.851562 2165.941406 1206.929688 2137.78125 1205.210938 2136.800781 C 1203.488281 2135.808594 1187.871094 2144.671875 1184.058594 2143.558594 C 1184.800781 2151.308594 1184.550781 2167.050781 1181.230469 2172.460938 C 1177.910156 2177.871094 1167.949219 2191.519531 1156.269531 2196.691406 C 1151.839844 2198.289062 1155.691406 2198.289062 1156.269531 2198.53125 C 1156.839844 2198.78125 1161.191406 2200.421875 1163.398438 2203.289062 C 1165.609375 2206.160156 1172.421875 2207.800781 1175.371094 2208.371094 C 1178.320312 2208.941406 1184.878906 2214.929688 1186.351562 2217.46875 C 1187.828125 2220.011719 1188.980469 2223.210938 1186.929688 2223.949219 C 1184.878906 2224.679688 1183.070312 2226.410156 1178.570312 2226.820312 C 1174.058594 2227.230469 1168.890625 2227.140625 1164.460938 2226.820312 C 1160.039062 2226.488281 1155.691406 2225.421875 1150.941406 2225.75 C 1146.179688 2226.078125 1132.898438 2227.140625 1126.828125 2227.46875 C 1120.769531 2227.800781 1109.78125 2228.371094 1102.570312 2227.960938 C 1095.351562 2227.550781 1092.730469 2228.460938 1089.609375 2226.648438 C 1086.5 2224.851562 1084.039062 2224.441406 1080.679688 2223.949219 C 1077.320312 2223.449219 1071.738281 2220.171875 1067.808594 2215.75 C 1063.871094 2211.320312 1055.839844 2220.5 1046.160156 2222.960938 C 1036.488281 2225.421875 1021.730469 2222.140625 1013.859375 2216.078125 C 1005.988281 2210.011719 1007.140625 2193.121094 1014.679688 2186.730469 C 1022.21875 2180.328125 1030.910156 2177.21875 1037.960938 2179.179688 C 1045.019531 2181.148438 1050.921875 2189.019531 1051.570312 2189.511719 C 1052.230469 2190 1055.351562 2184.921875 1056 2180.988281 C 1056.660156 2177.050781 1057.308594 2142.449219 1068.460938 2126.21875 C 1079.609375 2109.988281 1104.25 2067.558594 1113.230469 2058.589844 C 1122.199219 2049.609375 1148.308594 2022.761719 1155.359375 2017.351562 C 1162.421875 2011.941406 1178.519531 1997.839844 1183.691406 1991.441406 C 1188.851562 1985.050781 1188.488281 1978.28125 1192.910156 1974.230469 C 1197.339844 1970.171875 1204.230469 1967.828125 1205.460938 1964.261719 C 1206.691406 1960.699219 1204.101562 1944.21875 1202.871094 1937.460938 C 1201.640625 1930.691406 1201.28125 1923.558594 1195.988281 1919.988281 C 1190.699219 1916.429688 1191.359375 1916.671875 1189.140625 1914.210938 C 1186.929688 1911.75 1181.679688 1908.308594 1179.878906 1904.210938 C 1178.070312 1900.109375 1168.558594 1891.339844 1167.738281 1882.898438 C 1166.921875 1874.449219 1168.238281 1868.628906 1170.289062 1866.910156 C 1172.339844 1865.191406 1179.878906 1867.980469 1182.421875 1869.449219 C 1184.960938 1870.929688 1192.089844 1873.21875 1196.191406 1876.339844 C 1200.289062 1879.449219 1212.828125 1887.238281 1213.980469 1887.238281 C 1215.128906 1887.238281 1216.519531 1884.949219 1222.261719 1884.539062 C 1228 1884.128906 1229.480469 1884.699219 1233.171875 1882.980469 C 1236.859375 1881.261719 1237.839844 1878.550781 1240.21875 1878.308594 C 1242.589844 1878.058594 1244.230469 1877.730469 1245.300781 1876.578125 "/>
<path fill-rule="nonzero" fill="rgb(6.30188%, 5.761719%, 5.056763%)" fill-opacity="1" d="M 1935.730469 2092.410156 C 1935.730469 2092.410156 1925.230469 2044.910156 1952.230469 2011.910156 C 1979.230469 1978.910156 1982.230469 1959.410156 1992.730469 1941.410156 C 2003.230469 1923.410156 2025.230469 1909.410156 2056.230469 1932.410156 C 2087.230469 1955.410156 2090.230469 1965.410156 2121.230469 1974.910156 C 2152.230469 1984.410156 2190.230469 2006.410156 2186.230469 2063.410156 C 2182.230469 2120.410156 2141.230469 2122.410156 2123.730469 2139.910156 C 2106.230469 2157.410156 2078.730469 2166.410156 2032.230469 2159.910156 C 1985.730469 2153.410156 1953.730469 2143.910156 1935.730469 2092.410156 "/>
<path fill-rule="nonzero" fill="rgb(6.30188%, 5.761719%, 5.056763%)" fill-opacity="1" d="M 2151.730469 1966.410156 C 2151.730469 1966.410156 2134.390625 1948.078125 2144.058594 1903.410156 C 2153.730469 1858.75 2185.390625 1877.75 2196.730469 1894.078125 C 2208.058594 1910.410156 2218.058594 1934.410156 2202.390625 1959.078125 C 2186.730469 1983.75 2155.46875 1972.058594 2151.730469 1966.410156 "/>
<path fill-rule="nonzero" fill="rgb(6.30188%, 5.761719%, 5.056763%)" fill-opacity="1" d="M 2044.058594 1897.75 C 2044.058594 1897.75 2022.390625 1880.75 2022.390625 1837.410156 C 2022.390625 1794.078125 2034.058594 1785.75 2063.058594 1793.078125 C 2092.058594 1800.410156 2116.058594 1843.410156 2111.730469 1872.75 C 2107.390625 1902.078125 2070.890625 1918.578125 2044.058594 1897.75 "/>
<path fill-rule="nonzero" fill="rgb(6.30188%, 5.761719%, 5.056763%)" fill-opacity="1" d="M 1928.230469 1917.410156 C 1928.230469 1917.410156 1915.390625 1903.71875 1919.058594 1875.730469 C 1922.730469 1847.75 1929.058594 1818.078125 1946.058594 1813.75 C 1963.058594 1809.410156 1975.058594 1838.75 1982.058594 1856.75 C 1989.058594 1874.75 1993.730469 1896.410156 1979.390625 1915.75 C 1965.058594 1935.078125 1938.730469 1928.078125 1928.230469 1917.410156 "/>
<path fill-rule="nonzero" fill="rgb(6.30188%, 5.761719%, 5.056763%)" fill-opacity="1" d="M 1875.058594 2029.410156 C 1875.058594 2029.410156 1854.058594 2012.75 1862.390625 1968.410156 C 1870.730469 1924.078125 1900.730469 1930.410156 1909.730469 1942.078125 C 1918.730469 1953.75 1928.058594 1978.75 1935.058594 1995.75 C 1942.058594 2012.75 1923.730469 2030.410156 1912.058594 2036.410156 C 1900.390625 2042.410156 1880.230469 2035.421875 1875.058594 2029.410156 "/>
<path fill-rule="nonzero" fill="rgb(6.30188%, 5.761719%, 5.056763%)" fill-opacity="1" d="M 2244.820312 2028.039062 C 2244.820312 2028.039062 2242.808594 2018.929688 2247.980469 2012.609375 C 2253.160156 2006.28125 2253.730469 2002.550781 2255.75 1999.101562 C 2257.761719 1995.648438 2261.980469 1992.960938 2267.921875 1997.371094 C 2273.859375 2001.78125 2274.429688 2003.699219 2280.378906 2005.519531 C 2286.320312 2007.339844 2293.601562 2011.550781 2292.828125 2022.480469 C 2292.070312 2033.410156 2284.210938 2033.789062 2280.859375 2037.140625 C 2277.5 2040.5 2272.230469 2042.21875 2263.320312 2040.980469 C 2254.398438 2039.730469 2248.269531 2037.910156 2244.820312 2028.039062 "/>
<path fill-rule="nonzero" fill="rgb(6.30188%, 5.761719%, 5.056763%)" fill-opacity="1" d="M 2286.21875 2003.890625 C 2286.21875 2003.890625 2282.898438 2000.371094 2284.75 1991.808594 C 2286.609375 1983.25 2292.679688 1986.890625 2294.851562 1990.019531 C 2297.019531 1993.148438 2298.941406 1997.75 2295.929688 2002.480469 C 2292.929688 2007.210938 2286.941406 2004.96875 2286.21875 2003.890625 "/>
<path fill-rule="nonzero" fill="rgb(6.30188%, 5.761719%, 5.056763%)" fill-opacity="1" d="M 2265.578125 1990.730469 C 2265.578125 1990.730469 2261.429688 1987.46875 2261.429688 1979.160156 C 2261.429688 1970.859375 2263.671875 1969.261719 2269.230469 1970.660156 C 2274.789062 1972.070312 2279.390625 1980.308594 2278.550781 1985.929688 C 2277.71875 1991.558594 2270.730469 1994.71875 2265.578125 1990.730469 "/>
<path fill-rule="nonzero" fill="rgb(6.30188%, 5.761719%, 5.056763%)" fill-opacity="1" d="M 2243.378906 1994.5 C 2243.378906 1994.5 2240.921875 1991.871094 2241.628906 1986.511719 C 2242.328125 1981.140625 2243.539062 1975.460938 2246.800781 1974.628906 C 2250.058594 1973.789062 2252.359375 1979.421875 2253.699219 1982.871094 C 2255.039062 1986.320312 2255.941406 1990.46875 2253.191406 1994.179688 C 2250.441406 1997.878906 2245.398438 1996.539062 2243.378906 1994.5 "/>
<path fill-rule="nonzero" fill="rgb(6.30188%, 5.761719%, 5.056763%)" fill-opacity="1" d="M 2233.191406 2015.960938 C 2233.191406 2015.960938 2229.171875 2012.769531 2230.761719 2004.269531 C 2232.359375 1995.769531 2238.109375 1996.988281 2239.839844 1999.21875 C 2241.558594 2001.460938 2243.351562 2006.25 2244.691406 2009.511719 C 2246.03125 2012.769531 2242.519531 2016.160156 2240.28125 2017.308594 C 2238.050781 2018.460938 2234.179688 2017.109375 2233.191406 2015.960938 "/>
<path fill-rule="nonzero" fill="rgb(6.30188%, 5.761719%, 5.056763%)" fill-opacity="1" d="M 1841.320312 2148.679688 C 1841.320312 2148.679688 1839.308594 2139.578125 1844.488281 2133.25 C 1849.660156 2126.929688 1850.238281 2123.191406 1852.25 2119.738281 C 1854.261719 2116.289062 1858.480469 2113.609375 1864.421875 2118.011719 C 1870.359375 2122.421875 1870.941406 2124.339844 1876.878906 2126.160156 C 1882.820312 2127.980469 1890.101562 2132.199219 1889.339844 2143.121094 C 1888.570312 2154.050781 1880.710938 2154.429688 1877.359375 2157.789062 C 1874 2161.140625 1868.730469 2162.871094 1859.820312 2161.621094 C 1850.910156 2160.378906 1844.769531 2158.550781 1841.320312 2148.679688 "/>
<path fill-rule="nonzero" fill="rgb(6.30188%, 5.761719%, 5.056763%)" fill-opacity="1" d="M 1882.71875 2124.53125 C 1882.71875 2124.53125 1879.398438 2121.019531 1881.261719 2112.460938 C 1883.109375 2103.890625 1889.179688 2107.539062 1891.351562 2110.671875 C 1893.519531 2113.800781 1895.441406 2118.398438 1892.441406 2123.128906 C 1889.429688 2127.851562 1883.441406 2125.609375 1882.71875 2124.53125 "/>
<path fill-rule="nonzero" fill="rgb(6.30188%, 5.761719%, 5.056763%)" fill-opacity="1" d="M 1862.089844 2111.371094 C 1862.089844 2111.371094 1857.929688 2108.109375 1857.929688 2099.808594 C 1857.929688 2091.5 1860.171875 2089.898438 1865.730469 2091.308594 C 1871.289062 2092.710938 1875.890625 2100.960938 1875.058594 2106.578125 C 1874.230469 2112.199219 1867.230469 2115.359375 1862.089844 2111.371094 "/>
<path fill-rule="nonzero" fill="rgb(6.30188%, 5.761719%, 5.056763%)" fill-opacity="1" d="M 1839.890625 2115.140625 C 1839.890625 2115.140625 1837.429688 2112.511719 1838.128906 2107.148438 C 1838.828125 2101.789062 1840.039062 2096.101562 1843.300781 2095.269531 C 1846.558594 2094.441406 1848.859375 2100.058594 1850.199219 2103.511719 C 1851.550781 2106.960938 1852.441406 2111.109375 1849.691406 2114.820312 C 1846.949219 2118.53125 1841.898438 2117.179688 1839.890625 2115.140625 "/>
<path fill-rule="nonzero" fill="rgb(6.30188%, 5.761719%, 5.056763%)" fill-opacity="1" d="M 1829.691406 2136.609375 C 1829.691406 2136.609375 1825.671875 2133.410156 1827.269531 2124.921875 C 1828.859375 2116.421875 1834.609375 2117.628906 1836.339844 2119.871094 C 1838.058594 2122.101562 1839.851562 2126.898438 1841.191406 2130.148438 C 1842.539062 2133.410156 1839.019531 2136.800781 1836.789062 2137.949219 C 1834.550781 2139.101562 1830.679688 2137.761719 1829.691406 2136.609375 "/>
<path fill-rule="nonzero" fill="rgb(6.30188%, 5.761719%, 5.056763%)" fill-opacity="1" d="M 2100.320312 2261.238281 C 2100.320312 2261.238281 2098.308594 2252.128906 2103.488281 2245.808594 C 2108.660156 2239.480469 2109.238281 2235.738281 2111.25 2232.289062 C 2113.261719 2228.839844 2117.480469 2226.160156 2123.421875 2230.570312 C 2129.359375 2234.980469 2129.941406 2236.890625 2135.878906 2238.71875 C 2141.820312 2240.539062 2149.109375 2244.75 2148.339844 2255.679688 C 2147.570312 2266.601562 2139.710938 2266.988281 2136.359375 2270.339844 C 2133.011719 2273.699219 2127.730469 2275.421875 2118.820312 2274.179688 C 2109.910156 2272.929688 2103.769531 2271.109375 2100.320312 2261.238281 "/>
<path fill-rule="nonzero" fill="rgb(6.30188%, 5.761719%, 5.056763%)" fill-opacity="1" d="M 2141.730469 2237.089844 C 2141.730469 2237.089844 2138.398438 2233.570312 2140.261719 2225.011719 C 2142.109375 2216.449219 2148.179688 2220.089844 2150.351562 2223.21875 C 2152.519531 2226.351562 2154.441406 2230.949219 2151.441406 2235.679688 C 2148.441406 2240.410156 2142.441406 2238.171875 2141.730469 2237.089844 "/>
<path fill-rule="nonzero" fill="rgb(6.30188%, 5.761719%, 5.056763%)" fill-opacity="1" d="M 2121.089844 2223.921875 C 2121.089844 2223.921875 2116.941406 2220.671875 2116.941406 2212.359375 C 2116.941406 2204.050781 2119.171875 2202.460938 2124.730469 2203.859375 C 2130.289062 2205.269531 2134.890625 2213.511719 2134.058594 2219.128906 C 2133.230469 2224.761719 2126.230469 2227.921875 2121.089844 2223.921875 "/>
<path fill-rule="nonzero" fill="rgb(6.30188%, 5.761719%, 5.056763%)" fill-opacity="1" d="M 2098.890625 2227.691406 C 2098.890625 2227.691406 2096.429688 2225.070312 2097.128906 2219.699219 C 2097.828125 2214.339844 2099.050781 2208.648438 2102.300781 2207.820312 C 2105.558594 2206.988281 2107.859375 2212.621094 2109.210938 2216.070312 C 2110.550781 2219.519531 2111.441406 2223.671875 2108.691406 2227.371094 C 2105.949219 2231.078125 2100.898438 2229.738281 2098.890625 2227.691406 "/>
<path fill-rule="nonzero" fill="rgb(6.30188%, 5.761719%, 5.056763%)" fill-opacity="1" d="M 2088.699219 2249.160156 C 2088.699219 2249.160156 2084.671875 2245.96875 2086.269531 2237.46875 C 2087.871094 2228.96875 2093.621094 2230.191406 2095.339844 2232.421875 C 2097.070312 2234.660156 2098.851562 2239.449219 2100.199219 2242.710938 C 2101.539062 2245.96875 2098.019531 2249.351562 2095.789062 2250.5 C 2093.550781 2251.648438 2089.691406 2250.308594 2088.699219 2249.160156 "/>
<path fill-rule="nonzero" fill="rgb(6.459045%, 5.915833%, 5.220032%)" fill-opacity="1" d="M 2061.828125 2223.988281 L 1905.128906 2166.769531 C 1902.539062 2165.820312 1899.660156 2167.160156 1898.71875 2169.75 C 1897.769531 2172.351562 1899.101562 2175.21875 1901.699219 2176.160156 L 2058.398438 2233.390625 C 2058.96875 2233.589844 2059.550781 2233.691406 2060.121094 2233.691406 C 2062.160156 2233.691406 2064.070312 2232.429688 2064.808594 2230.398438 C 2065.761719 2227.808594 2064.429688 2224.941406 2061.828125 2223.988281 "/>
<path fill-rule="nonzero" fill="rgb(6.459045%, 5.915833%, 5.220032%)" fill-opacity="1" d="M 2255.910156 2065.5 C 2253.539062 2064.078125 2250.46875 2064.851562 2249.050781 2067.21875 L 2163.320312 2210.339844 C 2161.898438 2212.710938 2162.671875 2215.78125 2165.039062 2217.199219 C 2165.851562 2217.679688 2166.730469 2217.910156 2167.609375 2217.910156 C 2169.308594 2217.910156 2170.96875 2217.039062 2171.898438 2215.480469 L 2257.628906 2072.359375 C 2259.050781 2069.988281 2258.28125 2066.921875 2255.910156 2065.5 "/>
<path fill-rule="nonzero" fill="rgb(6.459045%, 5.915833%, 5.220032%)" fill-opacity="1" d="M 460.042969 2200.460938 C 460.042969 2200.460938 457.90625 2200.398438 458.949219 2205.089844 C 459.988281 2209.78125 453.425781 2208.421875 452.90625 2213.058594 C 452.386719 2217.699219 450.699219 2221.429688 452.4375 2226.359375 C 454.171875 2231.289062 442.4375 2227.328125 441.257812 2229 C 440.074219 2230.660156 435.839844 2235.460938 430.074219 2233.230469 C 430.074219 2233.230469 430.015625 2240.460938 428.269531 2242.511719 C 426.523438 2244.570312 418.945312 2244.621094 418.945312 2244.621094 C 418.945312 2244.621094 412.800781 2246.601562 405.402344 2245.511719 C 398.007812 2244.421875 391.886719 2244.359375 389.804688 2242.570312 C 387.722656 2240.769531 391.289062 2227.570312 391.289062 2227.570312 L 383.164062 2227.898438 C 383.164062 2227.898438 385.613281 2234.78125 376.859375 2234.679688 C 368.109375 2234.570312 364.515625 2235.53125 360.765625 2233.71875 C 357.015625 2231.910156 354.203125 2234.03125 351.460938 2232.089844 C 348.71875 2230.140625 349.238281 2228.160156 344.898438 2228.058594 C 340.558594 2227.960938 328.402344 2229.339844 324.027344 2226.910156 C 319.652344 2224.480469 321.667969 2220.660156 316.390625 2219.96875 C 311.113281 2219.28125 304.097656 2220.179688 299.445312 2218.859375 C 294.792969 2217.539062 298.890625 2216.78125 287.359375 2217.75 C 275.832031 2218.71875 254.199219 2218.480469 244.929688 2218.480469 C 235.65625 2218.480469 219.042969 2220.300781 211.542969 2219.828125 C 204.042969 2219.359375 203.3125 2217.539062 202.636719 2213.949219 C 201.957031 2210.351562 203.574219 2199.410156 224.25 2198.421875 C 244.929688 2197.429688 250.347656 2196.601562 262.847656 2197.488281 C 275.347656 2198.371094 310.6875 2196.859375 317.484375 2198.421875 C 317.484375 2198.421875 316.667969 2193.789062 318.960938 2190.519531 L 316.183594 2189.761719 L 319.652344 2183.441406 L 315.347656 2182.398438 L 318.542969 2179.269531 L 316.527344 2177.398438 L 316.390625 2164.898438 C 316.390625 2164.898438 322.640625 2156.359375 322.710938 2152.808594 C 322.777344 2149.269531 322.222656 2135.378906 324.863281 2133.578125 C 324.863281 2133.578125 328.960938 2121.421875 335.347656 2117.878906 C 341.738281 2114.339844 347.535156 2112.011719 347.535156 2112.011719 C 347.535156 2112.011719 354.621094 2083.839844 356.703125 2081.339844 C 356.703125 2081.339844 357.171875 2059.25 360.765625 2052.480469 C 364.359375 2045.710938 373.996094 2023.050781 374.515625 2017.53125 C 375.039062 2012.011719 373.371094 1997.320312 377.226562 1986.28125 C 381.078125 1975.238281 387.019531 1973.050781 382.953125 1967.21875 C 378.894531 1961.378906 373.371094 1950.550781 374.414062 1942.941406 C 375.453125 1935.339844 378.371094 1925.648438 378.269531 1917.320312 C 378.164062 1908.980469 376.738281 1892.53125 369.65625 1886.691406 C 368.265625 1885.578125 368.40625 1882.109375 369.449219 1878.738281 C 370.488281 1875.371094 372.070312 1865.75 371.808594 1861.378906 C 371.550781 1857 375.316406 1843.808594 375.421875 1840.679688 C 375.523438 1837.558594 378.511719 1823.5 382.644531 1822 C 386.773438 1820.511719 398.632812 1827.210938 407.539062 1850.128906 C 412.921875 1866.308594 413.128906 1871 413.128906 1871 C 413.128906 1871 418.320312 1871.121094 420.5625 1872.46875 C 422.800781 1873.828125 426.96875 1871.480469 429.101562 1871.21875 C 431.238281 1870.960938 432.382812 1870.550781 432.382812 1870.550781 C 432.382812 1870.550781 432.019531 1865.441406 434.101562 1858.980469 C 436.1875 1852.519531 443.113281 1838.039062 446.96875 1832.109375 C 450.824219 1826.171875 460.613281 1812.371094 465.769531 1823.929688 C 470.929688 1835.488281 471.605469 1841.691406 473.585938 1849.191406 C 475.5625 1856.691406 475.511719 1866.738281 475.511719 1866.738281 C 475.511719 1866.738281 477.648438 1869.609375 477.367188 1871.730469 C 477.089844 1873.839844 476.953125 1875.578125 477.679688 1876.589844 C 478.410156 1877.589844 479.835938 1885.550781 477.679688 1887.320312 C 475.527344 1889.089844 470.945312 1890.820312 471.292969 1897.800781 C 471.640625 1904.78125 470.460938 1912.53125 472.074219 1916.691406 C 473.6875 1920.859375 477.023438 1946.828125 476.257812 1948.011719 C 475.492188 1949.191406 471.8125 1947.808594 471.953125 1952.179688 C 472.089844 1956.558594 470.632812 1958.21875 472.507812 1961.488281 C 474.382812 1964.75 480.460938 1966.070312 490.980469 1992.320312 L 485.773438 1990.859375 C 485.773438 1990.859375 490.460938 2011.800781 487.4375 2018.160156 C 484.417969 2024.511719 490.5625 2035.449219 489.835938 2041.910156 C 489.105469 2048.371094 488.480469 2060.96875 483.0625 2069.101562 C 477.648438 2077.21875 481.605469 2090.140625 480.148438 2113.988281 C 478.6875 2137.851562 479.835938 2160.449219 481.917969 2165.660156 C 484 2170.871094 479.625 2178.578125 484.210938 2188.679688 C 488.792969 2198.789062 483.6875 2213.371094 494.523438 2220.351562 C 498.429688 2222.699219 501.398438 2220.398438 505.253906 2227.230469 C 509.105469 2234.050781 511.191406 2239.308594 511.191406 2239.308594 C 511.191406 2239.308594 507.855469 2240.769531 507.648438 2243.269531 C 507.648438 2243.269531 497.648438 2245.300781 492.074219 2244.621094 C 486.5 2243.949219 485.40625 2244.101562 478.585938 2244.148438 C 471.761719 2244.210938 470.460938 2240.71875 469.988281 2238.738281 C 469.519531 2236.761719 466.605469 2238.429688 467.019531 2233.371094 C 467.4375 2228.320312 468.113281 2230.398438 465.667969 2226.859375 C 463.21875 2223.320312 462.332031 2218.578125 462.386719 2215.460938 C 462.4375 2212.328125 464.050781 2204.730469 460.042969 2200.460938 "/>
<path fill-rule="nonzero" fill="rgb(6.30188%, 5.761719%, 5.056763%)" fill-opacity="1" d="M 1305.589844 1392.289062 C 1305.589844 1392.289062 1280.109375 1355.871094 1293.550781 1319.980469 C 1306.988281 1284.089844 1303.160156 1266.878906 1306.660156 1248.609375 C 1310.148438 1230.339844 1325.429688 1211.859375 1361.300781 1221.5 C 1397.171875 1231.128906 1403.25 1238.558594 1434.589844 1236.921875 C 1465.929688 1235.28125 1507.820312 1241.921875 1523.320312 1290.75 C 1538.820312 1339.578125 1502.269531 1353.910156 1492.25 1373.921875 C 1482.230469 1393.941406 1460.28125 1409.941406 1415.871094 1418.871094 C 1371.46875 1427.789062 1339.21875 1429.738281 1305.589844 1392.289062 "/>
<path fill-rule="nonzero" fill="rgb(6.30188%, 5.761719%, 5.056763%)" fill-opacity="1" d="M 1459.429688 1220.410156 C 1459.429688 1220.410156 1437.539062 1210.449219 1431.320312 1170.171875 C 1425.109375 1129.890625 1460.238281 1135.980469 1476.019531 1146.121094 C 1491.789062 1156.261719 1508.929688 1173.210938 1502.980469 1198.640625 C 1497.03125 1224.078125 1464.730469 1223.96875 1459.429688 1220.410156 "/>
<path fill-rule="nonzero" fill="rgb(6.30188%, 5.761719%, 5.056763%)" fill-opacity="1" d="M 1338.609375 1196.300781 C 1338.609375 1196.300781 1313.230469 1188.800781 1298.691406 1152.609375 C 1284.140625 1116.429688 1291.941406 1105.871094 1320.730469 1103.039062 C 1349.53125 1100.210938 1385.761719 1128.710938 1391.671875 1154.539062 C 1397.578125 1180.371094 1369.96875 1205.421875 1338.609375 1196.300781 "/>
<path fill-rule="nonzero" fill="rgb(6.30188%, 5.761719%, 5.056763%)" fill-opacity="1" d="M 1240.03125 1248.480469 C 1240.03125 1248.480469 1223.78125 1241 1217.710938 1216.511719 C 1211.648438 1192.011719 1207.441406 1165.28125 1221.429688 1156.410156 C 1235.410156 1147.550781 1256.148438 1168.339844 1268.550781 1181.210938 C 1280.949219 1194.078125 1292.460938 1210.730469 1285.929688 1231.289062 C 1279.410156 1251.859375 1253.148438 1254.148438 1240.03125 1248.480469 "/>
<path fill-rule="nonzero" fill="rgb(6.30188%, 5.761719%, 5.056763%)" fill-opacity="1" d="M 1229.351562 1358.410156 C 1229.351562 1358.410156 1204.679688 1350.980469 1197.371094 1311.390625 C 1190.050781 1271.800781 1219.421875 1267.820312 1231.511719 1274.789062 C 1243.601562 1281.75 1260.46875 1299.738281 1272.53125 1311.78125 C 1284.589844 1323.808594 1273.878906 1344.21875 1265.300781 1352.839844 C 1256.71875 1361.449219 1236.050781 1361.828125 1229.351562 1358.410156 "/>
<path fill-rule="nonzero" fill="rgb(6.459045%, 5.915833%, 5.220032%)" fill-opacity="1" d="M 1499.808594 1148.398438 C 1498.300781 1116.851562 1489.488281 1087.601562 1474.320312 1063.800781 C 1451.179688 1027.5 1413.46875 1003.480469 1365.269531 994.339844 C 1352.148438 991.851562 1339.058594 990.578125 1326.371094 990.578125 C 1261.941406 990.578125 1218.328125 1021.859375 1193.449219 1047.421875 C 1147.589844 1001.171875 1098.710938 990.480469 1063.371094 990.480469 C 1021.410156 990.480469 977.117188 1005.980469 941.859375 1033.011719 C 910.839844 1056.78125 892.40625 1094.210938 888.550781 1141.28125 C 885.464844 1179.089844 892.65625 1220.359375 907.800781 1251.699219 C 929.589844 1296.789062 972.566406 1342.921875 1035.511719 1388.800781 C 1073.859375 1416.738281 1173.171875 1501.410156 1174.171875 1502.269531 C 1179.839844 1507.101562 1187.050781 1509.519531 1194.261719 1509.519531 C 1201.550781 1509.519531 1208.828125 1507.050781 1214.519531 1502.121094 C 1215.070312 1501.640625 1266.449219 1457.121094 1319.5 1414.351562 C 1312.800781 1409.519531 1306.339844 1403.609375 1299.988281 1396.550781 L 1299.710938 1396.230469 L 1299.480469 1395.898438 C 1298.890625 1395.070312 1291.46875 1384.28125 1286.601562 1368.660156 C 1251.078125 1397.140625 1215.53125 1427.109375 1194.140625 1445.328125 C 1162.410156 1418.53125 1101.710938 1367.75 1072.210938 1346.25 C 1017.589844 1306.441406 979.390625 1266.109375 961.761719 1229.640625 C 940.96875 1186.609375 937.714844 1106.859375 979.664062 1074.730469 C 1004.488281 1055.699219 1035 1044.789062 1063.371094 1044.789062 C 1103.519531 1044.789062 1139.308594 1065.910156 1169.75 1107.589844 C 1175.558594 1115.539062 1185.511719 1120.089844 1195.921875 1119.550781 C 1206.328125 1119.019531 1215.660156 1113.460938 1220.46875 1104.949219 C 1220.539062 1104.808594 1229.441406 1089.761719 1246.71875 1074.949219 C 1269.988281 1055 1296.789062 1044.890625 1326.371094 1044.890625 C 1335.058594 1044.890625 1344.140625 1045.78125 1353.339844 1047.519531 C 1385.160156 1053.558594 1408.71875 1068.269531 1423.371094 1091.261719 C 1431.128906 1103.441406 1436.371094 1118.191406 1438.980469 1134.238281 C 1442.648438 1132.710938 1446.871094 1131.921875 1451.480469 1131.921875 C 1462.640625 1131.921875 1473.609375 1136.429688 1480.179688 1140.648438 C 1488.410156 1145.941406 1495.050781 1151.71875 1500.050781 1157.929688 C 1500.050781 1154.738281 1499.960938 1151.558594 1499.808594 1148.398438 "/>
<path fill-rule="nonzero" fill="rgb(13.729858%, 12.159729%, 12.548828%)" fill-opacity="1" d="M 2086.648438 1131.761719 C 2086.648438 1131.761719 2106.839844 1118.640625 2118.28125 1111.308594 C 2129.730469 1103.980469 2141.039062 1095.238281 2150.300781 1094.980469 C 2159.558594 1094.71875 2164.320312 1098.710938 2165.339844 1111.050781 C 2166.371094 1123.398438 2166.5 1139.078125 2158.398438 1155.160156 C 2150.300781 1171.230469 2147.339844 1182.929688 2141.300781 1190.261719 C 2135.25 1197.589844 2132.429688 1198.878906 2131.910156 1198.878906 C 2131.398438 1198.878906 2132.429688 1213.148438 2129.730469 1218.300781 C 2129.730469 1218.300781 2149.828125 1226.140625 2163.371094 1235.910156 C 2176.921875 1245.679688 2187.550781 1241.738281 2206.058594 1251 C 2224.578125 1260.261719 2243.949219 1271.738281 2247.558594 1285.460938 C 2251.160156 1299.179688 2259.210938 1322.320312 2243.78125 1336.210938 C 2228.351562 1350.101562 2211.890625 1357.808594 2203.921875 1362.960938 C 2195.949219 1368.101562 2185.148438 1368.101562 2180.78125 1371.699219 C 2176.398438 1375.300781 2171.261719 1386.359375 2159.941406 1390.46875 C 2148.628906 1394.589844 2148.109375 1395.359375 2141.171875 1393.558594 C 2134.230469 1391.761719 2133.96875 1394.070312 2129.601562 1388.929688 C 2125.230469 1383.789062 2121.109375 1378.640625 2120.339844 1372.210938 C 2119.570312 1365.789062 2115.96875 1382.761719 2119.570312 1386.871094 C 2123.171875 1390.988281 2120.210938 1398.699219 2124.320312 1400.378906 C 2128.441406 1402.050781 2133.199219 1401.28125 2131.78125 1405.128906 C 2130.371094 1408.988281 2132.039062 1414.910156 2125.480469 1415.929688 C 2118.921875 1416.960938 2120.46875 1419.789062 2112.238281 1421.460938 C 2104.011719 1423.140625 2099.761719 1425.839844 2096.039062 1422.488281 C 2092.308594 1419.148438 2090.25 1420.949219 2084.589844 1416.578125 C 2078.929688 1412.210938 2073.019531 1406.160156 2072.761719 1398.578125 C 2072.5 1390.988281 2066.460938 1383.398438 2065.691406 1377.101562 C 2064.921875 1370.800781 2063.628906 1355.761719 2060.671875 1353.960938 C 2057.71875 1352.160156 2048.839844 1365.140625 2037.789062 1365.398438 C 2026.730469 1365.660156 2024.929688 1366.171875 2016.699219 1360.378906 C 2008.46875 1354.601562 2000.238281 1345.980469 1998.570312 1344.699219 C 1996.890625 1343.410156 1990.460938 1353.308594 1991.371094 1355.238281 C 1992.269531 1357.171875 1995.871094 1362.960938 1994.839844 1366.300781 C 1993.808594 1369.640625 1983.011719 1375.941406 1983.519531 1381.089844 C 1984.039062 1386.230469 1988.539062 1400.121094 1986.738281 1405.78125 C 1984.941406 1411.429688 1972.03125 1417.128906 1963.800781 1415.078125 C 1955.570312 1413.019531 1955.921875 1418.851562 1945.800781 1417.480469 C 1935.691406 1416.109375 1926.941406 1407.878906 1927.96875 1402.730469 C 1929 1397.589844 1937.058594 1390.898438 1935.691406 1383.699219 C 1934.308594 1376.5 1939.628906 1363.300781 1938.261719 1353.53125 C 1936.890625 1343.75 1932.089844 1336.210938 1933.628906 1327.808594 C 1935.171875 1319.410156 1940.320312 1312.71875 1940.140625 1303.121094 C 1939.96875 1293.519531 1944.429688 1279.628906 1950.601562 1269.519531 C 1956.769531 1259.398438 1962.601562 1230.429688 1970.320312 1222.371094 C 1978.03125 1214.308594 1984.039062 1207.28125 1983.011719 1200.078125 C 1981.980469 1192.878906 1981.121094 1180.699219 1975.980469 1174.191406 C 1970.828125 1167.671875 1970.148438 1137.160156 1969.980469 1130.300781 C 1969.808594 1123.441406 1963.460938 1111.589844 1968.089844 1094.96875 C 1972.71875 1078.351562 1979.921875 1072.859375 1991.488281 1077.488281 C 2003.070312 1082.121094 2006.410156 1081.859375 2011.039062 1087.261719 C 2015.671875 1092.660156 2028.78125 1106.039062 2032.128906 1112.46875 C 2035.46875 1118.898438 2040.609375 1122.578125 2043.699219 1122.929688 C 2046.789062 1123.269531 2073.878906 1120.351562 2086.648438 1131.761719 "/>
<path fill-rule="nonzero" fill="rgb(13.729858%, 12.159729%, 12.548828%)" fill-opacity="1" d="M 384.332031 1104.230469 C 384.332031 1104.230469 414.753906 1071.679688 426.730469 1068.648438 C 438.710938 1065.621094 446.96875 1072.640625 447.792969 1089.160156 C 448.621094 1105.679688 439.121094 1111.871094 437.46875 1119.308594 C 435.816406 1126.738281 432.238281 1136.929688 434.578125 1141.328125 C 436.917969 1145.738281 423.566406 1158.960938 424.183594 1163.289062 C 424.804688 1167.628906 431.207031 1175.480469 429.96875 1187.25 C 428.726562 1199.019531 423.359375 1217.808594 433.476562 1222.351562 C 443.597656 1226.890625 470.851562 1233.710938 483.242188 1244.648438 C 495.632812 1255.601562 512.359375 1269.640625 514.839844 1292.769531 C 517.316406 1315.890625 526.402344 1341.5 521.652344 1361.53125 C 516.902344 1381.558594 506.164062 1389.199219 503.894531 1389.199219 C 501.621094 1389.199219 503.894531 1397.050781 503.066406 1407.371094 C 502.242188 1417.699219 495.015625 1423.960938 488.957031 1425.058594 C 487.476562 1427.398438 485.515625 1427.300781 484.792969 1427.199219 C 484.070312 1427.089844 481.28125 1427.390625 479.113281 1427.238281 C 476.945312 1427.089844 474.261719 1429.980469 473.125 1429.980469 C 471.988281 1429.980469 468.582031 1428.949219 467.757812 1429.980469 C 466.929688 1431.019531 466.3125 1432.261719 464.246094 1432.050781 C 462.179688 1431.839844 463.214844 1428.019531 461.148438 1425.960938 C 459.082031 1423.890625 456.191406 1411.921875 457.429688 1409.03125 C 458.671875 1406.128906 463.523438 1402.109375 464.453125 1399.628906 C 465.382812 1397.148438 461.25 1397.460938 458.464844 1394.878906 C 455.675781 1392.300781 454.539062 1386.929688 449.996094 1387.890625 C 445.453125 1388.859375 435.816406 1392.988281 433.476562 1398.628906 C 431.136719 1404.28125 424.667969 1409.230469 419.023438 1411.300781 C 413.378906 1413.359375 411.726562 1415.148438 405.804688 1414.050781 C 399.886719 1412.949219 399.472656 1415.558594 395.070312 1415.429688 C 390.664062 1415.289062 390.800781 1414.460938 387.496094 1413.21875 C 384.191406 1411.988281 382.265625 1414.050781 377.859375 1408.960938 C 373.453125 1403.859375 373.59375 1397.871094 370.289062 1399.730469 C 366.984375 1401.589844 359.550781 1418.519531 354.59375 1418.519531 C 349.640625 1418.519531 342.824219 1415.011719 339.933594 1414.191406 C 337.042969 1413.359375 332.5 1415.011719 329.816406 1417.078125 C 327.132812 1419.140625 316.804688 1419.761719 316.1875 1417.289062 C 315.566406 1414.808594 312.882812 1412.949219 306.066406 1410.46875 C 299.253906 1407.988281 297.1875 1399.941406 299.046875 1394.980469 C 300.90625 1390.03125 309.785156 1379.699219 316.1875 1375.570312 C 322.589844 1371.441406 325.890625 1367.730469 327.75 1362.359375 C 329.609375 1356.988281 329.402344 1352.648438 327.75 1347.28125 C 326.097656 1341.910156 315.152344 1339.640625 310.816406 1346.039062 C 306.480469 1352.441406 303.589844 1360.699219 305.449219 1366.488281 C 307.308594 1372.269531 295.535156 1389.410156 294.710938 1391.46875 C 293.882812 1393.539062 285.074219 1393.679688 280.53125 1390.78125 C 275.988281 1387.890625 271.859375 1387.339844 267.316406 1388.03125 C 262.773438 1388.71875 260.570312 1386.519531 256.988281 1381.839844 C 253.410156 1377.160156 249.144531 1373.988281 247.628906 1370.550781 C 246.113281 1367.109375 247.902344 1358.851562 252.996094 1353.890625 C 258.089844 1348.929688 260.707031 1339.019531 259.328125 1329.800781 C 257.953125 1320.578125 259.8125 1307.019531 264.769531 1292.96875 C 269.722656 1278.929688 265.800781 1265.101562 273.027344 1246.300781 C 280.253906 1227.511719 278.601562 1200.261719 275.710938 1185.390625 C 272.820312 1170.519531 270.757812 1157.71875 272.820312 1148.421875 C 274.886719 1139.128906 269.519531 1123.03125 266.007812 1117.859375 C 262.496094 1112.699219 252.171875 1093.289062 252.171875 1081.519531 C 252.171875 1069.75 254.855469 1067.621094 259.605469 1067.960938 C 264.355469 1068.300781 281.90625 1078.011719 292.027344 1081.519531 C 302.144531 1085.03125 310.816406 1100.929688 316.394531 1103.609375 C 321.96875 1106.300781 332.707031 1100.71875 345.507812 1103.820312 C 358.3125 1106.921875 378.753906 1091.21875 384.332031 1104.230469 "/>
<path fill-rule="nonzero" fill="rgb(6.459045%, 5.915833%, 5.220032%)" fill-opacity="1" d="M 1271.351562 723.449219 C 1271.351562 723.449219 1259.769531 729.539062 1254.621094 728.601562 C 1249.46875 727.660156 1245.820312 720.800781 1246.238281 718.808594 C 1246.238281 718.808594 1231.609375 718.390625 1230.660156 719.261719 C 1229.699219 720.140625 1214.621094 725.28125 1212.179688 737.238281 L 1210.910156 735.03125 C 1210.910156 735.03125 1212.960938 750.761719 1208.140625 752.589844 C 1203.320312 754.421875 1202.898438 753.839844 1198.410156 756.660156 C 1193.921875 759.488281 1175.808594 758.910156 1174.269531 755.421875 C 1172.730469 751.929688 1168.410156 748.050781 1171.898438 739.351562 C 1175.390625 730.648438 1177.050781 714.46875 1175.78125 709.039062 C 1174.511719 703.609375 1170.648438 698.320312 1167.828125 694.171875 C 1165 690.011719 1151.121094 670.730469 1149.960938 662 C 1148.800781 653.28125 1150.789062 630.671875 1154.78125 623.769531 C 1158.769531 616.878906 1160.140625 614.128906 1164.878906 612.640625 C 1169.621094 611.140625 1168.910156 605.328125 1168.078125 602.128906 C 1167.25 598.929688 1165.03125 575.460938 1165.96875 566.039062 C 1166.910156 556.621094 1173.621094 528.699219 1173.289062 521.5 C 1172.949219 514.300781 1180.710938 471.519531 1184.921875 469.75 C 1189.128906 467.980469 1204.308594 450.800781 1207.53125 435.730469 C 1210.738281 420.660156 1210.070312 410.359375 1213.289062 408.359375 C 1216.5 406.371094 1217.109375 400.378906 1214.78125 397.230469 C 1212.460938 394.070312 1209.21875 383.601562 1211.460938 371.960938 C 1213.699219 360.328125 1217.03125 340.21875 1220.019531 332.988281 C 1223.011719 325.761719 1228.828125 314.949219 1231.160156 310.800781 C 1233.480469 306.640625 1231.238281 300.988281 1232.859375 298 C 1234.480469 295.011719 1238.941406 285.199219 1246.25 297 C 1253.570312 308.800781 1256.839844 330.128906 1258.050781 329.691406 C 1259.269531 329.25 1259.550781 328.691406 1260.769531 322.488281 C 1261.988281 316.28125 1262.039062 312.070312 1262.429688 308.300781 C 1262.820312 304.539062 1263.429688 301.210938 1267.421875 305.199219 C 1271.410156 309.191406 1278.671875 327.308594 1278.171875 332.898438 C 1277.671875 338.5 1276.941406 346.859375 1278.191406 347.699219 C 1279.441406 348.53125 1289.871094 350.109375 1292.570312 353.308594 C 1295.269531 356.511719 1302.210938 358.789062 1309.03125 366.441406 C 1315.839844 374.078125 1313.640625 375.699219 1324.980469 377.121094 C 1336.328125 378.53125 1344.488281 375.839844 1354.070312 378.828125 C 1363.660156 381.820312 1367.589844 390.140625 1365.101562 392.789062 C 1362.601562 395.449219 1362.820312 396.621094 1361.878906 400.050781 C 1360.941406 403.488281 1355.320312 416.339844 1343.640625 418.921875 C 1331.960938 421.488281 1333.710938 417.171875 1316.921875 423.660156 C 1300.128906 430.140625 1299.800781 440.441406 1304.949219 450.828125 C 1310.109375 461.21875 1314.839844 455.070312 1319.328125 467.699219 C 1323.820312 480.328125 1319.109375 487.761719 1309.910156 487.761719 C 1300.71875 487.761719 1290.910156 481.75 1289.859375 479.449219 C 1288.800781 477.148438 1282.808594 472.109375 1282.808594 472.109375 C 1282.808594 472.109375 1281.558594 480.828125 1281.808594 483.03125 C 1282.058594 485.238281 1279.980469 486.769531 1280.898438 489.351562 C 1281.808594 491.929688 1280.691406 492.878906 1282.808594 495.578125 C 1284.929688 498.28125 1289.5 501.230469 1288.039062 503.308594 C 1286.589844 505.390625 1288.75 509.589844 1291.53125 511.871094 C 1294.320312 514.160156 1292.738281 517.441406 1293.199219 527.160156 C 1293.648438 536.890625 1296.28125 557.351562 1294.289062 560.839844 C 1292.289062 564.328125 1287.75 570.859375 1290.96875 575.410156 C 1294.179688 579.949219 1292.960938 585.160156 1292.351562 590.761719 C 1291.738281 596.351562 1294.179688 609.199219 1298.058594 615.738281 C 1301.941406 622.28125 1304.320312 636.519531 1301.050781 643.109375 C 1297.78125 649.710938 1294.648438 652.238281 1294.398438 657.179688 C 1294.148438 662.128906 1295.558594 687.101562 1297.558594 687.679688 C 1299.550781 688.269531 1304.761719 681.621094 1318 688.648438 C 1331.238281 695.691406 1342.519531 700.730469 1341.441406 707.800781 C 1341.441406 707.800781 1339.148438 707.171875 1339.148438 708.671875 C 1339.148438 710.160156 1338.070312 716.519531 1330.011719 718.230469 C 1321.949219 719.929688 1317.210938 716.308594 1317.210938 716.308594 C 1317.210938 716.308594 1314.730469 717.410156 1310.828125 715.800781 C 1306.921875 714.191406 1304.011719 712.121094 1302.628906 712.699219 C 1301.238281 713.28125 1305.621094 718.128906 1310.300781 721.589844 C 1314.980469 725.050781 1313.71875 728.878906 1316.171875 732.519531 C 1318.628906 736.160156 1324.53125 746.320312 1316.421875 747.730469 C 1308.320312 749.140625 1295.070312 750.710938 1293.289062 747.160156 C 1293.289062 747.160156 1288.078125 749.539062 1282.988281 747.710938 C 1277.890625 745.890625 1277.671875 741.730469 1275.621094 739.128906 C 1273.570312 736.519531 1271.460938 733.589844 1271.191406 729.210938 C 1270.910156 724.828125 1271.351562 723.449219 1271.351562 723.449219 "/>
<path fill-rule="nonzero" fill="rgb(6.459045%, 5.915833%, 5.220032%)" fill-opacity="1" d="M 2044.558594 634.558594 C 2044.558594 634.558594 2034.371094 649.058594 2034.03125 668.75 C 2033.679688 688.429688 2031.441406 705.351562 2026.949219 713.46875 C 2025.410156 715.519531 2023.019531 712.671875 2021.921875 722.578125 C 2020.820312 732.480469 2015.121094 742.519531 2011.949219 740.898438 C 2011.949219 740.898438 2006.511719 757.929688 1994.71875 755.789062 C 1982.941406 753.660156 1980.539062 751.199219 1980.539062 751.199219 C 1980.539062 751.199219 1971.410156 754.371094 1967.660156 747.960938 C 1963.898438 741.550781 1968.050781 737.210938 1974 737.730469 C 1979.960938 738.25 1987.789062 738.25 1991.160156 737.46875 C 1994.53125 736.691406 2001.78125 722.191406 2003.589844 711.960938 C 2005.410156 701.730469 2003.078125 669.480469 2000.359375 652.78125 C 1997.640625 636.070312 1995.820312 609.261719 1989.089844 593.980469 C 1982.359375 578.699219 1967.71875 563.25 1973.769531 539.421875 C 1979.808594 515.589844 1964.789062 507.480469 1975.488281 494.699219 C 1975.488281 494.699219 1961.941406 466.210938 1961.851562 461.378906 C 1961.851562 461.378906 1941.390625 467.589844 1944.238281 451.359375 C 1947.089844 435.128906 1953.050781 433.230469 1952.699219 430.210938 C 1952.351562 427.191406 1948.300781 427.191406 1950.019531 420.710938 C 1950.019531 420.710938 1942.210938 429.070312 1937.160156 422.011719 C 1932.109375 414.949219 1935.609375 415.269531 1930.878906 413.460938 C 1926.148438 411.648438 1924.078125 409.578125 1925.761719 407.699219 C 1925.761719 407.699219 1916.050781 403.171875 1923.820312 393.710938 C 1931.589844 384.261719 1945.511719 377.328125 1945.511719 377.328125 C 1945.511719 377.328125 1940.921875 363.988281 1950.761719 351.691406 C 1950.761719 351.691406 1947.839844 342.820312 1948.558594 338.800781 C 1949.269531 334.789062 1940.398438 307.078125 1950.238281 304.679688 C 1960.078125 302.28125 1969.46875 332.910156 1979.570312 336.46875 C 1989.671875 340.03125 1994.921875 329.480469 1995.238281 325.71875 C 1995.558594 321.96875 1999.511719 321.128906 2000.738281 315.230469 C 2001.96875 309.339844 2003.71875 301.269531 2007.609375 291.339844 C 2011.488281 281.410156 2017.96875 273.511719 2027.25 293.199219 C 2036.53125 312.878906 2041.109375 325.058594 2040.589844 338.78125 C 2040.070312 352.511719 2047.578125 357.261719 2045.511719 363.128906 C 2045.511719 363.128906 2069.679688 399.558594 2071.238281 409.660156 C 2072.789062 419.761719 2069.941406 421.921875 2073.308594 425.980469 C 2076.671875 430.039062 2084.011719 437.71875 2080.210938 438.671875 C 2076.421875 439.621094 2099.289062 446.480469 2101.300781 451.46875 C 2103.308594 456.460938 2113.148438 466.75 2121.570312 467.71875 C 2129.988281 468.691406 2147.378906 469.058594 2174.921875 479.160156 C 2186.230469 482.179688 2214.460938 490.898438 2226.550781 504.539062 C 2238.640625 518.179688 2238.378906 518.03125 2242.519531 520.820312 C 2246.671875 523.601562 2250.488281 527.03125 2254.371094 529.691406 C 2258.261719 532.339844 2279.359375 536.289062 2286.550781 532.019531 C 2293.738281 527.738281 2305.800781 518.441406 2312.539062 507.558594 C 2319.269531 496.691406 2325.921875 476.480469 2344.140625 487.710938 C 2362.351562 498.929688 2372.019531 517.320312 2336.539062 555.128906 C 2301.050781 592.949219 2255.378906 568.949219 2255.378906 568.949219 C 2255.378906 568.949219 2258.671875 626.960938 2250.199219 660.460938 C 2250.199219 660.460938 2248.308594 667.28125 2250.980469 677.210938 C 2253.660156 687.140625 2254.179688 708.289062 2253.660156 714.761719 C 2253.140625 721.238281 2261.820312 746.660156 2260.261719 750.289062 C 2258.710938 753.921875 2252.191406 752.921875 2251.839844 751.460938 C 2251.839844 751.460938 2246.921875 751.710938 2246.488281 749.808594 C 2246.058594 747.921875 2241.140625 751.539062 2239.929688 747.570312 C 2238.71875 743.601562 2235.011719 755.078125 2234.488281 747.398438 C 2233.96875 739.710938 2239.539062 725.039062 2236.050781 703.539062 C 2232.550781 682.039062 2229.050781 676.21875 2224.128906 663.660156 C 2219.210938 651.089844 2207.558594 634.519531 2203.800781 622.859375 C 2200.039062 611.210938 2196.511719 612.800781 2192.878906 626.269531 C 2189.25 639.738281 2188.910156 661.671875 2202.03125 672.550781 C 2215.148438 683.421875 2206.128906 689.941406 2204.058594 705.738281 C 2201.988281 721.539062 2197.460938 729.179688 2197.839844 735.269531 C 2198.230469 741.359375 2194.609375 753.398438 2188.910156 751.070312 C 2183.210938 748.738281 2180.230469 743.300781 2178.941406 745.109375 C 2177.640625 746.921875 2171.171875 747.050781 2170.519531 744.71875 C 2169.871094 742.390625 2165.339844 746.410156 2165.730469 739.539062 C 2166.121094 732.679688 2173.109375 731.511719 2175.570312 731.378906 C 2178.03125 731.25 2185.148438 720.511719 2186.449219 710.269531 C 2187.738281 700.039062 2184.5 680.75 2175.570312 672.71875 C 2166.628906 664.691406 2156.269531 656.269531 2154.328125 645.910156 C 2152.390625 635.550781 2141.640625 614.960938 2141.640625 614.960938 C 2141.640625 614.960938 2096.699219 633.871094 2088.929688 633.179688 C 2081.160156 632.488281 2088.070312 689.640625 2070.800781 728.148438 C 2065.238281 742.519531 2064.71875 765.179688 2061.480469 767.769531 C 2058.238281 770.359375 2046.980469 764.410156 2046.980469 764.410156 C 2046.980469 764.410156 2031.871094 769.339844 2029.449219 768.421875 C 2027.03125 767.511719 2027.03125 766.21875 2023.839844 767.859375 C 2020.640625 769.5 2012.789062 769.761719 2017.101562 760.171875 C 2021.421875 750.589844 2026.859375 749.378906 2033.25 746.53125 C 2039.640625 743.691406 2043.351562 727.628906 2043.519531 719.941406 C 2043.699219 712.261719 2047.109375 680.488281 2047.75 667.148438 C 2048.398438 653.808594 2050.171875 630.851562 2044.558594 634.558594 "/>
<path fill-rule="nonzero" fill="rgb(6.30188%, 5.761719%, 5.056763%)" fill-opacity="1" d="M 491.195312 504.519531 C 479.429688 464.210938 447.632812 458.730469 423.84375 460.078125 C 400.058594 461.429688 395.441406 455.308594 368.214844 447.351562 C 340.988281 439.398438 329.390625 454.648438 326.738281 469.730469 C 324.089844 484.820312 326.988281 499.019531 316.789062 528.648438 C 306.585938 558.269531 325.925781 588.339844 325.925781 588.339844 C 351.453125 619.25 375.929688 617.640625 409.636719 610.269531 C 443.34375 602.910156 460.007812 589.691406 467.609375 573.171875 C 475.210938 556.648438 502.960938 544.828125 491.195312 504.519531 "/>
<path fill-rule="nonzero" fill="rgb(6.30188%, 5.761719%, 5.056763%)" fill-opacity="1" d="M 442.703125 446.449219 C 446.71875 449.390625 471.242188 449.480469 475.757812 428.488281 C 480.269531 407.5 467.261719 393.5 455.289062 385.128906 C 443.316406 376.761719 416.648438 371.730469 421.367188 404.980469 C 426.082031 438.230469 442.703125 446.449219 442.703125 446.449219 "/>
<path fill-rule="nonzero" fill="rgb(6.30188%, 5.761719%, 5.056763%)" fill-opacity="1" d="M 350.996094 426.558594 C 374.800781 434.078125 395.753906 413.410156 391.265625 392.078125 C 386.777344 370.761719 359.28125 347.238281 337.425781 349.570312 C 315.566406 351.910156 309.648438 360.621094 320.6875 390.488281 C 331.730469 420.359375 350.996094 426.558594 350.996094 426.558594 "/>
<path fill-rule="nonzero" fill="rgb(6.30188%, 5.761719%, 5.056763%)" fill-opacity="1" d="M 262.046875 393.628906 C 251.433594 400.949219 254.625 423.011719 259.230469 443.230469 C 263.832031 463.460938 276.167969 469.628906 276.167969 469.628906 C 286.121094 474.300781 306.058594 472.421875 311.011719 455.441406 C 315.964844 438.460938 307.226562 424.71875 297.816406 414.089844 C 288.402344 403.46875 272.660156 386.308594 262.046875 393.628906 "/>
<path fill-rule="nonzero" fill="rgb(6.30188%, 5.761719%, 5.056763%)" fill-opacity="1" d="M 269.703125 491.339844 C 260.527344 485.589844 238.234375 488.871094 243.785156 521.550781 C 249.339844 554.230469 268.058594 560.371094 268.058594 560.371094 C 273.148438 563.191406 288.832031 562.878906 295.34375 555.769531 C 301.859375 548.660156 309.992188 531.808594 300.835938 521.878906 C 291.679688 511.941406 278.878906 497.089844 269.703125 491.339844 "/>
<path fill-rule="nonzero" fill="rgb(6.30188%, 5.761719%, 5.056763%)" fill-opacity="1" d="M 568.609375 402.300781 C 568.609375 402.300781 564.886719 396.511719 566.851562 390.808594 C 568.8125 385.109375 568.253906 382.378906 568.765625 379.46875 C 569.273438 376.570312 571.507812 373.640625 576.746094 375.171875 C 581.988281 376.699219 582.875 377.878906 587.453125 377.621094 C 592.03125 377.359375 598.148438 378.410156 600.414062 386.171875 C 602.679688 393.921875 597.339844 396.199219 595.875 399.378906 C 594.410156 402.558594 591.203125 405.101562 584.71875 406.519531 C 578.230469 407.941406 573.519531 408.25 568.609375 402.300781 "/>
<path fill-rule="nonzero" fill="rgb(6.30188%, 5.761719%, 5.056763%)" fill-opacity="1" d="M 591.082031 374.988281 C 591.082031 374.988281 587.882812 373.410156 586.976562 367.011719 C 586.066406 360.609375 591.199219 361.578125 593.503906 363.191406 C 595.808594 364.800781 598.3125 367.5 597.441406 371.539062 C 596.574219 375.578125 591.855469 375.558594 591.082031 374.988281 "/>
<path fill-rule="nonzero" fill="rgb(6.30188%, 5.761719%, 5.056763%)" fill-opacity="1" d="M 573.433594 371.160156 C 573.433594 371.160156 569.726562 369.96875 567.601562 364.21875 C 565.476562 358.480469 566.613281 356.800781 570.820312 356.351562 C 575.027344 355.898438 580.320312 360.429688 581.183594 364.53125 C 582.046875 368.628906 578.015625 372.609375 573.433594 371.160156 "/>
<path fill-rule="nonzero" fill="rgb(6.30188%, 5.761719%, 5.056763%)" fill-opacity="1" d="M 559.03125 379.449219 C 559.03125 379.449219 556.660156 378.269531 555.773438 374.371094 C 554.886719 370.480469 554.273438 366.238281 556.316406 364.828125 C 558.359375 363.421875 561.386719 366.71875 563.199219 368.769531 C 565.011719 370.808594 566.691406 373.460938 565.738281 376.71875 C 564.785156 379.988281 560.949219 380.351562 559.03125 379.449219 "/>
<path fill-rule="nonzero" fill="rgb(6.30188%, 5.761719%, 5.056763%)" fill-opacity="1" d="M 557.472656 396.921875 C 557.472656 396.921875 553.871094 395.730469 552.800781 389.449219 C 551.734375 383.160156 556.023438 382.53125 557.789062 383.628906 C 559.554688 384.738281 562.019531 387.601562 563.78125 389.511719 C 565.542969 391.421875 563.976562 394.660156 562.722656 396.03125 C 561.46875 397.398438 558.453125 397.460938 557.472656 396.921875 "/>
<path fill-rule="nonzero" fill="rgb(6.30188%, 5.761719%, 5.056763%)" fill-opacity="1" d="M 404.144531 682.109375 C 404.144531 682.109375 400.425781 676.320312 402.386719 670.621094 C 404.351562 664.921875 403.792969 662.191406 404.304688 659.28125 C 404.8125 656.378906 407.046875 653.449219 412.285156 654.980469 C 417.523438 656.511719 418.414062 657.691406 422.988281 657.429688 C 427.566406 657.171875 433.6875 658.21875 435.953125 665.980469 C 438.214844 673.730469 432.875 676.011719 431.410156 679.191406 C 429.949219 682.371094 426.742188 684.910156 420.257812 686.328125 C 413.769531 687.75 409.058594 688.058594 404.144531 682.109375 "/>
<path fill-rule="nonzero" fill="rgb(6.30188%, 5.761719%, 5.056763%)" fill-opacity="1" d="M 426.617188 654.800781 C 426.617188 654.800781 423.421875 653.21875 422.511719 646.820312 C 421.605469 640.421875 426.738281 641.390625 429.039062 643 C 431.347656 644.609375 433.847656 647.308594 432.980469 651.351562 C 432.113281 655.390625 427.390625 655.371094 426.617188 654.800781 "/>
<path fill-rule="nonzero" fill="rgb(6.30188%, 5.761719%, 5.056763%)" fill-opacity="1" d="M 408.972656 650.96875 C 408.972656 650.96875 405.261719 649.78125 403.140625 644.03125 C 401.015625 638.289062 402.152344 636.609375 406.359375 636.160156 C 410.566406 635.710938 415.855469 640.238281 416.722656 644.339844 C 417.585938 648.441406 413.550781 652.421875 408.972656 650.96875 "/>
<path fill-rule="nonzero" fill="rgb(6.30188%, 5.761719%, 5.056763%)" fill-opacity="1" d="M 394.570312 659.261719 C 394.570312 659.261719 392.195312 658.078125 391.3125 654.179688 C 390.425781 650.289062 389.8125 646.050781 391.851562 644.640625 C 393.894531 643.230469 396.925781 646.53125 398.738281 648.578125 C 400.546875 650.621094 402.230469 653.269531 401.277344 656.53125 C 400.324219 659.800781 396.488281 660.160156 394.570312 659.261719 "/>
<path fill-rule="nonzero" fill="rgb(6.30188%, 5.761719%, 5.056763%)" fill-opacity="1" d="M 393.011719 676.730469 C 393.011719 676.730469 389.40625 675.539062 388.339844 669.261719 C 387.269531 662.96875 391.558594 662.339844 393.324219 663.441406 C 395.09375 664.550781 397.554688 667.410156 399.316406 669.320312 C 401.078125 671.230469 399.515625 674.46875 398.261719 675.839844 C 397.007812 677.210938 393.988281 677.269531 393.011719 676.730469 "/>
<path fill-rule="nonzero" fill="rgb(6.30188%, 5.761719%, 5.056763%)" fill-opacity="1" d="M 544.441406 549.980469 C 544.441406 549.980469 540.71875 544.199219 542.683594 538.5 C 544.648438 532.800781 544.089844 530.058594 544.597656 527.160156 C 545.109375 524.261719 547.339844 521.320312 552.578125 522.851562 C 557.820312 524.378906 558.707031 525.558594 563.285156 525.300781 C 567.863281 525.039062 573.984375 526.101562 576.246094 533.859375 C 578.511719 541.609375 573.171875 543.890625 571.707031 547.070312 C 570.246094 550.25 567.039062 552.789062 560.550781 554.210938 C 554.066406 555.621094 549.355469 555.929688 544.441406 549.980469 "/>
<path fill-rule="nonzero" fill="rgb(6.30188%, 5.761719%, 5.056763%)" fill-opacity="1" d="M 566.914062 522.679688 C 566.914062 522.679688 563.71875 521.101562 562.808594 514.699219 C 561.902344 508.300781 567.03125 509.269531 569.335938 510.878906 C 571.640625 512.488281 574.144531 515.179688 573.277344 519.21875 C 572.40625 523.261719 567.6875 523.25 566.914062 522.679688 "/>
<path fill-rule="nonzero" fill="rgb(6.30188%, 5.761719%, 5.056763%)" fill-opacity="1" d="M 549.265625 518.851562 C 549.265625 518.851562 545.558594 517.660156 543.433594 511.910156 C 541.308594 506.160156 542.449219 504.488281 546.65625 504.039062 C 550.859375 503.589844 556.152344 508.109375 557.015625 512.21875 C 557.878906 516.320312 553.847656 520.300781 549.265625 518.851562 "/>
<path fill-rule="nonzero" fill="rgb(6.30188%, 5.761719%, 5.056763%)" fill-opacity="1" d="M 534.867188 527.140625 C 534.867188 527.140625 532.492188 525.949219 531.605469 522.058594 C 530.722656 518.171875 530.105469 513.921875 532.148438 512.511719 C 534.191406 511.109375 537.222656 514.410156 539.03125 516.449219 C 540.84375 518.5 542.523438 521.140625 541.570312 524.410156 C 540.617188 527.679688 536.78125 528.039062 534.867188 527.140625 "/>
<path fill-rule="nonzero" fill="rgb(6.30188%, 5.761719%, 5.056763%)" fill-opacity="1" d="M 533.304688 544.601562 C 533.304688 544.601562 529.703125 543.421875 528.636719 537.128906 C 527.566406 530.839844 531.855469 530.210938 533.621094 531.320312 C 535.386719 532.421875 537.851562 535.28125 539.613281 537.191406 C 541.375 539.109375 539.808594 542.351562 538.558594 543.71875 C 537.304688 545.078125 534.285156 545.148438 533.304688 544.601562 "/>
<path fill-rule="nonzero" fill="rgb(6.459045%, 5.915833%, 5.220032%)" fill-opacity="1" d="M 702.160156 523.089844 C 681.375 588.640625 628.089844 626.460938 580.132812 668.019531 C 532.1875 709.589844 483.046875 755.941406 483.046875 755.941406 C 483.046875 755.941406 473.203125 746.808594 458.949219 733.769531 C 479.191406 715.171875 506.703125 690.210938 533.671875 666.851562 C 540.40625 661.011719 547.414062 655.101562 554.183594 649.371094 C 577.71875 629.5 602.0625 608.949219 623.144531 585.109375 C 647.707031 557.339844 664.4375 528.730469 674.289062 497.648438 C 682.429688 471.980469 686.117188 444.308594 684.941406 417.640625 C 684.570312 409.058594 683.675781 400.640625 682.289062 392.488281 C 681.09375 385.460938 679.523438 378.621094 677.601562 372.011719 C 715.746094 410.78125 717.328125 475.238281 702.160156 523.089844 Z M 412.617188 746.851562 C 412.617188 746.851562 328.394531 668.730469 289.816406 637.230469 C 288.21875 635.941406 286.699219 634.710938 285.269531 633.570312 C 272.484375 623.441406 258.039062 611.199219 243.707031 597.328125 C 217.660156 572.140625 191.984375 541.570312 177.257812 508.441406 C 154.425781 457.070312 151.640625 365.148438 200.816406 324.171875 C 224.351562 304.558594 257.757812 288.429688 293.894531 288.429688 L 293.902344 288.429688 C 332.917969 288.429688 375.121094 307.230469 411.589844 360.710938 C 411.933594 361.210938 412.277344 361.71875 412.617188 362.230469 C 412.617188 362.230469 412.839844 361.808594 413.269531 361.039062 C 418.617188 351.558594 457.007812 288.53125 532.449219 288.53125 C 541.839844 288.53125 551.777344 289.511719 562.324219 291.671875 C 588.179688 297.011719 608.242188 307.800781 623.417969 322.121094 C 632.058594 330.261719 639.109375 339.550781 644.746094 349.628906 C 646.714844 353.148438 648.515625 356.761719 650.140625 360.449219 C 653.539062 368.140625 656.21875 376.179688 658.238281 384.429688 C 666.878906 419.679688 663.585938 458.78125 653.363281 491.011719 C 630.53125 563.019531 571.984375 604.589844 519.296875 650.261719 C 491.371094 674.460938 463.085938 700.140625 442.660156 718.929688 C 437.117188 724.03125 432.15625 728.621094 427.933594 732.550781 C 418.363281 741.441406 412.617188 746.851562 412.617188 746.851562 Z M 730.910156 456.308594 C 729.691406 428.699219 722.621094 403.128906 710.460938 382.378906 C 701.574219 367.230469 689.988281 354.46875 676.035156 344.480469 C 671.636719 341.328125 667.007812 338.460938 662.160156 335.878906 C 652.449219 319.460938 639.832031 305.640625 624.65625 294.769531 C 608.191406 282.980469 588.714844 274.710938 566.761719 270.179688 C 555.175781 267.789062 543.628906 266.578125 532.449219 266.578125 C 493.433594 266.578125 456.964844 281.359375 426.976562 309.320312 C 421.179688 314.71875 416.175781 320.089844 411.90625 325.121094 C 370.425781 277.351562 325.859375 266.480469 293.902344 266.480469 C 274.019531 266.480469 253.972656 270.570312 234.300781 278.628906 C 217.390625 285.570312 200.949219 295.488281 186.769531 307.308594 C 172.332031 319.339844 160.933594 335.261719 152.90625 354.609375 C 145.988281 371.289062 141.691406 390.179688 140.148438 410.761719 C 137.398438 447.289062 143.773438 487.140625 157.199219 517.351562 C 168.386719 542.53125 186.214844 568.46875 210.1875 594.449219 C 227.558594 613.269531 248.230469 632.21875 271.632812 650.78125 C 272.300781 651.300781 272.984375 651.851562 273.6875 652.421875 C 309.964844 681.621094 396.792969 762.121094 397.691406 762.941406 L 412.742188 776.910156 L 424.148438 766.148438 L 427.679688 762.820312 C 427.863281 762.640625 434.082031 756.789062 444.214844 747.378906 C 458.851562 760.761719 469.171875 770.320312 469.460938 770.589844 L 483.160156 783.308594 L 496.761719 770.480469 C 497.246094 770.019531 546.160156 723.929688 593.226562 683.128906 C 599.355469 677.808594 605.730469 672.429688 611.898438 667.21875 C 633.324219 649.128906 655.46875 630.441406 674.667969 608.738281 C 697.015625 583.460938 712.234375 557.429688 721.207031 529.140625 C 728.609375 505.769531 731.976562 480.578125 730.910156 456.308594 "/>
</svg>
