<svg width="235" height="226" viewBox="0 0 235 226" fill="none" xmlns="http://www.w3.org/2000/svg">
<g clip-path="url(#clip0_3_7101)">
<path d="M1.39365 125.943C-1.08956 114.695 -0.405477 102.799 4.67138 90.6857C11.2127 75.0777 25.2654 63.9876 41.0113 57.5162C63.8937 48.1118 86.3564 47.933 104.956 29.5052C110.693 23.8214 115.508 17.3111 121.367 11.7448C138.651 -4.67493 163.948 -2.68156 182.838 10.3373C222.244 37.4967 236.417 91.2864 234.226 135.757C233.242 155.714 223.371 174.288 207.746 187.381C172.409 216.995 112.406 212.014 71.8201 196.556C41.5544 185.028 8.50069 158.136 1.39365 125.943Z" fill="#964ABA"/>
<path opacity="0.7" d="M1.39365 125.943C-1.08956 114.695 -0.405477 102.799 4.67138 90.6857C11.2127 75.0777 25.2654 63.9876 41.0113 57.5162C63.8937 48.1118 86.3564 47.933 104.956 29.5052C110.693 23.8214 115.508 17.3111 121.367 11.7448C138.651 -4.67493 163.948 -2.68156 182.838 10.3373C222.244 37.4967 236.417 91.2864 234.226 135.757C233.242 155.714 223.371 174.288 207.746 187.381C172.409 216.995 112.406 212.014 71.8201 196.556C41.5544 185.028 8.50069 158.136 1.39365 125.943Z" fill="white"/>
<path d="M181.162 30.9023H179.18" stroke="#212B32" stroke-width="0.5" stroke-linejoin="round"/>
<path d="M175.221 30.9023H50.5254" stroke="#212B32" stroke-width="0.5" stroke-linejoin="round" stroke-dasharray="6.99 6.99"/>
<path d="M48.5465 30.9023H46.5645" stroke="#212B32" stroke-width="0.5" stroke-linejoin="round"/>
<path d="M182.533 186.617V184.704" stroke="#212B32" stroke-width="0.5" stroke-linejoin="round"/>
<path d="M182.533 180.843V36.0688" stroke="#212B32" stroke-width="0.5" stroke-linejoin="round" stroke-dasharray="7.06 7.06"/>
<path d="M182.533 34.1381V32.2251" stroke="#212B32" stroke-width="0.5" stroke-linejoin="round"/>
<path d="M183.906 29.5776H181.162V32.2258H183.906V29.5776Z" stroke="#212B32" stroke-width="0.5" stroke-miterlimit="10" stroke-linejoin="round"/>
<path d="M205.469 38.824L185.533 30.7407L193.908 49.9829L196.222 43.4727L200.673 47.7688L203.176 45.354L198.724 41.0573L205.469 38.824Z" stroke="#212B32" stroke-width="0.5" stroke-miterlimit="10" stroke-linecap="round" stroke-linejoin="round"/>
<path d="M167.044 208.407H147.37C145.977 208.407 144.669 207.32 144.448 205.98L142.257 192.72C142.035 191.38 142.984 190.293 144.377 190.293H164.051C165.444 190.293 166.752 191.38 166.973 192.72L169.164 205.98C169.386 207.321 168.437 208.407 167.044 208.407Z" stroke="#212B32" stroke-width="0.5" stroke-miterlimit="10" stroke-linecap="round" stroke-linejoin="round"/>
<path d="M167.044 208.407C168.437 208.407 169.565 207.318 169.565 205.974V191.023C169.565 189.739 168.531 188.698 167.224 188.607L166.611 187.087C166.496 186.802 166.212 186.614 165.896 186.614H159.462C159.146 186.614 158.862 186.801 158.747 187.087L158.141 188.59H147.369C146.259 188.59 145.317 189.282 144.98 190.242" stroke="#212B32" stroke-width="0.5" stroke-miterlimit="10" stroke-linecap="round" stroke-linejoin="round"/>
<path d="M93.048 208.407H73.3737C71.9811 208.407 70.673 207.32 70.4516 205.98L68.2606 192.72C68.0392 191.38 68.9883 190.293 70.3808 190.293H90.0551C91.4476 190.293 92.7558 191.38 92.9772 192.72L95.1682 205.98C95.3902 207.321 94.4405 208.407 93.048 208.407Z" stroke="#212B32" stroke-width="0.5" stroke-miterlimit="10" stroke-linecap="round" stroke-linejoin="round"/>
<path d="M93.0473 208.407C94.4399 208.407 95.5685 207.318 95.5685 205.974V191.023C95.5685 189.739 94.5339 188.698 93.2274 188.607L92.6147 187.087C92.4997 186.802 92.2155 186.614 91.8989 186.614H85.4657C85.1492 186.614 84.8649 186.801 84.7499 187.087L84.1446 188.59H73.373C72.2631 188.59 71.3213 189.282 70.9844 190.242" stroke="#212B32" stroke-width="0.5" stroke-miterlimit="10" stroke-linecap="round" stroke-linejoin="round"/>
<path d="M130.046 208.407H110.372C108.979 208.407 107.671 207.32 107.45 205.98L105.259 192.72C105.037 191.38 105.986 190.293 107.379 190.293H127.053C128.446 190.293 129.754 191.38 129.975 192.72L132.166 205.98C132.388 207.321 131.439 208.407 130.046 208.407Z" stroke="#212B32" stroke-width="0.5" stroke-miterlimit="10" stroke-linecap="round" stroke-linejoin="round"/>
<path d="M130.045 208.407C131.438 208.407 132.567 207.318 132.567 205.974V191.023C132.567 189.739 131.532 188.698 130.225 188.607L129.613 187.087C129.498 186.802 129.214 186.614 128.897 186.614H122.464C122.147 186.614 121.863 186.801 121.748 187.087L121.143 188.59H110.371C109.261 188.59 108.319 189.282 107.982 190.242" stroke="#212B32" stroke-width="0.5" stroke-miterlimit="10" stroke-linecap="round" stroke-linejoin="round"/>
<path d="M140.866 60.4688L146.198 54.1094C147.415 52.6576 147.885 50.7528 147.478 48.9273L142.42 26.2689C142.032 24.5308 140.439 23.2896 138.597 23.2896H128.792C128.095 23.2896 127.402 23.4 126.742 23.6159L31.9043 61.0995L55.9385 181.562C59.3103 186.45 154.134 154.827 154.134 154.827C157.267 153.816 159.082 150.665 158.319 147.564L138.92 68.7275C138.207 65.8323 138.926 62.7819 140.866 60.4688Z" fill="#964ABA" stroke="#212B32" stroke-width="0.5" stroke-miterlimit="10" stroke-linecap="round" stroke-linejoin="round"/>
<path opacity="0.3" d="M126.994 25.9663L157.013 150.136C157.013 150.136 55.5169 186.627 60.2998 175.337C60.2998 175.337 36.1455 64.4087 38.1825 63.9987C40.22 63.5882 126.994 25.9663 126.994 25.9663Z" fill="black" fill-opacity="0.7"/>
<path d="M152.053 147.924L64.5224 174.746L43.0942 66.9697L41.875 60.8382L119.856 24.4209C121.419 23.6863 123.395 24.6231 123.842 26.312L125.453 32.3976L154.726 143.129C155.282 145.229 154.133 147.287 152.053 147.924Z" fill="white"/>
<path d="M125.454 32.3971L43.72 68.5066L41.875 60.8382L119.857 24.4209C121.419 23.6863 123.396 24.6231 123.842 26.312L125.454 32.3971Z" fill="#212B32"/>
<path d="M121.358 29.7258C121.358 30.8277 120.547 31.6667 119.547 31.5994C118.547 31.5322 117.736 30.5839 117.736 29.4814C117.736 28.379 118.547 27.5406 119.547 27.6078C120.547 27.6756 121.358 28.6239 121.358 29.7258Z" fill="#964ABA" stroke="#212B32" stroke-width="0.5" stroke-miterlimit="10" stroke-linecap="round" stroke-linejoin="round"/>
<path d="M116.688 31.9563C116.688 32.9795 115.935 33.7579 115.007 33.695C114.079 33.6327 113.326 32.7522 113.326 31.7295C113.326 30.7063 114.079 29.928 115.007 29.9909C115.935 30.0532 116.688 30.9332 116.688 31.9563Z" fill="#964ABA" stroke="#212B32" stroke-width="0.5" stroke-miterlimit="10" stroke-linecap="round" stroke-linejoin="round"/>
<path d="M112.279 33.8854C112.279 34.8425 111.575 35.5705 110.707 35.512C109.839 35.4536 109.135 34.6304 109.135 33.6734C109.135 32.7163 109.839 31.9883 110.707 32.0467C111.575 32.1052 112.279 32.9284 112.279 33.8854Z" fill="#964ABA" stroke="#212B32" stroke-width="0.5" stroke-miterlimit="10" stroke-linecap="round" stroke-linejoin="round"/>
<path opacity="0.3" d="M152.053 147.924L64.5224 174.746L43.0942 66.9697L41.875 60.8382L119.856 24.4209C121.419 23.6863 123.395 24.6231 123.842 26.312L125.453 32.3976L154.726 143.129C155.282 145.229 154.133 147.287 152.053 147.924Z" fill="black" fill-opacity="0.7"/>
<path d="M152.053 147.924L64.5224 174.746L43.0942 66.9697L41.875 60.8382L119.856 24.4209C121.419 23.6863 123.395 24.6231 123.842 26.312L125.453 32.3976L154.726 143.129C155.282 145.229 154.133 147.287 152.053 147.924Z" stroke="#212B32" stroke-width="0.5" stroke-miterlimit="10" stroke-linecap="round" stroke-linejoin="round"/>
<path d="M146.874 142.612L60.5252 175.336L39.3864 69.0055L38.1836 62.956L115.112 21.2801C116.654 20.4406 118.603 21.244 119.044 22.9024L120.633 28.8792L149.511 137.636C150.059 139.7 148.926 141.835 146.874 142.612Z" fill="white" stroke="#212B32" stroke-width="0.5" stroke-miterlimit="10" stroke-linecap="round" stroke-linejoin="round"/>
<path d="M120.634 28.8792L40.0037 70.5004L38.1836 62.956L115.112 21.2801C116.654 20.4406 118.603 21.244 119.044 22.9024L120.634 28.8792Z" fill="#212B32"/>
<path d="M116.594 26.4848C116.594 27.5867 115.795 28.4804 114.808 28.4804C113.821 28.4804 113.021 27.5867 113.021 26.4848C113.021 25.3829 113.821 24.4893 114.808 24.4893C115.794 24.4893 116.594 25.3824 116.594 26.4848Z" fill="#964ABA" stroke="#212B32" stroke-width="0.5" stroke-miterlimit="10" stroke-linecap="round" stroke-linejoin="round"/>
<path d="M111.986 29.0296C111.986 30.0528 111.244 30.8819 110.328 30.8819C109.412 30.8819 108.67 30.0528 108.67 29.0296C108.67 28.0064 109.412 27.1772 110.328 27.1772C111.244 27.1778 111.986 28.0069 111.986 29.0296Z" fill="#964ABA" stroke="#212B32" stroke-width="0.5" stroke-miterlimit="10" stroke-linecap="round" stroke-linejoin="round"/>
<path d="M107.635 31.2561C107.635 32.2131 106.941 32.9887 106.084 32.9887C105.227 32.9887 104.533 32.2131 104.533 31.2561C104.533 30.299 105.227 29.5234 106.084 29.5234C106.941 29.5234 107.635 30.299 107.635 31.2561Z" fill="#964ABA" stroke="#212B32" stroke-width="0.5" stroke-miterlimit="10" stroke-linecap="round" stroke-linejoin="round"/>
<path opacity="0.3" d="M119.722 31.567L145.149 127.66C145.253 128.054 145.048 128.462 144.663 128.627L142.343 129.618C141.861 129.824 141.304 129.562 141.176 129.068L116.427 33.5254C116.3 33.0329 116.529 32.5186 116.988 32.2694L118.902 31.2287C119.224 31.0538 119.63 31.2216 119.722 31.567Z" fill="black" fill-opacity="0.7"/>
<path d="M117.54 34.3453L118.945 33.5965C119.521 33.2899 120.241 33.5927 120.4 34.2087L122.998 44.2744C123.128 44.7789 122.886 45.3042 122.409 45.5479L120.696 46.4257C120.281 46.6389 119.768 46.4186 119.654 45.9776L116.969 35.6106C116.84 35.1127 117.074 34.5935 117.54 34.3453Z" fill="#C0C0C0" stroke="#212B32" stroke-width="0.5" stroke-miterlimit="10" stroke-linecap="round" stroke-linejoin="round"/>
<path opacity="0.4" d="M130.236 141.934L74.6172 164.04" stroke="#212B32" stroke-width="0.5" stroke-miterlimit="10" stroke-linecap="round" stroke-linejoin="round"/>
<path opacity="0.4" d="M137.755 135.196L67.0977 164.04" stroke="#212B32" stroke-width="0.5" stroke-miterlimit="10" stroke-linecap="round" stroke-linejoin="round"/>
<path opacity="0.3" d="M130.813 106.185L125.114 82.7856L109.66 89.9097L115.31 113.231L130.813 106.185Z" fill="black" fill-opacity="0.7"/>
<path opacity="0.3" d="M103.363 63.9119L108.731 86.0696L124.158 78.8591L118.628 56.1538L103.363 63.9119Z" fill="black" fill-opacity="0.7"/>
<path opacity="0.3" d="M118.138 54.1467L113.62 35.5942L98.3711 43.3031L102.89 61.9573L118.138 54.1467Z" fill="black" fill-opacity="0.7"/>
<path opacity="0.3" d="M115.869 115.543L121.067 137.004L136.708 130.392L131.453 108.814L115.869 115.543Z" fill="black" fill-opacity="0.7"/>
<path d="M31.9043 61.0995L55.9385 181.562C63.6311 173.082 118.581 134.238 118.581 134.238C122.855 131.245 124.871 126.082 123.707 121.11L98.2551 15.8156C97.3157 11.8043 92.2626 10.2356 89.0766 12.9669C89.0766 12.9669 37.9773 43.9534 31.9043 61.0995Z" fill="#964ABA" stroke="#212B32" stroke-width="0.5" stroke-miterlimit="10" stroke-linecap="round" stroke-linejoin="round"/>
<g opacity="0.7">
<path d="M119.345 124.87C118.618 124.87 117.959 124.392 117.78 123.681C117.346 121.958 116.922 120.234 116.504 118.507C116.301 117.671 116.839 116.834 117.706 116.639C118.57 116.444 119.439 116.963 119.641 117.8C120.057 119.517 120.48 121.233 120.911 122.947C121.121 123.781 120.591 124.623 119.726 124.825C119.598 124.855 119.47 124.87 119.345 124.87Z" fill="white"/>
</g>
<g opacity="0.7">
<path d="M116.054 111.03C115.319 111.03 114.655 110.541 114.485 109.82L92.4403 16.4123C92.4346 16.3877 92.417 16.3128 92.3208 16.2757C92.2251 16.2385 92.1628 16.28 92.1424 16.2937C86.4828 19.9301 67.3284 32.327 58.4533 39.1799C52.8011 43.7264 47.6189 48.9467 41.6739 56.0872C41.1173 56.7573 40.1025 56.8639 39.4087 56.3255C38.715 55.7877 38.6046 54.8087 39.1618 54.1392C45.2456 46.8309 50.5671 41.4745 56.4152 36.7706C65.1719 30.0089 83.0675 18.3876 90.3563 13.7046C91.2918 13.1033 92.472 12.9853 93.5151 13.3865C94.5593 13.7887 95.3323 14.6616 95.5821 15.7209L117.626 109.129C117.824 109.966 117.281 110.799 116.413 110.99C116.294 111.018 116.173 111.03 116.054 111.03Z" fill="white"/>
</g>
<path d="M51.8254 226C51.0683 219.396 50.0421 210.222 49.1525 201.482C47.8591 188.723 46.8528 176.91 47.4004 175.417C48.6474 172.021 48.3953 169.576 48.3953 169.576C51.0875 169.289 52.2932 165.739 52.2932 165.739L50.8474 153.269C50.8474 153.269 51.749 129.393 50.6401 122.61C49.5257 115.823 45.0213 111.281 44.9279 109.474C44.835 107.672 48.4446 99.7349 49.631 97.4633C50.8174 95.1917 50.135 82.4117 48.2192 78.4162C47.6603 77.2553 46.885 76.595 46.0582 76.2452C44.0416 75.3767 41.7413 76.3529 41.7413 76.3529C41.2164 83.8481 38.9257 88.8443 36.8027 92.4042L36.8032 92.4091C34.9452 95.5218 33.2288 97.536 32.9184 99.1795C32.2564 102.701 24.2071 111.787 22.6866 116.487C21.1711 121.187 20.6734 137.17 18.2887 143.463C17.1646 146.429 13.1178 155.871 12.0532 184.671C11.4416 201.219 8.79187 216.224 6.64844 225.999H51.8254V226Z" fill="white"/>
<path opacity="0.4" d="M49.6296 97.4635C48.4432 99.7351 44.8341 107.672 44.9265 109.474C45.0199 111.281 49.5237 115.824 50.6387 122.61C51.7475 129.393 50.846 153.269 50.846 153.269L52.2917 165.74C52.2917 165.74 51.0861 169.289 48.3939 169.577C48.3939 169.577 48.6453 172.021 47.3989 175.417C46.8513 176.911 47.8576 188.724 49.151 201.482C47.801 195.976 46.691 191.72 46.691 191.72C46.691 191.72 46.0964 198.501 45.3393 203.848C44.5821 209.195 42.7468 216.81 42.7468 216.81C42.7468 216.81 38.6983 179.975 39.6361 173.823C40.5682 167.667 42.898 168.675 41.1028 165.731C39.3133 162.791 28.4166 160.236 29.4812 158.019C30.5255 155.846 39.0624 159.738 39.4141 159.898C39.1259 159.675 34.395 156.018 34.4307 154.324C34.4698 152.58 42.0253 157.05 42.0253 157.05C42.0253 157.05 45.1745 155.245 47.4839 152.688C49.7932 150.131 46.366 125.661 45.721 123.898C45.076 122.135 41.0258 122.384 39.8417 120.913C38.6575 119.442 41.8735 118.784 41.2563 116.54C40.639 114.295 38.9775 114.493 38.9775 114.493C38.9775 114.493 41.6374 110.741 41.3984 107.468C41.1634 104.188 45.5686 100.248 45.2509 97.8855C44.013 88.6877 38.3404 95.0247 36.8006 92.4071L36.8001 92.4022C38.9231 88.8424 41.2144 83.8461 41.7388 76.3509C41.7388 76.3509 44.0391 75.3747 46.0557 76.2432C46.8824 76.593 47.6577 77.2533 48.2166 78.4142C50.1341 82.4114 50.8159 95.1919 49.6296 97.4635Z" fill="#964ABA"/>
<path d="M8.48047 216.81C10.0955 207.841 11.6081 196.66 12.0521 184.671C13.1179 155.872 17.1663 146.429 18.2904 143.464C20.6763 137.17 21.1718 121.188 22.6889 116.487C24.206 111.787 32.2587 102.698 32.9157 99.1785C33.5726 95.6585 40.7555 90.3977 41.7397 76.3507C41.7397 76.3507 46.2995 74.4186 48.217 78.4151C50.1345 82.4117 50.818 95.1912 49.6305 97.4633C48.443 99.736 44.834 107.669 44.9274 109.474C45.0208 111.279 49.5274 115.823 50.6379 122.607C51.7484 129.392 50.8452 153.268 50.8452 153.268L52.291 165.737C52.291 165.737 51.0898 169.289 48.396 169.575C48.396 169.575 48.6491 172.018 47.401 175.413C46.5493 177.73 49.4306 204.821 51.3469 221.8" stroke="#212B32" stroke-width="0.5" stroke-miterlimit="10" stroke-linecap="round" stroke-linejoin="round"/>
<path d="M44.9278 109.475C44.9278 109.475 43.5064 113.295 40.752 113.288" stroke="#212B32" stroke-width="0.5" stroke-miterlimit="10" stroke-linecap="round" stroke-linejoin="round"/>
<path d="M44.0111 111.186C44.0111 111.186 44.8492 115.829 41.875 118.786" stroke="#212B32" stroke-width="0.5" stroke-miterlimit="10" stroke-linecap="round" stroke-linejoin="round"/>
<path d="M33.9336 96.8974C33.9336 96.8974 37.2742 96.2617 39.3672 97.4784" stroke="#212B32" stroke-width="0.5" stroke-miterlimit="10" stroke-linecap="round" stroke-linejoin="round"/>
<path d="M31.6113 158.819C31.6113 158.819 42.4678 162.11 44.1843 163.776C45.9007 165.442 48.397 169.577 48.397 169.577" stroke="#212B32" stroke-width="0.5" stroke-miterlimit="10" stroke-linecap="round" stroke-linejoin="round"/>
<path d="M40.0898 157.206C41.6823 158.938 45.2516 160.915 46.942 162.453C48.6324 163.991 49.47 167.418 49.47 167.418" stroke="#212B32" stroke-width="0.5" stroke-miterlimit="10" stroke-linecap="round" stroke-linejoin="round"/>
<path d="M47.2188 156.399C47.2188 156.399 49.7257 155.197 51.0163 151.408" stroke="#212B32" stroke-width="0.5" stroke-miterlimit="10" stroke-linecap="round" stroke-linejoin="round"/>
<path d="M44.2905 170.358C41.9115 171.513 41.848 184.676 43.103 199.58" stroke="#212B32" stroke-width="0.5" stroke-miterlimit="10" stroke-linecap="round" stroke-linejoin="round"/>
<path d="M45.5352 173.082C45.5572 174.539 47.5806 185.646 48.5139 194.98" stroke="#212B32" stroke-width="0.5" stroke-miterlimit="10" stroke-linecap="round" stroke-linejoin="round"/>
<path d="M141.708 83.4941C141.708 83.4941 137.27 91.3184 137.313 93.0893C137.355 94.8602 145.792 107.15 146.032 108.542C146.272 109.933 152.372 112.628 154.602 114.05C156.833 115.473 159.653 105.137 159.289 97.6926C158.924 90.2487 141.708 83.4941 141.708 83.4941Z" fill="white"/>
<path opacity="0.5" d="M141.708 83.4941C141.708 83.4941 137.27 91.3184 137.313 93.0893C137.355 94.8602 145.792 107.15 146.032 108.542C146.272 109.933 152.372 112.628 154.602 114.05C156.833 115.473 159.653 105.137 159.289 97.6926C158.924 90.2487 141.708 83.4941 141.708 83.4941Z" fill="#964ABA"/>
<path d="M141.708 83.4941C141.708 83.4941 137.27 91.3184 137.313 93.0893C137.355 94.8602 145.792 107.15 146.032 108.542C146.272 109.933 152.372 112.628 154.602 114.05C156.833 115.473 159.653 105.137 159.289 97.6926C158.924 90.2487 141.708 83.4941 141.708 83.4941Z" stroke="#212B32" stroke-width="0.5" stroke-miterlimit="10" stroke-linecap="round" stroke-linejoin="round"/>
<path d="M144.746 98.039C144.746 98.039 149.105 96.1243 153.848 101.227" stroke="#212B32" stroke-width="0.5" stroke-miterlimit="10" stroke-linecap="round" stroke-linejoin="round"/>
<path d="M234.715 170.824L208.085 199.836C208.085 199.836 203.706 194.574 198.229 188.143C190.445 179.006 180.442 167.513 177.613 165.419C174.158 162.859 151.701 148.037 145.497 140.7C144.606 139.646 143.833 138.715 143.149 137.865V137.86C139.051 132.769 138.239 130.585 136.201 123.475C133.83 115.169 131.217 110.582 130.553 107.509C130.533 107.418 130.513 107.323 130.494 107.224C129.81 103.814 128.609 93.5557 127.05 90.9485C125.441 88.2604 131.827 86.959 134.263 88.455C136.699 89.9461 142.771 97.2172 142.387 103.477C142.387 103.477 147.159 114.832 149.595 114.523C149.595 114.523 149.28 103.149 147.661 100.37C146.697 98.7175 146.451 97.1882 146.416 96.2197C146.382 95.5643 146.451 95.1653 146.451 95.1653C146.451 95.1653 138.942 87.3482 136.738 82.0863C134.529 76.8244 130.203 68.7225 129.372 60.8387C129.372 60.8387 128.402 55.1729 131.96 52.604C133.318 51.6207 134.568 51.3452 135.832 53.0407C136.349 53.7436 136.875 54.7788 137.412 56.2371C142.741 70.7552 149.324 76.3161 149.324 76.3161C149.324 76.3161 153.684 77.394 156.853 78.8331C157.305 79.0375 157.822 79.3414 158.393 79.7114C158.398 79.7114 158.398 79.7114 158.403 79.7114C158.403 79.7164 158.403 79.7164 158.403 79.7164C159.8 80.6237 161.503 81.9387 163.254 83.2259C165.783 85.0783 168.416 86.8732 170.393 87.2914C177.282 88.7349 180.594 92.1116 180.594 92.1116C180.594 92.1116 185.17 91.1715 187.59 95.2839C189.937 99.2636 191.231 100.057 191.231 100.057C191.266 100.057 192.959 100.071 194.346 102.996C196.791 108.154 204.143 135.637 204.502 136.748C207.459 145.838 216.252 155.593 226.305 164.141C226.305 164.141 226.305 164.146 226.31 164.146C229.051 166.473 231.88 168.71 234.715 170.824Z" fill="white"/>
<path opacity="0.4" d="M158.404 79.7168C158.404 79.7168 158.399 79.7168 158.395 79.7119C158.4 79.7119 158.4 79.7119 158.404 79.7119C158.404 79.7168 158.404 79.7168 158.404 79.7168Z" fill="#964ABA"/>
<path opacity="0.4" d="M165.808 90.8581C165.808 90.8581 157.846 89.4714 156.277 85.9854C154.712 82.4993 148.045 75.0577 146.45 74.5734C144.861 74.0842 143.857 75.167 143.857 75.167C143.857 75.167 141.097 70.9545 139.021 67.3214C137.048 63.8687 127.295 53.5111 135.832 53.041C136.349 53.7439 136.876 54.7791 137.412 56.2374C142.741 70.7556 149.324 76.3164 149.324 76.3164C149.324 76.3164 153.684 77.3943 156.853 78.8334C157.305 79.0378 157.822 79.3417 158.393 79.7118C158.186 79.6642 155.003 78.8995 155.633 80.4715C156.277 82.1003 161.469 86.6358 164.195 88.6259C166.92 90.6203 165.808 90.8581 165.808 90.8581Z" fill="#964ABA"/>
<path opacity="0.4" d="M226.306 164.141C221.803 161.762 215.003 157.834 212.73 154.747C209.227 149.989 206.628 147.61 204.296 144.85C201.959 142.095 197.545 139.844 198.583 140.219C199.621 140.594 204.296 142.148 204.296 142.148C204.296 142.148 200.793 137.964 198.067 130.949C195.34 123.935 190.381 99.2681 186.695 96.5276C183.01 93.7876 186.695 120.734 186.695 120.734C186.695 120.734 183.143 113.164 181.455 104.316C179.767 95.464 178.227 91.1187 176.234 89.9217C174.241 88.7296 170.423 91.2466 169.385 89.9217C168.347 88.6017 169.518 88.112 163.254 83.2256C165.783 85.0779 168.416 86.8729 170.393 87.291C177.282 88.7345 180.593 92.1113 180.593 92.1113C180.593 92.1113 185.17 91.1712 187.59 95.2836C189.937 99.2632 191.231 100.056 191.231 100.056C191.266 100.056 192.959 100.071 194.346 102.996C196.791 108.153 204.142 135.636 204.502 136.748C207.46 145.839 216.253 155.593 226.306 164.141Z" fill="#964ABA"/>
<path opacity="0.4" d="M152.223 119.747C151.933 121.409 149.788 116.546 149.596 117.296C149.404 118.051 148.823 120.516 148.789 119.747C148.759 118.977 144.212 116.546 143.43 112.913C142.653 109.28 142.136 107.727 141.747 106.815C141.359 105.899 140.665 107.423 140.62 105.22C140.581 103.249 134.003 101.169 130.494 107.224C129.81 103.814 128.609 93.556 127.05 90.9488C125.441 88.2608 131.827 86.9594 134.263 88.4553C136.699 89.9464 142.771 97.2175 142.387 103.477C142.387 103.477 147.159 114.832 149.595 114.523C149.595 114.523 149.28 103.149 147.661 100.371C146.697 98.7179 146.451 97.1885 146.416 96.22L148.788 96.5288C149.427 97.8871 148.178 99.8154 148.788 100.794C149.403 101.767 153.236 108.896 151.967 112.581C150.698 116.261 152.514 118.085 152.223 119.747Z" fill="#964ABA"/>
<path opacity="0.4" d="M198.23 188.144C190.446 179.007 180.443 167.514 177.614 165.419C174.159 162.86 151.702 148.038 145.498 140.7C144.607 139.646 143.834 138.715 143.15 137.865C146.454 141.758 150.489 143.807 152.256 144.729C155.371 146.353 164.391 147.757 170.685 154.35C173.743 157.553 175.488 159.882 179.252 163.891C183.011 167.899 188.463 168.151 191.705 173.665C193.335 176.427 196.036 182.654 198.23 188.144Z" fill="#964ABA"/>
<path d="M208.085 199.837C208.085 199.837 182.432 168.991 177.614 165.42C174.16 162.86 151.702 148.039 145.496 140.7C139.29 133.361 138.579 131.778 136.204 123.473C133.83 115.168 131.221 110.581 130.552 107.507C129.884 104.433 128.655 93.6329 127.049 90.947C125.443 88.2611 131.83 86.9603 134.263 88.4525C136.697 89.9446 142.77 97.219 142.387 103.477C142.387 103.477 147.161 114.831 149.596 114.521C149.596 114.521 149.279 103.148 147.66 100.369C146.042 97.5912 146.453 95.1661 146.453 95.1661C146.453 95.1661 138.943 87.3473 136.736 82.0843C134.53 76.8213 130.202 68.721 129.372 60.8389C129.372 60.8389 128.402 55.1742 131.961 52.6014C133.877 51.2159 135.577 51.2355 137.413 56.2356C142.743 70.7538 149.325 76.3163 149.325 76.3163C149.325 76.3163 153.684 77.3925 156.854 78.8305C160.023 80.2686 166.486 86.4689 170.397 87.2899C177.284 88.7356 180.594 92.114 180.594 92.114C180.594 92.114 185.172 91.1722 187.593 95.2825C189.937 99.2648 191.231 100.058 191.231 100.058C191.231 100.058 192.944 100.045 194.345 102.995C196.796 108.153 204.143 135.635 204.506 136.75C208.27 148.316 221.488 160.966 234.717 170.826" stroke="#212B32" stroke-width="0.5" stroke-miterlimit="10" stroke-linecap="round" stroke-linejoin="round"/>
<path d="M149.324 76.3169C149.324 76.3169 155.842 85.0282 160.406 86.6975" stroke="#212B32" stroke-width="0.5" stroke-miterlimit="10" stroke-linecap="round" stroke-linejoin="round"/>
<path d="M160.051 88.6274C164.448 89.9862 167.284 90.7952 168.093 93.9926C168.901 97.1901 171.253 104.422 172.385 107.267C173.517 110.111 176.234 117.297 176.234 117.297" stroke="#212B32" stroke-width="0.5" stroke-miterlimit="10" stroke-linecap="round" stroke-linejoin="round"/>
<path d="M149.596 114.521C149.596 114.521 152.587 118.278 151.851 121.958" stroke="#212B32" stroke-width="0.5" stroke-miterlimit="10" stroke-linecap="round" stroke-linejoin="round"/>
<path d="M148.327 113.916C148.327 113.916 148.196 118.001 149.26 120.734" stroke="#212B32" stroke-width="0.5" stroke-miterlimit="10" stroke-linecap="round" stroke-linejoin="round"/>
<path d="M146.453 95.1665C146.453 95.1665 148.854 96.416 149.426 97.8874" stroke="#212B32" stroke-width="0.5" stroke-miterlimit="10" stroke-linecap="round" stroke-linejoin="round"/>
<path d="M148.197 101.744C148.197 101.744 149.269 103.989 150.428 105.219C151.587 106.45 152.134 110.445 152.134 110.445" stroke="#212B32" stroke-width="0.5" stroke-miterlimit="10" stroke-linecap="round" stroke-linejoin="round"/>
<path d="M130.551 107.507C130.551 107.507 133.139 104.695 135.812 104.314" stroke="#212B32" stroke-width="0.5" stroke-miterlimit="10" stroke-linecap="round" stroke-linejoin="round"/>
<path d="M142.803 75.768C142.803 75.768 145.811 73.5915 148.095 75.0935" stroke="#212B32" stroke-width="0.5" stroke-miterlimit="10" stroke-linecap="round" stroke-linejoin="round"/>
<path d="M192.916 107.138C193.519 108.729 196.598 123.092 197.372 125.135" stroke="#212B32" stroke-width="0.5" stroke-miterlimit="10" stroke-linecap="round" stroke-linejoin="round"/>
<path d="M171.852 90.6771C171.852 90.6771 174.68 88.7193 178.229 91.1182C181.778 93.5172 181.782 94.6775 183.965 94.1135C186.148 93.5494 187.593 95.2826 187.593 95.2826" stroke="#212B32" stroke-width="0.5" stroke-miterlimit="10" stroke-linecap="round" stroke-linejoin="round"/>
<path d="M183.268 100.791C183.832 104.015 186.235 119.773 187.395 123.728" stroke="#212B32" stroke-width="0.5" stroke-miterlimit="10" stroke-linecap="round" stroke-linejoin="round"/>
</g>
<defs>
<clipPath id="clip0_3_7101">
<rect width="235" height="226" fill="white"/>
</clipPath>
</defs>
</svg>
