<?xml version="1.0" ?><svg id="outine" viewBox="0 0 48 48" xmlns="http://www.w3.org/2000/svg"><title/><path d="M22.632,10.508h6.293v7.863a.75.75,0,0,0,1.5,0V9.758a.75.75,0,0,0-.75-.75H22.632a.75.75,0,0,0,0,1.5Z"/><path d="M28.925,24.4v7.138a.75.75,0,0,0,1.5,0V24.4a.75.75,0,0,0-1.5,0Z"/><path d="M29.675,35.97a.75.75,0,0,0-.75.75V46.5H1.5V10.508H7.863a.75.75,0,0,0,0-1.5H.75a.75.75,0,0,0-.75.75V47.25A.75.75,0,0,0,.75,48H29.675a.75.75,0,0,0,.75-.75V36.72A.75.75,0,0,0,29.675,35.97Z"/><path d="M27.058,19.121a.75.75,0,0,0,.75-.75v-6a.75.75,0,0,0-.75-.75H3.367a.75.75,0,0,0-.75.75V44.633a.75.75,0,0,0,.75.75H27.058a.75.75,0,0,0,.75-.75V37.274a.75.75,0,0,0-1.5,0v6.609H4.117V13.125H26.308v5.246A.75.75,0,0,0,27.058,19.121Z"/><path d="M26.308,23.421v8.96a.75.75,0,0,0,1.5,0v-8.96a.75.75,0,0,0-1.5,0Z"/><path d="M10.319,10.508h9.786a.75.75,0,0,0,.729-.929l-.651-2.645a.75.75,0,0,0-.728-.572H10.97a.75.75,0,0,0-.728.572L9.591,9.579a.75.75,0,0,0,.728.929Zm1.239-2.646h7.309l.281,1.146H11.276Z"/><path d="M47.25,0h-1.7a.75.75,0,0,0,0,1.5H46.5V7.607a5.753,5.753,0,0,1-11.506,0V1.5h1.363a.75.75,0,0,0,0-1.5H34.244a.75.75,0,0,0-.75.75V7.607A7.263,7.263,0,0,0,40,14.821v2.153c0,10.5-7.437,17.005-14.328,17.005a6.052,6.052,0,0,1-6.215-6.28,6.061,6.061,0,0,1,1.611-4.216,6.794,6.794,0,0,1,5.078-1.911c2.69,0,5.775,1.842,9.169,5.473a.75.75,0,1,0,1.1-1.024c-3.689-3.947-7.143-5.949-10.265-5.949a8.248,8.248,0,0,0-6.164,2.377,7.553,7.553,0,0,0-2.025,5.25,7.59,7.59,0,0,0,7.715,7.78c9.777,0,15.828-9.6,15.828-18.5V14.821A7.263,7.263,0,0,0,48,7.607V.75A.75.75,0,0,0,47.25,0Z"/><path d="M44.023,34.943a3.534,3.534,0,0,0-.924.137,58.732,58.732,0,0,0-3.7-5.489.75.75,0,1,0-1.194.908,58.5,58.5,0,0,1,3.56,5.273,3.549,3.549,0,1,0,2.258-.829Zm0,5.642a2.071,2.071,0,1,1,2.071-2.071A2.073,2.073,0,0,1,44.023,40.585Z"/><path d="M20.4,18.137a.75.75,0,0,0-.75-.75H7.5a.75.75,0,1,0,0,1.5H19.654A.75.75,0,0,0,20.4,18.137Z"/><path d="M15.976,22.671H7.5a.75.75,0,1,0,0,1.5h8.474a.75.75,0,0,0,0-1.5Z"/><path d="M7.5,29.455h8.474a.75.75,0,0,0,0-1.5H7.5a.75.75,0,0,0,0,1.5Z"/><path d="M7.5,34.739h8.474a.75.75,0,0,0,0-1.5H7.5a.75.75,0,0,0,0,1.5Z"/><path d="M7.5,40.023H22.959a.75.75,0,0,0,0-1.5H7.5a.75.75,0,0,0,0,1.5Z"/></svg>