<svg width="66" height="56" viewBox="0 0 66 56" fill="none" xmlns="http://www.w3.org/2000/svg">
<rect width="65.5" height="56" transform="translate(0.5)" fill="white"/>
<path d="M38.25 34.4301H34.25L29.8 37.39C29.14 37.83 28.25 37.3601 28.25 36.5601V34.4301C25.25 34.4301 23.25 32.4301 23.25 29.4301V23.43C23.25 20.43 25.25 18.43 28.25 18.43H38.25C41.25 18.43 43.25 20.43 43.25 23.43V29.4301C43.25 32.4301 41.25 34.4301 38.25 34.4301Z" stroke="#0F6491" stroke-width="1.5" stroke-miterlimit="10" stroke-linecap="round" stroke-linejoin="round"/>
<path d="M33.2501 27.36V27.15C33.2501 26.47 33.6701 26.11 34.0901 25.82C34.5001 25.54 34.91 25.18 34.91 24.52C34.91 23.6 34.1701 22.86 33.2501 22.86C32.3301 22.86 31.5901 23.6 31.5901 24.52" stroke="#0F6491" stroke-width="1.5" stroke-linecap="round" stroke-linejoin="round"/>
<path d="M33.2455 29.75H33.2545" stroke="#0F6491" stroke-width="1.5" stroke-linecap="round" stroke-linejoin="round"/>
</svg>
