<svg width="28" height="24" viewBox="0 0 28 24" fill="none" xmlns="http://www.w3.org/2000/svg">
<path d="M25.6667 0.333984H2.33341C1.89139 0.333984 1.46746 0.509579 1.1549 0.82214C0.842343 1.1347 0.666748 1.55862 0.666748 2.00065V22.0007C0.666748 22.4427 0.842343 22.8666 1.1549 23.1792C1.46746 23.4917 1.89139 23.6673 2.33341 23.6673H25.6667C26.1088 23.6673 26.5327 23.4917 26.8453 23.1792C27.1578 22.8666 27.3334 22.4427 27.3334 22.0007V2.00065C27.3334 1.55862 27.1578 1.1347 26.8453 0.82214C26.5327 0.509579 26.1088 0.333984 25.6667 0.333984ZM6.43341 3.66732C6.92787 3.66732 7.41122 3.81394 7.82234 4.08864C8.23346 4.36335 8.55389 4.75379 8.74311 5.21061C8.93233 5.66742 8.98184 6.17009 8.88538 6.65504C8.78891 7.14 8.55081 7.58545 8.20118 7.93509C7.85155 8.28472 7.40609 8.52282 6.92114 8.61928C6.43619 8.71574 5.93352 8.66624 5.47671 8.47702C5.01989 8.2878 4.62944 7.96737 4.35474 7.55624C4.08004 7.14512 3.93341 6.66177 3.93341 6.16732C3.93341 5.50428 4.19681 4.86839 4.66565 4.39955C5.13449 3.93071 5.77037 3.66732 6.43341 3.66732ZM4.00008 19.5007V16.084L9.00008 11.0173C9.15622 10.8621 9.36743 10.775 9.58758 10.775C9.80774 10.775 10.0189 10.8621 10.1751 11.0173L12.3334 13.1257L5.93341 19.5007H4.00008ZM24.0001 19.5007H8.29175L13.4834 14.309L17.9834 9.80898C18.1396 9.65378 18.3508 9.56666 18.5709 9.56666C18.7911 9.56666 19.0023 9.65378 19.1584 9.80898L24.0001 14.6507V19.5007Z" fill="#22A3E6"/>
</svg>
