<?xml version="1.0" ?><svg id="Outline" viewBox="0 0 512 512" xmlns="http://www.w3.org/2000/svg"><defs><style>.cls-1{fill:#262626;}</style></defs><path class="cls-1" d="M222,327.8a11.34,11.34,0,0,0,16,16L318.86,263h0a11.35,11.35,0,0,0,0-16h0l-80.81-80.82a11.34,11.34,0,0,0-16,16l61.47,61.46H63.9a11.34,11.34,0,0,0,0,22.68H283.47Z"/><path class="cls-1" d="M372.84,59.53H184.26a45.7,45.7,0,0,0-45.64,45.65V151.3a11.34,11.34,0,0,0,22.67,0V105.18a23,23,0,0,1,23-23H372.84a23,23,0,0,1,23,23V407a23,23,0,0,1-23,23H184.26a23,23,0,0,1-23-23v-45a11.34,11.34,0,1,0-22.67,0v45a45.7,45.7,0,0,0,45.64,45.65H372.84A45.7,45.7,0,0,0,418.49,407V105.18A45.7,45.7,0,0,0,372.84,59.53Z"/></svg>