<svg width="66" height="56" viewBox="0 0 66 56" fill="none" xmlns="http://www.w3.org/2000/svg">
<rect width="65.5" height="56" transform="translate(0.5)" fill="white"/>
<path d="M33.25 22.44V25.77" stroke="#0F6491" stroke-width="1.5" stroke-miterlimit="10" stroke-linecap="round"/>
<path d="M33.2699 18C29.5899 18 26.6099 20.98 26.6099 24.66V26.76C26.6099 27.44 26.3299 28.46 25.9799 29.04L24.7099 31.16C23.9299 32.47 24.4699 33.93 25.9099 34.41C30.6899 36 35.8599 36 40.6399 34.41C41.9899 33.96 42.5699 32.38 41.8399 31.16L40.5699 29.04C40.2199 28.46 39.9399 27.43 39.9399 26.76V24.66C39.9299 21 36.9299 18 33.2699 18Z" stroke="#0F6491" stroke-width="1.5" stroke-miterlimit="10" stroke-linecap="round"/>
<path d="M36.5799 34.82C36.5799 36.65 35.0799 38.15 33.2499 38.15C32.3399 38.15 31.4999 37.77 30.8999 37.17C30.2999 36.57 29.9199 35.73 29.9199 34.82" stroke="#0F6491" stroke-width="1.5" stroke-miterlimit="10"/>
</svg>
