<?xml version="1.0" encoding="iso-8859-1"?>
<!-- Generator: Adobe Illustrator 21.1.0, SVG Export Plug-In . SVG Version: 6.00 Build 0)  -->
<svg version="1.1" id="Layer_1" xmlns="http://www.w3.org/2000/svg" xmlns:xlink="http://www.w3.org/1999/xlink" x="0px" y="0px"
	 viewBox="0 0 24 24" enable-background="new 0 0 24 24" xml:space="preserve">
<g>
	<path fill="#303C42" d="M9.8222656,19.234375c-0.1938477-0.1777344-0.3896484-0.3549805-0.5507813-0.5507813
		c-0.0385742-0.050293-0.105957-0.2387695-0.1552734-0.3759766C8.8896484,17.6757813,8.4682617,16.5,6.9995117,16.5
		c-1.4677734,0-1.8891602,1.1757813-2.1157227,1.8071289c-0.0493164,0.137207-0.1166992,0.3256836-0.1547852,0.3754883
		c-0.1621094,0.1972656-0.3579102,0.3740234-0.5522461,0.5517578C3.6318359,19.734375,3.0136719,20.3007813,3,21.2431641
		C2.9931641,21.75,3.1508789,22.1811523,3.4560547,22.4907227C3.7841797,22.8237305,4.2651367,23,4.8461914,23
		c0.6508789,0,1.0566406-0.2167969,1.3828125-0.390625c0.265625-0.1416016,0.4575195-0.2441406,0.7705078-0.2441406
		c0.3134766,0,0.5053711,0.1025391,0.7709961,0.2441406C8.0966797,22.7832031,8.5029297,23,9.1538086,23
		c0.5810547,0,1.0615234-0.1762695,1.3901367-0.5092773C10.8491211,22.1811523,11.0068359,21.75,11,21.2426758
		C10.9863281,20.3007813,10.3681641,19.7338867,9.8222656,19.234375z"/>
	<path fill="#6D4D42" d="M9.8320313,21.7885742C9.659668,21.9633789,9.3681641,22,9.1538086,22
		c-0.4008789,0-0.6269531-0.1206055-0.9125977-0.2729492C7.9233398,21.5576172,7.5629883,21.3652344,7,21.3652344
		c-0.5634766,0-0.9238281,0.1923828-1.2416992,0.3618164C5.4726563,21.8793945,5.246582,22,4.8461914,22
		c-0.2143555,0-0.5058594-0.0366211-0.6782227-0.2114258C4.0532227,21.6723633,3.996582,21.4936523,4,21.2573242
		c0.0073242-0.5107422,0.3989258-0.8696289,0.8525391-1.2856445c0.2290039-0.2094727,0.4575195-0.4213867,0.6489258-0.6542969
		c0.1459961-0.1777344,0.2285156-0.4072266,0.3237305-0.6728516C6.0727539,17.953125,6.2885742,17.5,6.9995117,17.5
		c0.7119141,0,0.9272461,0.4536133,1.175293,1.1450195c0.0952148,0.265625,0.1772461,0.4946289,0.3232422,0.6728516
		c0.1914063,0.2324219,0.4199219,0.4438477,0.6489258,0.6538086C9.6005859,20.387207,9.9926758,20.746582,10,21.2568359
		C10.003418,21.4931641,9.9467773,21.6723633,9.8320313,21.7885742z"/>
	<path opacity="0.1" fill="#010101" d="M9.7536621,20.600769c-0.0276489,0.0717773-0.0603027,0.1383667-0.1091309,0.1878052
		C9.472168,20.9633789,9.1806641,21,8.9663086,21c-0.4008789,0-0.6269531-0.1206055-0.9125977-0.2729492
		c-0.3178711-0.1694336-0.6782227-0.3618164-1.2412171-0.3618164c-0.5634704,0-0.9238219,0.1923828-1.241693,0.3618164
		C5.2851563,20.8793945,5.059082,21,4.6586914,21c-0.1746826,0-0.3876343-0.0444336-0.5585327-0.1480713
		C4.0423584,20.9784546,4.0020752,21.1107178,4,21.2573242c-0.003418,0.2363281,0.0532227,0.4150391,0.1679688,0.53125
		C4.340332,21.9633789,4.6318359,22,4.8461914,22c0.4003906,0,0.6264648-0.1206055,0.9121094-0.2729492
		C6.0761719,21.5576172,6.4365234,21.3652344,7,21.3652344c0.5629883,0,0.9233398,0.1923828,1.2412109,0.3618164
		C8.5268555,21.8793945,8.7529297,22,9.1538086,22c0.2143555,0,0.5058594-0.0366211,0.6782227-0.2114258
		C9.9467773,21.6723633,10.003418,21.4931641,10,21.2568359C9.99646,21.010498,9.9002075,20.8001099,9.7536621,20.600769z"/>
	<path fill="#303C42" d="M11.7861328,15c-0.7817383,0-1.527832,0.8193359-1.7353516,1.9067383
		C10.0161133,17.0878906,10,17.2626953,10,17.4277344c-0.0004883,0.4052734,0.0947266,0.765625,0.2753906,1.0419922
		C10.4951172,18.8066406,10.8374023,19,11.2138672,19c0.7817383,0,1.527832-0.8193359,1.7353516-1.90625c0,0,0,0,0-0.0004883
		C12.9838867,16.9121094,13,16.7368164,13,16.5717773c0.0004883-0.4052734-0.0947266-0.765625-0.2753906-1.0419922
		C12.5048828,15.1933594,12.1625977,15,11.7861328,15z"/>
	<path fill="#6D4D42" d="M11.9667969,16.9067383C11.8413086,17.5639648,11.4306641,18,11.2138672,18
		c-0.0166016,0-0.0512695,0-0.1010742-0.0766602C11.0410156,17.8129883,11,17.6328125,11,17.4282227
		c0-0.105957,0.0112305-0.2182617,0.0332031-0.3344727C11.1586914,16.4360352,11.5693359,16,11.7861328,16
		c0.0166016,0,0.0512695,0,0.1010742,0.0766602C11.9589844,16.1865234,12,16.3666992,12,16.5712891
		C12,16.6772461,11.9887695,16.7900391,11.9667969,16.9067383z"/>
	<path opacity="0.1" fill="#010101" d="M11.887207,16.0766602C11.8374023,16,11.8027344,16,11.7861328,16
		c-0.0073242,0-0.0180664,0.0095825-0.0258179,0.0105591c-0.0048218,0.0752563-0.0076904,0.1496582-0.0227051,0.2294922
		c-0.1212769,0.6350708-0.5055542,1.0545044-0.7271118,1.0827026C11.0082397,17.3573608,11,17.3948364,11,17.4282227
		c0,0.2045898,0.0410156,0.3847656,0.112793,0.4951172C11.1625977,18,11.1972656,18,11.2138672,18
		c0.2167969,0,0.6274414-0.4360352,0.7529297-1.0932617C11.9887695,16.7900391,12,16.6772461,12,16.5712891
		C12,16.3666992,11.9589844,16.1865234,11.887207,16.0766602z"/>
	<path fill="#303C42" d="M8.9335938,15.5c0.9121094,0,1.7983398-0.9492188,2.0175781-2.1611328v-0.0009766
		c0.0283203-0.1591797,0.0439453-0.3139648,0.0483398-0.4648438c0.0141602-0.6064453-0.1635742-1.1303711-0.5009766-1.4760742
		C10.2451172,11.137207,9.9223633,11,9.5664063,11c-0.9121094,0-1.7983398,0.9492188-2.0175781,2.1621094
		c-0.0283203,0.1591797-0.0439453,0.3139648-0.0483398,0.4648438c-0.0141602,0.6064453,0.1635742,1.1303711,0.5009766,1.4760742
		C8.2548828,15.362793,8.5776367,15.5,8.9335938,15.5z"/>
	<path fill="#6D4D42" d="M8.5332031,13.3388672C8.671875,12.5727539,9.1928711,12,9.5664063,12
		c0.0839844,0,0.152832,0.0302734,0.2167969,0.0957031c0.1430664,0.1469727,0.2241211,0.4287109,0.2163086,0.7519531
		c-0.0024414,0.1010742-0.0131836,0.2060547-0.0327148,0.3144531c-0.1704102,0.9375-0.9033203,1.5976563-1.25,1.2421875
		c-0.1430664-0.1469727-0.2241211-0.4287109-0.2163086-0.7519531C8.5029297,13.5512695,8.5136719,13.4462891,8.5332031,13.3388672z"
		/>
	<path opacity="0.1" fill="#010101" d="M9.7832031,12.0957031c-0.0437012-0.0447388-0.0966797-0.052002-0.1481934-0.0654297
		c0.0009766,0.031311,0.0111084,0.0559692,0.0103149,0.0881958c-0.0024414,0.1010742-0.0131836,0.2060547-0.0327148,0.3144531
		c-0.1485596,0.8172607-0.7243652,1.4227295-1.0993042,1.3293457c0.012146,0.2727051,0.078186,0.5133057,0.2034912,0.6420288
		c0.3466797,0.3554688,1.0795898-0.3046875,1.25-1.2421875c0.0195313-0.1083984,0.0302734-0.2133789,0.0327148-0.3144531
		C10.0073242,12.5244141,9.9262695,12.2426758,9.7832031,12.0957031z"/>
	<path fill="#303C42" d="M3.7246094,18.4697266C3.9052734,18.1933594,4.0004883,17.8330078,4,17.4282227
		c0-0.1655273-0.0161133-0.340332-0.0507813-0.5219727C3.7416992,15.8193359,2.9956055,15,2.2138672,15
		c-0.3764648,0-0.71875,0.1933594-0.9384766,0.5297852C1.0947266,15.8061523,0.9995117,16.1665039,1,16.5712891
		c0,0.1655273,0.0161133,0.3408203,0.0507813,0.5219727c0,0.0004883,0,0.0004883,0,0.0004883
		C1.2583008,18.1806641,2.0043945,19,2.7861328,19C3.1625977,19,3.5048828,18.8066406,3.7246094,18.4697266z"/>
	<path fill="#6D4D42" d="M2.887207,17.9233398C2.8374023,18,2.8027344,18,2.7861328,18
		c-0.2167969,0-0.6274414-0.4360352-0.7529297-1.0932617C2.0112305,16.7900391,2,16.6772461,2,16.5708008
		c0-0.2041016,0.0410156-0.3842773,0.112793-0.4941406C2.1625977,16,2.1972656,16,2.2138672,16
		c0.2167969,0,0.6274414,0.4360352,0.7529297,1.0932617C2.9887695,17.2099609,3,17.3222656,3,17.4287109
		C3,17.6328125,2.9589844,17.8129883,2.887207,17.9233398z"/>
	<path opacity="0.1" fill="#010101" d="M2.9667969,17.0932617c-0.0993042-0.5200195-0.3739624-0.8912354-0.5930176-1.027832
		c0.0786743,0.1541138,0.1481323,0.3255615,0.1867676,0.527832C2.5825195,16.7099609,2.59375,16.8222656,2.59375,16.9287109
		c0,0.2041016-0.0410156,0.3842773-0.112793,0.4946289C2.4311523,17.5,2.3964844,17.5,2.3798828,17.5
		c-0.0452881,0-0.1021118-0.0294189-0.1599121-0.0654907C2.3969727,17.7811279,2.6360474,18,2.7861328,18
		c0.0166016,0,0.0512695,0,0.1010742-0.0766602C2.9589844,17.8129883,3,17.6328125,3,17.4287109
		C3,17.3222656,2.9887695,17.2099609,2.9667969,17.0932617z"/>
	<path fill="#303C42" d="M3.0488281,13.3388672C3.2680664,14.5507813,4.1542969,15.5,5.0664063,15.5
		c0.355957,0,0.6787109-0.137207,0.9321289-0.3969727C6.3359375,14.7573242,6.5136719,14.2333984,6.4995117,13.625
		c-0.0043945-0.1489258-0.0200195-0.3037109-0.0483398-0.4638672C6.2319336,11.9492188,5.3457031,11,4.4335938,11
		c-0.355957,0-0.6787109,0.137207-0.9321289,0.3969727C3.1640625,11.7426758,2.9863281,12.2666016,3.0004883,12.875
		c0.0043945,0.1489258,0.0200195,0.3037109,0.0483398,0.4628906V13.3388672z"/>
	<path fill="#6D4D42" d="M4.2167969,12.0957031c0.3476563-0.3554688,1.0805664,0.3051758,1.25,1.2421875
		c0.0195313,0.1083984,0.0302734,0.2133789,0.0327148,0.3125c0.0078125,0.3251953-0.0732422,0.6069336-0.2163086,0.7539063
		c-0.3486328,0.3574219-1.0800781-0.3037109-1.25-1.2421875c-0.0195313-0.1083984-0.0302734-0.2133789-0.0327148-0.3125
		C3.9926758,12.5244141,4.0737305,12.2426758,4.2167969,12.0957031z"/>
	<path opacity="0.1" fill="#010101" d="M5.4667969,13.3378906c-0.0838623-0.4637451-0.3059692-0.8586426-0.5508423-1.09729
		c0.0386963,0.1102905,0.0706177,0.2261353,0.0925293,0.34729c0.0195313,0.1083984,0.0302734,0.2133789,0.0327148,0.3125
		c0.0078125,0.3251953-0.0732422,0.6069336-0.2163086,0.7539063C4.6491089,13.8345337,4.3761597,13.7548218,4.12677,13.512146
		c0.2611084,0.7424927,0.8532104,1.203064,1.1564331,0.8921509c0.1430664-0.1469727,0.2241211-0.4287109,0.2163086-0.7539063
		C5.4970703,13.5512695,5.4863281,13.4462891,5.4667969,13.3378906z"/>
	<path fill="#303C42" d="M19.8222656,9.234375c-0.1938477-0.1777344-0.3896484-0.3549805-0.5507813-0.5507813
		c-0.0385742-0.050293-0.105957-0.2387695-0.1552734-0.3759766C18.8896484,7.6757813,18.4682617,6.5,16.9995117,6.5
		c-1.4677734,0-1.8891602,1.1757813-2.1157227,1.8071289c-0.0493164,0.137207-0.1166992,0.3256836-0.1547852,0.3754883
		c-0.1621094,0.1972656-0.3579102,0.3740234-0.5522461,0.5517578c-0.5449219,0.5-1.1630859,1.0664063-1.1767578,2.0087891
		c-0.0068359,0.5068359,0.1508789,0.9379883,0.4560547,1.2475586C13.7841797,12.8237305,14.2651367,13,14.8461914,13
		c0.6508789,0,1.0566406-0.2167969,1.3828125-0.390625c0.265625-0.1416016,0.4575195-0.2441406,0.7705078-0.2441406
		c0.3134766,0,0.5053711,0.1025391,0.7709961,0.2441406C18.0966797,12.7832031,18.5029297,13,19.1538086,13
		c0.5810547,0,1.0615234-0.1762695,1.3901367-0.5092773C20.8491211,12.1811523,21.0068359,11.75,21,11.2426758
		C20.9863281,10.3007813,20.3681641,9.7338867,19.8222656,9.234375z"/>
	<path fill="#6D4D42" d="M19.8320313,11.7885742C19.659668,11.9633789,19.3681641,12,19.1538086,12
		c-0.4008789,0-0.6269531-0.1206055-0.9125977-0.2729492C17.9233398,11.5576172,17.5629883,11.3652344,17,11.3652344
		c-0.5634766,0-0.9238281,0.1923828-1.2416992,0.3618164C15.4726563,11.8793945,15.246582,12,14.8461914,12
		c-0.2143555,0-0.5058594-0.0366211-0.6782227-0.2114258C14.0532227,11.6723633,13.996582,11.4936523,14,11.2573242
		c0.0073242-0.5107422,0.3989258-0.8696289,0.8525391-1.2856445c0.2290039-0.2094727,0.4575195-0.4213867,0.6489258-0.6542969
		c0.1459961-0.1777344,0.2285156-0.4072266,0.3237305-0.6728516C16.0727539,7.953125,16.2885742,7.5,16.9995117,7.5
		c0.7119141,0,0.9272461,0.4536133,1.175293,1.1450195c0.0952148,0.265625,0.1772461,0.4946289,0.3232422,0.6728516
		c0.1914063,0.2324219,0.4199219,0.4438477,0.6489258,0.6538086C19.6005859,10.387207,19.9926758,10.746582,20,11.2568359
		C20.003418,11.4931641,19.9467773,11.6723633,19.8320313,11.7885742z"/>
	<path opacity="0.1" fill="#010101" d="M19.7536621,10.600769c-0.0276489,0.0717773-0.0603027,0.1383667-0.1091309,0.1878052
		C19.472168,10.9633789,19.1806641,11,18.9663086,11c-0.4008789,0-0.6269531-0.1206055-0.9125977-0.2729492
		c-0.3178711-0.1694336-0.6782227-0.3618164-1.2412109-0.3618164c-0.5634766,0-0.9238281,0.1923828-1.2416992,0.3618164
		C15.2851563,10.8793945,15.059082,11,14.6586914,11c-0.1746826,0-0.3876343-0.0444336-0.5585327-0.1480713
		C14.0423584,10.9784546,14.0020752,11.1107178,14,11.2573242c-0.003418,0.2363281,0.0532227,0.4150391,0.1679688,0.53125
		C14.340332,11.9633789,14.6318359,12,14.8461914,12c0.4003906,0,0.6264648-0.1206055,0.9121094-0.2729492
		C16.0761719,11.5576172,16.4365234,11.3652344,17,11.3652344c0.5629883,0,0.9233398,0.1923828,1.2412109,0.3618164
		C18.5268555,11.8793945,18.7529297,12,19.1538086,12c0.2143555,0,0.5058594-0.0366211,0.6782227-0.2114258
		C19.9467773,11.6723633,20.003418,11.4931641,20,11.2568359C19.99646,11.010498,19.9002075,10.8001099,19.7536621,10.600769z"/>
	<path fill="#303C42" d="M21.7861328,5c-0.7817383,0-1.527832,0.8193359-1.7353516,1.9067383
		C20.0161133,7.0878906,20,7.2626953,20,7.4277344c-0.0004883,0.4052734,0.0947266,0.765625,0.2753906,1.0419922
		C20.4951172,8.8066406,20.8374023,9,21.2138672,9c0.7817383,0,1.527832-0.8193359,1.7353516-1.90625c0,0,0,0,0-0.0004883
		C22.9838867,6.9121094,23,6.7368164,23,6.5717773c0.0004883-0.4052734-0.0947266-0.765625-0.2753906-1.0419922
		C22.5048828,5.1933594,22.1625977,5,21.7861328,5z"/>
	<path fill="#6D4D42" d="M21.9667969,6.9067383C21.8413086,7.5639648,21.4306641,8,21.2138672,8
		c-0.0166016,0-0.0512695,0-0.1010742-0.0766602C21.0410156,7.8129883,21,7.6328125,21,7.4282227
		c0-0.105957,0.0112305-0.2182617,0.0332031-0.3344727C21.1586914,6.4360352,21.5693359,6,21.7861328,6
		c0.0166016,0,0.0512695,0,0.1010742,0.0766602C21.9589844,6.1865234,22,6.3666992,22,6.5712891
		C22,6.6772461,21.9887695,6.7900391,21.9667969,6.9067383z"/>
	<path opacity="0.1" fill="#010101" d="M21.887207,6.0766602C21.8374023,6,21.8027344,6,21.7861328,6
		c-0.0073242,0-0.0180664,0.0095825-0.0258179,0.0105591c-0.0048218,0.0752563-0.0076904,0.1496582-0.0227051,0.2294922
		c-0.1212769,0.6350708-0.5055542,1.0545044-0.7271118,1.0827026C21.0082397,7.3573608,21,7.3948364,21,7.4282227
		c0,0.2045898,0.0410156,0.3847656,0.112793,0.4951172C21.1625977,8,21.1972656,8,21.2138672,8
		c0.2167969,0,0.6274414-0.4360352,0.7529297-1.0932617C21.9887695,6.7900391,22,6.6772461,22,6.5712891
		C22,6.3666992,21.9589844,6.1865234,21.887207,6.0766602z"/>
	<path fill="#303C42" d="M18.9335938,5.5c0.9121094,0,1.7983398-0.9492188,2.0175781-2.1611328V3.3378906
		c0.0283203-0.1591797,0.0439453-0.3139648,0.0483398-0.4648438c0.0141602-0.6064453-0.1635742-1.1303711-0.5009766-1.4760742
		C20.2451172,1.137207,19.9223633,1,19.5664063,1c-0.9121094,0-1.7983398,0.9492188-2.0175781,2.1621094
		c-0.0283203,0.1591797-0.0439453,0.3139648-0.0483398,0.4648438c-0.0141602,0.6064453,0.1635742,1.1303711,0.5009766,1.4760742
		C18.2548828,5.362793,18.5776367,5.5,18.9335938,5.5z"/>
	<path fill="#6D4D42" d="M18.5332031,3.3388672C18.671875,2.5727539,19.1928711,2,19.5664063,2
		c0.0839844,0,0.152832,0.0302734,0.2167969,0.0957031c0.1430664,0.1469727,0.2241211,0.4287109,0.2163086,0.7519531
		c-0.0024414,0.1010742-0.0131836,0.2060547-0.0327148,0.3144531c-0.1704102,0.9375-0.9033203,1.5976563-1.25,1.2421875
		c-0.1430664-0.1469727-0.2241211-0.4287109-0.2163086-0.7519531C18.5029297,3.5512695,18.5136719,3.4462891,18.5332031,3.3388672z"
		/>
	<path opacity="0.1" fill="#010101" d="M19.7832031,2.0957031c-0.0437012-0.0447388-0.0966797-0.052002-0.1481934-0.0654297
		c0.0009766,0.031311,0.0111084,0.0559692,0.0103149,0.0881958c-0.0024414,0.1010742-0.0131836,0.2060547-0.0327148,0.3144531
		c-0.1485596,0.8172607-0.7243652,1.4227295-1.0993042,1.3293457c0.012146,0.2727051,0.078186,0.5133057,0.2034912,0.6420288
		c0.3466797,0.3554688,1.0795898-0.3046875,1.25-1.2421875c0.0195313-0.1083984,0.0302734-0.2133789,0.0327148-0.3144531
		C20.0073242,2.5244141,19.9262695,2.2426758,19.7832031,2.0957031z"/>
	<path fill="#303C42" d="M13.7246094,8.4697266C13.9052734,8.1933594,14.0004883,7.8330078,14,7.4282227
		c0-0.1655273-0.0161133-0.340332-0.0507813-0.5219727C13.7416992,5.8193359,12.9956055,5,12.2138672,5
		c-0.3764648,0-0.71875,0.1933594-0.9384766,0.5297852C11.0947266,5.8061523,10.9995117,6.1665039,11,6.5712891
		c0,0.1655273,0.0161133,0.3408203,0.0507813,0.5219727c0,0.0004883,0,0.0004883,0,0.0004883
		C11.2583008,8.1806641,12.0043945,9,12.7861328,9C13.1625977,9,13.5048828,8.8066406,13.7246094,8.4697266z"/>
	<path fill="#6D4D42" d="M12.887207,7.9233398C12.8374023,8,12.8027344,8,12.7861328,8
		c-0.2167969,0-0.6274414-0.4360352-0.7529297-1.0932617C12.0112305,6.7900391,12,6.6772461,12,6.5708008
		c0-0.2041016,0.0410156-0.3842773,0.112793-0.4941406C12.1625977,6,12.1972656,6,12.2138672,6
		c0.2167969,0,0.6274414,0.4360352,0.7529297,1.0932617C12.9887695,7.2099609,13,7.3222656,13,7.4287109
		C13,7.6328125,12.9589844,7.8129883,12.887207,7.9233398z"/>
	<path opacity="0.1" fill="#010101" d="M12.9667969,7.0932617c-0.0993042-0.5200195-0.3739624-0.8912354-0.5930176-1.027832
		c0.0786743,0.1541138,0.1481323,0.3255615,0.1867676,0.527832C12.5825195,6.7099609,12.59375,6.8222656,12.59375,6.9287109
		c0,0.2041016-0.0410156,0.3842773-0.112793,0.4946289C12.4311523,7.5,12.3964844,7.5,12.3798828,7.5
		c-0.0452881,0-0.1021118-0.0294189-0.1599121-0.0654907C12.3969727,7.7811279,12.6360474,8,12.7861328,8
		c0.0166016,0,0.0512695,0,0.1010742-0.0766602C12.9589844,7.8129883,13,7.6328125,13,7.4287109
		C13,7.3222656,12.9887695,7.2099609,12.9667969,7.0932617z"/>
	<path fill="#303C42" d="M13.0488281,3.3388672C13.2680664,4.5507813,14.1542969,5.5,15.0664063,5.5
		c0.355957,0,0.6787109-0.137207,0.9321289-0.3969727C16.3359375,4.7573242,16.5136719,4.2333984,16.4995117,3.625
		c-0.0043945-0.1489258-0.0200195-0.3037109-0.0483398-0.4638672C16.2319336,1.9492188,15.3457031,1,14.4335938,1
		c-0.355957,0-0.6787109,0.137207-0.9321289,0.3969727C13.1640625,1.7426758,12.9863281,2.2666016,13.0004883,2.875
		c0.0043945,0.1489258,0.0200195,0.3037109,0.0483398,0.4628906V3.3388672z"/>
	<path fill="#6D4D42" d="M14.2167969,2.0957031c0.3476563-0.3554688,1.0805664,0.3051758,1.25,1.2421875
		c0.0195313,0.1083984,0.0302734,0.2133789,0.0327148,0.3125c0.0078125,0.3251953-0.0732422,0.6069336-0.2163086,0.7539063
		c-0.3486328,0.3574219-1.0800781-0.3037109-1.25-1.2421875c-0.0195313-0.1083984-0.0302734-0.2133789-0.0327148-0.3125
		C13.9926758,2.5244141,14.0737305,2.2426758,14.2167969,2.0957031z"/>
	<path opacity="0.1" fill="#010101" d="M15.4667969,3.3378906c-0.0838623-0.4637451-0.3059692-0.8586426-0.5508423-1.09729
		c0.0386963,0.1102905,0.0706177,0.2261353,0.0925293,0.34729c0.0195313,0.1083984,0.0302734,0.2133789,0.0327148,0.3125
		c0.0078125,0.3251953-0.0732422,0.6069336-0.2163086,0.7539063C14.6491089,3.8345337,14.3761597,3.7548218,14.12677,3.512146
		c0.2611084,0.7424927,0.8532104,1.203064,1.1564331,0.8921509c0.1430664-0.1469727,0.2241211-0.4287109,0.2163086-0.7539063
		C15.4970703,3.5512695,15.4863281,3.4462891,15.4667969,3.3378906z"/>
	<linearGradient id="SVGID_1_" gradientUnits="userSpaceOnUse" x1="4.5451503" y1="8.4829817" x2="19.2997646" y2="15.3631706">
		<stop  offset="0" style="stop-color:#FFFFFF;stop-opacity:0.2"/>
		<stop  offset="1" style="stop-color:#FFFFFF;stop-opacity:0"/>
	</linearGradient>
	<path fill="url(#SVGID_1_)" d="M9.8222656,19.234375c-0.1938477-0.1777344-0.3896484-0.3549805-0.5507813-0.5507813
		c-0.0385742-0.050293-0.105957-0.2387695-0.1552734-0.3759766C8.8896484,17.6757813,8.4682617,16.5,6.9995117,16.5
		c-1.4677734,0-1.8891602,1.1757813-2.1157227,1.8071289c-0.0493164,0.137207-0.1166992,0.3256836-0.1547852,0.3754883
		c-0.1621094,0.1972656-0.3579102,0.3740234-0.5522461,0.5517578C3.6318359,19.734375,3.0136719,20.3007813,3,21.2431641
		C2.9931641,21.75,3.1508789,22.1811523,3.4560547,22.4907227C3.7841797,22.8237305,4.2651367,23,4.8461914,23
		c0.6508789,0,1.0566406-0.2167969,1.3828125-0.390625c0.265625-0.1416016,0.4575195-0.2441406,0.7705078-0.2441406
		c0.3134766,0,0.5053711,0.1025391,0.7709961,0.2441406C8.0966797,22.7832031,8.5029297,23,9.1538086,23
		c0.5810547,0,1.0615234-0.1762695,1.3901367-0.5092773C10.8491211,22.1811523,11.0068359,21.75,11,21.2426758
		C10.9863281,20.3007813,10.3681641,19.7338867,9.8222656,19.234375z M11.7861328,15
		c-0.7817383,0-1.527832,0.8193359-1.7353516,1.9067383C10.0161133,17.0878906,10,17.2626953,10,17.4277344
		c-0.0004883,0.4052734,0.0947266,0.765625,0.2753906,1.0419922C10.4951172,18.8066406,10.8374023,19,11.2138672,19
		c0.7817383,0,1.527832-0.8193359,1.7353516-1.90625c0,0,0,0,0-0.0004883C12.9838867,16.9121094,13,16.7368164,13,16.5717773
		c0.0004883-0.4052734-0.0947266-0.765625-0.2753906-1.0419922C12.5048828,15.1933594,12.1625977,15,11.7861328,15z M8.9335938,15.5
		c0.9121094,0,1.7983398-0.9492188,2.0175781-2.1611328v-0.0009766c0.0283203-0.1591797,0.0439453-0.3139648,0.0483398-0.4648438
		c0.0141602-0.6064453-0.1635742-1.1303711-0.5009766-1.4760742C10.2451172,11.137207,9.9223633,11,9.5664063,11
		c-0.9121094,0-1.7983398,0.9492188-2.0175781,2.1621094c-0.0283203,0.1591797-0.0439453,0.3139648-0.0483398,0.4648438
		c-0.0141602,0.6064453,0.1635742,1.1303711,0.5009766,1.4760742C8.2548828,15.362793,8.5776367,15.5,8.9335938,15.5z
		 M3.7246094,18.4697266C3.9052734,18.1933594,4.0004883,17.8330078,4,17.4282227
		c0-0.1655273-0.0161133-0.340332-0.0507813-0.5219727C3.7416992,15.8193359,2.9956055,15,2.2138672,15
		c-0.3764648,0-0.71875,0.1933594-0.9384766,0.5297852C1.0947266,15.8061523,0.9995117,16.1665039,1,16.5712891
		c0,0.1655273,0.0161133,0.3408203,0.0507813,0.5219727c0,0.0004883,0,0.0004883,0,0.0004883
		C1.2583008,18.1806641,2.0043945,19,2.7861328,19C3.1625977,19,3.5048828,18.8066406,3.7246094,18.4697266z M3.0488281,13.3388672
		C3.2680664,14.5507813,4.1542969,15.5,5.0664063,15.5c0.355957,0,0.6787109-0.137207,0.9321289-0.3969727
		C6.3359375,14.7573242,6.5136719,14.2333984,6.4995117,13.625c-0.0043945-0.1489258-0.0200195-0.3037109-0.0483398-0.4638672
		C6.2319336,11.9492188,5.3457031,11,4.4335938,11c-0.355957,0-0.6787109,0.137207-0.9321289,0.3969727
		C3.1640625,11.7426758,2.9863281,12.2666016,3.0004883,12.875c0.0043945,0.1489258,0.0200195,0.3037109,0.0483398,0.4628906
		V13.3388672z M19.8222656,9.234375c-0.1938477-0.1777344-0.3896484-0.3549805-0.5507813-0.5507813
		c-0.0385742-0.050293-0.105957-0.2387695-0.1552734-0.3759766C18.8896484,7.6757813,18.4682617,6.5,16.9995117,6.5
		c-1.4677734,0-1.8891602,1.1757813-2.1157227,1.8071289c-0.0493164,0.137207-0.1166992,0.3256836-0.1547852,0.3754883
		c-0.1621094,0.1972656-0.3579102,0.3740234-0.5522461,0.5517578c-0.5449219,0.5-1.1630859,1.0664063-1.1767578,2.0087891
		c-0.0068359,0.5068359,0.1508789,0.9379883,0.4560547,1.2475586C13.7841797,12.8237305,14.2651367,13,14.8461914,13
		c0.6508789,0,1.0566406-0.2167969,1.3828125-0.390625c0.265625-0.1416016,0.4575195-0.2441406,0.7705078-0.2441406
		c0.3134766,0,0.5053711,0.1025391,0.7709961,0.2441406C18.0966797,12.7832031,18.5029297,13,19.1538086,13
		c0.5810547,0,1.0615234-0.1762695,1.3901367-0.5092773C20.8491211,12.1811523,21.0068359,11.75,21,11.2426758
		C20.9863281,10.3007813,20.3681641,9.7338867,19.8222656,9.234375z M22.7246094,5.5297852
		C22.5048828,5.1933594,22.1625977,5,21.7861328,5c-0.7817383,0-1.527832,0.8193359-1.7353516,1.9067383
		C20.0161133,7.0878906,20,7.2626953,20,7.4277344c-0.0004883,0.4052734,0.0947266,0.765625,0.2753906,1.0419922
		C20.4951172,8.8066406,20.8374023,9,21.2138672,9c0.7817383,0,1.527832-0.8193359,1.7353516-1.90625c0,0,0,0,0-0.0004883
		C22.9838867,6.9121094,23,6.7368164,23,6.5717773C23.0004883,6.1665039,22.9052734,5.8061523,22.7246094,5.5297852z
		 M18.9335938,5.5c0.9121094,0,1.7983398-0.9492188,2.0175781-2.1611328V3.3378906
		c0.0283203-0.1591797,0.0439453-0.3139648,0.0483398-0.4648438c0.0141602-0.6064453-0.1635742-1.1303711-0.5009766-1.4760742
		C20.2451172,1.137207,19.9223633,1,19.5664063,1c-0.9121094,0-1.7983398,0.9492188-2.0175781,2.1621094
		c-0.0283203,0.1591797-0.0439453,0.3139648-0.0483398,0.4648438c-0.0141602,0.6064453,0.1635742,1.1303711,0.5009766,1.4760742
		C18.2548828,5.362793,18.5776367,5.5,18.9335938,5.5z M11.0507813,7.09375C11.2583008,8.1806641,12.0043945,9,12.7861328,9
		c0.3764648,0,0.71875-0.1933594,0.9384766-0.5302734C13.9052734,8.1933594,14.0004883,7.8330078,14,7.4282227
		c0-0.1655273-0.0161133-0.340332-0.0507813-0.5219727C13.7416992,5.8193359,12.9956055,5,12.2138672,5
		c-0.3764648,0-0.71875,0.1933594-0.9384766,0.5297852C11.0947266,5.8061523,10.9995117,6.1665039,11,6.5712891
		c0,0.1655273,0.0161133,0.3408203,0.0507813,0.5219727C11.0507813,7.09375,11.0507813,7.09375,11.0507813,7.09375z
		 M13.0488281,3.3388672C13.2680664,4.5507813,14.1542969,5.5,15.0664063,5.5c0.355957,0,0.6787109-0.137207,0.9321289-0.3969727
		C16.3359375,4.7573242,16.5136719,4.2333984,16.4995117,3.625c-0.0043945-0.1489258-0.0200195-0.3037109-0.0483398-0.4638672
		C16.2319336,1.9492188,15.3457031,1,14.4335938,1c-0.355957,0-0.6787109,0.137207-0.9321289,0.3969727
		C13.1640625,1.7426758,12.9863281,2.2666016,13.0004883,2.875c0.0043945,0.1489258,0.0200195,0.3037109,0.0483398,0.4628906
		V3.3388672z"/>
</g>
<g>
</g>
<g>
</g>
<g>
</g>
<g>
</g>
<g>
</g>
<g>
</g>
<g>
</g>
<g>
</g>
<g>
</g>
<g>
</g>
<g>
</g>
<g>
</g>
<g>
</g>
<g>
</g>
<g>
</g>
</svg>
