<svg width="66" height="56" viewBox="0 0 66 56" fill="none" xmlns="http://www.w3.org/2000/svg">
<rect width="65.5" height="56" fill="white"/>
<path d="M32.75 31C34.4069 31 35.75 29.6569 35.75 28C35.75 26.3431 34.4069 25 32.75 25C31.0931 25 29.75 26.3431 29.75 28C29.75 29.6569 31.0931 31 32.75 31Z" stroke="#0F6491" stroke-width="1.5" stroke-miterlimit="10" stroke-linecap="round" stroke-linejoin="round"/>
<path d="M22.75 28.88V27.12C22.75 26.08 23.6 25.22 24.65 25.22C26.46 25.22 27.2 23.94 26.29 22.37C25.77 21.47 26.08 20.3 26.99 19.78L28.72 18.79C29.51 18.32 30.53 18.6 31 19.39L31.11 19.58C32.01 21.15 33.49 21.15 34.4 19.58L34.51 19.39C34.98 18.6 36 18.32 36.79 18.79L38.52 19.78C39.43 20.3 39.74 21.47 39.22 22.37C38.31 23.94 39.05 25.22 40.86 25.22C41.9 25.22 42.76 26.07 42.76 27.12V28.88C42.76 29.92 41.91 30.78 40.86 30.78C39.05 30.78 38.31 32.06 39.22 33.63C39.74 34.54 39.43 35.7 38.52 36.22L36.79 37.21C36 37.68 34.98 37.4 34.51 36.61L34.4 36.42C33.5 34.85 32.02 34.85 31.11 36.42L31 36.61C30.53 37.4 29.51 37.68 28.72 37.21L26.99 36.22C26.08 35.7 25.77 34.53 26.29 33.63C27.2 32.06 26.46 30.78 24.65 30.78C23.6 30.78 22.75 29.92 22.75 28.88Z" stroke="#0F6491" stroke-width="1.5" stroke-miterlimit="10" stroke-linecap="round" stroke-linejoin="round"/>
</svg>
