<svg width="89" height="89" viewBox="0 0 89 89" fill="none" xmlns="http://www.w3.org/2000/svg">
<path opacity="0.4" d="M81.0463 28.9607V28.962V60.0379C81.0463 66.6876 79.0661 71.9347 75.4819 75.5189C71.8978 79.1031 66.6507 81.0833 60.0009 81.0833H28.9622C22.3124 81.0833 17.0655 79.1031 13.4814 75.5145C9.89716 71.9258 7.91675 66.6694 7.91675 60.0008V28.962C7.91675 22.3123 9.89695 17.0652 13.4811 13.481C17.0653 9.89682 22.3124 7.91663 28.9622 7.91663H60.038C66.6878 7.91663 71.9347 9.89687 75.5142 13.4808C79.0935 17.0646 81.0646 22.3113 81.0463 28.9607Z" fill="#00A488" stroke="#00A488"/>
<path d="M38.8805 51.4174L39.2341 51.7709L39.5876 51.4174L58.6485 32.3565C59.5286 31.4764 60.9921 31.4764 61.8722 32.3565C62.7524 33.2367 62.7524 34.7001 61.8722 35.5803L40.846 56.6065C40.4195 57.033 39.8416 57.2759 39.2341 57.2759C38.6265 57.2759 38.0487 57.033 37.6222 56.6065L27.1276 46.1119C26.2475 45.2318 26.2475 43.7683 27.1276 42.8882C28.0078 42.008 29.4712 42.008 30.3514 42.8882L38.8805 51.4174Z" fill="#00A488" stroke="#00A488"/>
</svg>
